<?xml version="1.0" encoding="utf-8"?>
<!-- Generator: Adobe Illustrator 18.0.0, SVG Export Plug-In . SVG Version: 6.00 Build 0)  -->
<!DOCTYPE svg PUBLIC "-//W3C//DTD SVG 1.1//EN" "http://www.w3.org/Graphics/SVG/1.1/DTD/svg11.dtd">
<svg version="1.1" id="Слой_1" xmlns="http://www.w3.org/2000/svg" xmlns:xlink="http://www.w3.org/1999/xlink" x="0px" y="0px"
	 viewBox="0 0 198.4 198.4" enable-background="new 0 0 198.4 198.4" xml:space="preserve">
<path fill="#27348B" d="M64.9,64.1c0,0-4.8-24.6-11-19.7c-5.8,4.6,4.4,28.6,4.4,28.6s-10-9.4-11-22.1c-1.5-18.1,9.8-25.5,9.8-25.5
	s-1.2,8.3,5.5,18.7C69.1,53.8,64.9,64.1,64.9,64.1z"/>
<path fill="#27348B" d="M66.7,87.8L47.9,73.4c0,0,3.7,11.1,5.6,16.6c8.1,23.7,9.7,22.5,17.2,35.2L55,83.4L66.7,87.8z"/>
<g>
	<path fill="#27348B" d="M114.8,140.7l-47,0.7l-46.6,0.7l-1.8,0l0-1.8l-0.8-61.9l-0.7-61.9l0-3.1l3.2-0.1c3.9-0.1,7.8-0.3,11.6-0.4
		c3.9-0.1,7.8-0.2,11.6-0.3c3.9-0.1,7.8-0.1,11.6-0.2c3.9,0,7.8-0.1,11.6-0.1l11.6-0.1c3.9,0,7.8,0,11.6,0l11.6,0l11.6,0.1l4.2,0
		l0,4.1L118.5,32l-0.3,15.5c-0.1,5.2-0.2,10.3-0.3,15.5l-0.4,15.5L117,93.9c-0.2,5.2-0.4,10.3-0.6,15.5c-0.2,5.2-0.5,10.3-0.7,15.5
		c-0.3,5.2-0.6,10.3-0.9,15.5L114.8,140.7z M114,139.9c-0.3-5-0.6-10-0.9-15.1c-0.2-5.2-0.5-10.3-0.7-15.5
		c-0.2-5.2-0.4-10.3-0.6-15.5l-0.5-15.5L111,62.9c-0.1-5.2-0.2-10.3-0.3-15.5L110.5,32l-0.1-15.5l4.1,4.1l-11.6,0.1l-11.6,0
		c-3.9,0-7.8,0-11.6,0l-11.6-0.1c-3.9,0-7.8-0.1-11.6-0.1c-3.9-0.1-7.8-0.1-11.6-0.2c-3.9-0.1-7.8-0.1-11.6-0.3
		c-3.9-0.1-7.8-0.2-11.6-0.4l3.2-3.2l-0.7,61.9l-0.8,61.9l-1.8-1.8l46.6,0.7L114,139.9z"/>
</g>
<path fill="#27348B" d="M65.9,40c0,0,8.7,5.5,8,16.7c-0.6,10-9.3,15.5-9.3,15.5s4.4-8.9,4.7-16.1C69.6,47.9,65.9,40,65.9,40z"/>
<path fill="#27348B" d="M64.9,64.1c0,0-4.8-24.6-11-19.7c-5.8,4.6,4.4,28.6,4.4,28.6s-10-9.4-11-22.1c-1.5-18.1,9.8-25.5,9.8-25.5
	s-1.2,8.3,5.5,18.7C69.1,53.8,64.9,64.1,64.9,64.1z"/>
<path fill="#27348B" d="M66.7,87.8L47.9,73.4c0,0,3.7,11.1,5.6,16.6c8.1,23.7,9.7,22.5,17.2,35.2L55,83.4L66.7,87.8z"/>
<g>
	<path fill="#E94E1B" d="M96.9,125l0.1,0.8c0,0.3,0,0.5,0,0.8c0,0.3-0.1,0.5-0.1,0.8c0,0.3-0.1,0.5-0.2,0.8c-0.2,0.5-0.4,1-0.7,1.4
		c-0.2,0.2-0.3,0.4-0.5,0.6c-0.2,0.2-0.4,0.4-0.6,0.6l-0.6,0.5l-0.7,0.4l-0.7,0.3l-0.8,0.3l-0.8,0.2l-0.8,0.1l-0.8,0l-0.8-0.1l0.1,0
		l-0.8,0.1c-0.3,0-0.5,0-0.8,0c-0.3,0-0.5-0.1-0.8-0.1c-0.3,0-0.5-0.1-0.8-0.2c-0.5-0.2-1-0.4-1.5-0.8c-0.2-0.2-0.4-0.3-0.6-0.5
		c-0.2-0.2-0.4-0.4-0.6-0.6l-0.5-0.7l-0.4-0.7l-0.3-0.8l-0.3-0.8l-0.2-0.8l-0.1-0.8l0-0.8l0.1-0.8l0,0.2l-0.1-0.8c0-0.3,0-0.6,0-0.9
		c0-0.3,0.1-0.6,0.1-0.8c0-0.3,0.2-0.6,0.2-0.8c0.2-0.5,0.5-1.1,0.8-1.5c0.2-0.2,0.4-0.4,0.5-0.7c0.2-0.2,0.4-0.4,0.6-0.6l0.7-0.5
		l0.7-0.4l0.8-0.4c0.3-0.1,0.5-0.2,0.8-0.3l0.8-0.2l0.9-0.1l0.9,0l0.8,0.1l-0.3,0l0.9-0.1c0.3,0,0.6,0,0.9,0
		c0.6,0.1,1.1,0.2,1.7,0.4c0.5,0.2,1,0.5,1.5,0.9c0.2,0.2,0.4,0.4,0.6,0.6c0.2,0.2,0.4,0.4,0.5,0.6l0.5,0.7l0.4,0.7l0.3,0.8l0.2,0.8
		l0.1,0.8l0,0.8l-0.1,0.8L96.9,125z M96.7,125L96.7,125l0-0.8l0-0.7l-0.1-0.7l-0.2-0.7l-0.3-0.7l-0.3-0.6l-0.4-0.6l-0.5-0.5
		c-0.3-0.3-0.7-0.6-1.1-0.9c-0.4-0.2-0.8-0.5-1.2-0.6c-0.2-0.1-0.4-0.1-0.7-0.2c-0.2,0-0.4-0.1-0.7-0.1c-0.2,0-0.4,0-0.7,0l-0.7,0.1
		l-0.1,0l-0.2,0l-0.7-0.1l-0.7,0l-0.7,0.1L87,118l-0.7,0.2l-0.6,0.3l-0.6,0.3l-0.6,0.4l-0.5,0.5c-0.1,0.2-0.3,0.3-0.4,0.5
		c-0.3,0.4-0.5,0.8-0.7,1.2c-0.1,0.2-0.2,0.4-0.2,0.6c0,0.2-0.1,0.4-0.1,0.7c0,0.2,0,0.5,0,0.7l0.1,0.7l0,0.1l0,0.1l-0.1,0.7l0,0.7
		l0,0.7l0.1,0.7l0.2,0.7l0.3,0.7l0.3,0.6l0.4,0.6l0.5,0.5c0.2,0.2,0.4,0.3,0.5,0.5c0.4,0.3,0.8,0.5,1.2,0.7c0.2,0.1,0.4,0.2,0.7,0.2
		c0.2,0,0.5,0.1,0.7,0.1c0.2,0,0.5,0,0.7,0l0.7-0.1l0.1,0l0.1,0l0.7,0.1l0.7,0l0.7,0l0.7-0.1l0.7-0.2l0.7-0.3l0.6-0.4l0.6-0.4
		c0.2-0.2,0.4-0.3,0.6-0.5c0.2-0.2,0.3-0.4,0.5-0.6c0.3-0.4,0.5-0.8,0.7-1.3c0.1-0.2,0.2-0.5,0.2-0.7c0-0.2,0.1-0.5,0.1-0.7
		c0-0.2,0-0.5,0-0.8L96.7,125z"/>
</g>
<g>
	<path fill="#27348B" d="M114.8,140.7l-47,0.7l-46.6,0.7l-1.8,0l0-1.8l-0.8-61.9l-0.7-61.9l0-3.1l3.2-0.1c3.9-0.1,7.8-0.3,11.6-0.4
		c3.9-0.1,7.8-0.2,11.6-0.3c3.9-0.1,7.8-0.1,11.6-0.2c3.9,0,7.8-0.1,11.6-0.1l11.6-0.1c3.9,0,7.8,0,11.6,0l11.6,0l11.6,0.1l4.2,0
		l0,4.1L118.5,32l-0.3,15.5c-0.1,5.2-0.2,10.3-0.3,15.5l-0.4,15.5L117,93.9c-0.2,5.2-0.4,10.3-0.6,15.5c-0.2,5.2-0.5,10.3-0.7,15.5
		c-0.3,5.2-0.6,10.3-0.9,15.5L114.8,140.7z M114,139.9c-0.3-5-0.6-10-0.9-15.1c-0.2-5.2-0.5-10.3-0.7-15.5
		c-0.2-5.2-0.4-10.3-0.6-15.5l-0.5-15.5L111,62.9c-0.1-5.2-0.2-10.3-0.3-15.5L110.5,32l-0.1-15.5l4.1,4.1l-11.6,0.1l-11.6,0
		c-3.9,0-7.8,0-11.6,0l-11.6-0.1c-3.9,0-7.8-0.1-11.6-0.1c-3.9-0.1-7.8-0.1-11.6-0.2c-3.9-0.1-7.8-0.1-11.6-0.3
		c-3.9-0.1-7.8-0.2-11.6-0.4l3.2-3.2l-0.7,61.9l-0.8,61.9l-1.8-1.8l46.6,0.7L114,139.9z"/>
</g>
<g>
	<polygon fill-rule="evenodd" clip-rule="evenodd" fill="#FFFFFF" points="137.7,188.4 49.9,157.3 91.2,40.7 179,71.8 	"/>
	<path fill="#36A936" d="M137.9,188.9l-44.5-15L49.3,159l-1.7-0.6l0.6-1.7l20-58.6l20.1-58.5l1-2.9l3.1,1c3.7,1.2,7.4,2.3,11.1,3.5
		c3.7,1.2,7.4,2.4,11.1,3.6c3.7,1.2,7.4,2.5,11,3.7c3.7,1.3,7.4,2.5,11,3.8l11,3.8c3.7,1.3,7.3,2.6,11,3.9l11,3.9l10.9,4l3.9,1.4
		l-1.4,3.9l-5.3,14.5l-5.4,14.5c-1.8,4.8-3.6,9.7-5.5,14.5l-5.5,14.5l-5.6,14.4c-1.9,4.8-3.8,9.6-5.7,14.4
		c-1.9,4.8-3.9,9.6-5.8,14.3c-2,4.8-4,9.5-6,14.3L137.9,188.9z M137.4,187.9c1.4-4.8,2.8-9.7,4.2-14.5c1.5-4.9,3-9.9,4.5-14.8
		c1.5-4.9,3-9.9,4.6-14.8l4.7-14.7l4.8-14.7c1.6-4.9,3.2-9.8,4.9-14.7l4.9-14.7l5-14.6l2.5,5.3l-11-3.8l-11-3.9
		c-3.7-1.3-7.3-2.6-11-3.9l-11-4c-3.7-1.3-7.3-2.7-10.9-4c-3.6-1.3-7.3-2.7-10.9-4.1c-3.6-1.4-7.3-2.7-10.9-4.1
		c-3.6-1.4-7.2-2.8-10.9-4.3l4.1-1.9L72.9,99.8l-21.4,58.1l-1.1-2.3l43.7,16.2L137.4,187.9z"/>
</g>
<g>
	<path fill="#E94E1B" d="M129.4,164c0,0,0,0.2-0.1,0.5c0,0.2-0.1,0.4-0.2,0.6c-0.1,0.2-0.2,0.5-0.4,0.8c-0.3,0.6-0.9,1.3-1.7,1.8
		c-0.8,0.5-1.8,0.9-3,1.2c-1.2,0.2-2.4,0.3-3.8,0.2c-0.3,0-0.6,0-1-0.1c-0.3-0.1-0.6-0.1-1-0.2c-0.8-0.2-1.4-0.6-2.1-1.2
		c-0.6-0.6-1.1-1.2-1.4-2c-0.3-0.7-0.5-1.5-0.7-2.3c-0.2-1.6-0.2-3.2,0-4.8c0.1-0.5,0.1-0.7,0.3-1.2l0.2-0.7
		c0.1-0.2,0.2-0.4,0.3-0.6c0.5-0.8,1.1-1.5,1.8-1.9c1.5-1,3.2-1.3,4.7-1.3c0.8,0,1.5,0,2.2,0.1c0.4,0,0.7,0.1,1.1,0.2l0.2,0l0.1,0
		l0.2,0.1l0.5,0.1c1.6,0.5,2.7,1.6,3.2,2.8c0.6,1.2,0.7,2.3,0.8,3.3c0,1,0,1.8-0.1,2.5C129.5,163.2,129.4,164,129.4,164L129.4,164z
		 M129.2,164c0,0,0-0.2,0.1-0.5c0-0.4,0.1-0.9,0.1-1.5c0-0.7-0.1-1.5-0.3-2.4c-0.2-0.9-0.6-1.8-1.2-2.6c-0.3-0.4-0.7-0.8-1.1-1
		c-0.2-0.2-0.5-0.2-0.7-0.4c-0.2-0.1-0.5-0.2-0.7-0.2c-1.2-0.2-2.5-0.4-3.9-0.3c-1.3,0-2.7,0.2-3.8,0.8c-0.6,0.3-1,0.7-1.4,1.2
		l-0.2,0.4l-0.2,0.4c-0.1,0.2-0.2,0.8-0.3,1c-0.3,1.4-0.4,2.9-0.2,4.3c0.1,0.7,0.2,1.4,0.5,2c0.3,0.6,0.6,1.2,1,1.6
		c0.5,0.4,1,0.8,1.6,1c0.3,0.1,0.6,0.2,1,0.3c0.3,0.1,0.6,0.1,0.9,0.2c1.3,0.2,2.5,0.3,3.6,0.2c1.1-0.1,2.1-0.4,2.9-0.8
		c0.8-0.4,1.4-1.1,1.7-1.6c0.2-0.3,0.3-0.6,0.4-0.8c0.1-0.2,0.1-0.4,0.2-0.6C129.1,164.1,129.2,164,129.2,164L129.2,164z"/>
</g>
<g>
	<path fill="#B2B2B2" d="M96.7,150.3c0,0-0.1,0.3-0.2,0.8c-0.1,0.3-0.1,0.6-0.3,1c-0.2,0.4-0.3,0.8-0.6,1.3c-0.5,0.9-1.3,2-2.5,2.8
		c-1.2,0.9-2.8,1.5-4.6,1.9c-1.8,0.4-3.8,0.5-5.9,0.4c-0.3,0-0.5,0-0.8-0.1l-0.4,0l-0.2,0l-0.3,0l-0.8-0.1c-0.3,0-0.5-0.1-0.8-0.2
		l-0.9-0.3c-0.3-0.1-0.6-0.3-0.8-0.4c-0.6-0.3-1-0.7-1.6-1.1c-0.9-0.9-1.7-1.9-2.2-3.1c-0.5-1.2-0.9-2.4-1.1-3.6
		c-0.4-2.5-0.3-5,0-7.4c0.2-0.8,0.1-1.1,0.4-1.9l0.4-1.1c0.2-0.3,0.3-0.6,0.5-1c0.7-1.2,1.7-2.4,2.9-3.1c2.4-1.6,5-2.1,7.4-2.2
		c1.2,0,2.4,0,3.5,0.2c0.6,0.1,1.1,0.2,1.7,0.3l0.3,0.1l0.2,0.1l0.4,0.1l0.7,0.2c0.6,0.2,1.3,0.5,1.8,0.8c0.5,0.4,1,0.6,1.4,1.1
		c0.2,0.2,0.4,0.4,0.6,0.6c0.2,0.2,0.3,0.5,0.5,0.7c0.4,0.4,0.6,0.9,0.8,1.4c0.9,1.9,1,3.7,1.1,5.2c0,1.5-0.1,2.8-0.2,3.8
		C96.9,149.2,96.7,150.3,96.7,150.3L96.7,150.3z M96.3,150.3c0,0,0-0.3,0.1-0.8c0.1-0.5,0.1-1.3,0.1-2.4c0-1-0.2-2.2-0.5-3.6
		c-0.4-1.3-1-2.8-1.9-3.9c-0.3-0.3-0.5-0.6-0.8-0.8l-0.4-0.4l-0.5-0.3c-0.3-0.2-0.7-0.3-1-0.5c-0.3-0.1-0.6-0.2-1-0.3
		c-0.2,0-0.5-0.1-0.8-0.1l-0.4-0.1l-0.2,0c-0.1,0,0.1,0,0.1,0l0,0l0,0l-0.1,0c-0.5-0.1-1-0.1-1.5-0.1c-1-0.1-2-0.1-3-0.1
		c-2,0-4,0.3-5.6,1.2c-0.8,0.4-1.4,1-2,1.8l-0.4,0.6c-0.1,0.2-0.2,0.4-0.3,0.6c-0.2,0.3-0.3,1.2-0.5,1.5c-0.4,2.2-0.6,4.4-0.4,6.6
		c0.1,1.1,0.3,2.1,0.7,3c0.4,0.9,0.9,1.7,1.5,2.4c0.7,0.6,1.5,1.2,2.3,1.5c0.2,0.1,0.4,0.2,0.7,0.2l0.8,0.2c0.1,0,0.5,0.1,0.7,0.1
		c0.2,0,0.5,0.1,0.7,0.1c1.9,0.3,3.8,0.5,5.5,0.3c1.7-0.1,3.2-0.5,4.5-1.2c0.6-0.3,1.1-0.8,1.6-1.2c0.4-0.5,0.8-0.9,1-1.3
		c0.3-0.4,0.4-0.8,0.6-1.2c0.2-0.4,0.2-0.7,0.3-1C96.2,150.5,96.3,150.2,96.3,150.3L96.3,150.3z"/>
</g>
<g>
	<path fill="#FCD138" d="M122.2,153.5L122.2,153.5c0,0-0.1,0.4-0.3,1.2c-0.1,0.4-0.2,0.9-0.5,1.5c-0.2,0.6-0.5,1.3-0.9,1.9
		c-0.7,1.4-2,2.9-3.8,4.2c-1.8,1.3-4.2,2.3-6.9,2.8c-2.7,0.6-5.7,0.7-8.8,0.5c-0.4,0-0.8-0.1-1.2-0.1l-0.6-0.1l-0.3,0l-0.4-0.1
		c-0.4-0.1-0.8-0.1-1.2-0.2l-0.6-0.1c-0.2,0-0.4-0.1-0.7-0.2c-0.4-0.2-0.9-0.3-1.4-0.5c-0.4-0.2-0.8-0.4-1.3-0.6
		c-0.9-0.4-1.6-1-2.3-1.6c-1.4-1.3-2.6-2.9-3.4-4.7c-0.8-1.8-1.3-3.6-1.6-5.5c-0.3-1.9-0.4-3.7-0.4-5.6c0-0.9,0-1.9,0.1-2.8
		c0-0.5,0.1-0.9,0.1-1.4l0.1-0.7l0-0.3l0-0.2l0-0.1l0,0c0-0.1,0,0.1,0-0.2l0.2-1.3l0.1-0.7c0-0.2,0.2-0.5,0.2-0.8
		c0.2-0.5,0.4-1.1,0.6-1.6c0.2-0.5,0.5-1,0.8-1.4c1.1-1.9,2.6-3.6,4.4-4.7c3.6-2.4,7.6-3.1,11.2-3.2c1.8,0,3.6,0,5.3,0.2
		c0.9,0.1,1.7,0.2,2.5,0.4l0.2,0l0.3,0.1l0.3,0.1l0.6,0.2c0.4,0.1,0.7,0.2,1.1,0.3c0.9,0.4,1.9,0.7,2.7,1.2c0.8,0.5,1.6,1,2.2,1.6
		c0.3,0.3,0.6,0.6,0.9,0.9c0.3,0.3,0.5,0.7,0.8,1c0.5,0.7,0.9,1.4,1.2,2.1c1.3,2.8,1.5,5.5,1.6,7.8c0,2.3-0.2,4.2-0.3,5.8
		c-0.2,1.6-0.4,2.8-0.5,3.6C122.3,153,122.2,153.5,122.2,153.5L122.2,153.5z M121.6,153.4c0,0,0-0.4,0.1-1.3c0.1-0.8,0.2-2,0.1-3.6
		c0-1.5-0.2-3.4-0.8-5.4c-0.5-2-1.4-4.2-2.9-5.9c-0.4-0.4-0.7-0.9-1.2-1.2c-0.2-0.2-0.4-0.4-0.6-0.5c-0.2-0.1-0.5-0.3-0.7-0.4
		c-0.4-0.3-1-0.5-1.5-0.7c-0.5-0.2-1-0.3-1.5-0.5c-0.4-0.1-0.8-0.1-1.1-0.2l-0.6-0.1l-0.3-0.1c0.1,0-0.2,0,0.2,0l0,0l-0.1,0l-0.1,0
		c-0.7-0.1-1.5-0.2-2.2-0.2c-0.7-0.1-1.5-0.1-2.2-0.1c-0.7,0-1.5,0-2.2,0c-3,0.1-6,0.5-8.4,1.8c-1.2,0.6-2.2,1.6-3,2.6l-0.6,0.9
		c-0.1,0.3-0.2,0.6-0.4,0.9c-0.1,0.2-0.1,0.3-0.2,0.5l-0.2,0.6l-0.3,1.3l-0.2,1.1c-0.1,0.4-0.1,0.8-0.2,1.2
		c-0.1,0.8-0.2,1.7-0.2,2.5c-0.1,1.7-0.1,3.3,0.1,4.9c0.2,1.6,0.5,3.1,1,4.5c0.6,1.4,1.3,2.6,2.3,3.6c0.5,0.4,1,1,1.6,1.3
		c0.3,0.2,0.6,0.4,0.9,0.5l0.9,0.4c0.2,0.1,0.3,0.1,0.5,0.2l0.6,0.2c0.4,0.1,0.8,0.2,1.1,0.3l0.1,0l0.1,0l0,0c0,0-0.2,0-0.1,0
		l0.3,0.1l0.6,0.1c0.4,0.1,0.7,0.1,1.1,0.2c2.9,0.4,5.7,0.7,8.3,0.5c2.6-0.2,4.9-0.8,6.7-1.8c0.9-0.5,1.7-1.1,2.3-1.8
		c0.3-0.3,0.6-0.7,0.8-1c0.3-0.3,0.4-0.7,0.6-1c0.4-0.6,0.6-1.3,0.8-1.8c0.2-0.5,0.3-1,0.4-1.4C121.5,153.8,121.6,153.4,121.6,153.4
		L121.6,153.4z"/>
</g>
<path fill="#36A936" d="M118.4,67.8c-0.9,4.2,1.7,8.3,5.9,9.3c4.2,0.9,8.3-1.7,9.3-5.9c0.9-4.2-1.7-8.3-5.9-9.3
	C123.5,61,119.3,63.6,118.4,67.8z"/>
<path fill="#36A936" d="M151.4,72.2c0,0-18.9,18.7-32.8,11.7c-8.4-4.2-8.6-15.5-8.6-15.5s-4.1,7.5-5.3,19.4
	c-1.6,15.7,10.5,37.3,10.5,37.3s-4.5-20.1,0.5-20.3c5.2-0.1,3.3,21.1,3.3,21.1s4.2-16.2,10-25.8C138.1,85.1,151.4,72.2,151.4,72.2z"
	/>
<path fill="#36A936" d="M118.4,67.8c-0.9,4.2,1.7,8.3,5.9,9.3c4.2,0.9,8.3-1.7,9.3-5.9c0.9-4.2-1.7-8.3-5.9-9.3
	C123.5,61,119.3,63.6,118.4,67.8z"/>
<path fill="#27348B" d="M65.9,40c0,0,8.7,5.5,8,16.7c-0.6,10-9.3,15.5-9.3,15.5s4.4-8.9,4.7-16.1C69.6,47.9,65.9,40,65.9,40z"/>
</svg>
