<?xml version="1.0" encoding="utf-8"?>
<!-- Generator: Adobe Illustrator 18.0.0, SVG Export Plug-In . SVG Version: 6.00 Build 0)  -->
<!DOCTYPE svg PUBLIC "-//W3C//DTD SVG 1.1//EN" "http://www.w3.org/Graphics/SVG/1.1/DTD/svg11.dtd">
<svg version="1.1" id="Слой_6" xmlns="http://www.w3.org/2000/svg" xmlns:xlink="http://www.w3.org/1999/xlink" x="0px" y="0px"
	 viewBox="0 0 1039.3 696.9" enable-background="new 0 0 1039.3 696.9" xml:space="preserve">
<g>
	<rect x="7.7" y="8.7" fill="#27348B" width="1023.1" height="682"/>
	<g>
		<path fill="#FFFFFF" d="M1031.4,691.3L7.7,693.8l-3.1,0l0-3.1L3.3,8.7l0-4.4l4.4,0l127.9-0.7l127.9-0.4L391.4,3l127.9-0.1l127.9,0
			L775,3.1l127.9,0.3l127.9,0.4l5,0l0,5l-0.7,170.5l-0.9,170.5l-1.2,170.5l-0.7,85.2L1031.4,691.3z M1030.3,690.2l-0.9-84.7
			l-0.7-85.2l-1.2-170.5l-0.9-170.5l-0.7-170.5l5,5l-127.9,0.4L775,14.4l-127.9,0.2l-127.9,0l-127.9-0.1l-127.9-0.2l-127.9-0.4
			L7.7,13.1l4.4-4.4l-1.3,682l-3.1-3.1L1030.3,690.2z"/>
	</g>
</g>
<rect x="7.7" y="8.7" fill="none" width="1020.3" height="678.7"/>
<text transform="matrix(1 0 0 1 161.2711 323.1983)"><tspan x="0" y="0" fill="#FFFFFF" font-family="'Impact'" font-size="150">ОСЕНЬ 2015</tspan><tspan x="356.6" y="60" fill="#FFFFFF" font-family="'Arsenal-Regular'" font-size="50"> </tspan><tspan x="91.8" y="136.8" fill="#FFFFFF" font-family="'Arsenal-Bold'" font-size="32">церемония вручения первой награды</tspan><tspan x="0.5" y="175.2" fill="#FFFFFF" font-family="'Arsenal-Bold'" font-size="32">за достижения в сфере детско-юношеского спорта </tspan><tspan x="109.5" y="213.6" fill="#FFFFFF" font-family="'Arsenal-Bold'" font-size="32">на территории Тюменской области</tspan></text>
</svg>
