<?xml version="1.0" encoding="utf-8"?>
<!-- Generator: Adobe Illustrator 18.0.0, SVG Export Plug-In . SVG Version: 6.00 Build 0)  -->
<!DOCTYPE svg PUBLIC "-//W3C//DTD SVG 1.1//EN" "http://www.w3.org/Graphics/SVG/1.1/DTD/svg11.dtd">
<svg version="1.1" id="Слой_6" xmlns="http://www.w3.org/2000/svg" xmlns:xlink="http://www.w3.org/1999/xlink" x="0px" y="0px"
	 viewBox="0 0 27.1 27.1" enable-background="new 0 0 27.1 27.1" xml:space="preserve">
<g>
	<g>
		<path fill="#FFFFFF" d="M25.3,25.8c-1,0.1-2,0.2-3,0.2c-1,0.1-2,0.1-3,0.2c-2,0.1-4.1,0.2-6.1,0.2c-2,0.1-4.1,0.1-6.1,0.1
			c-2,0-4.1,0-6.1-0.1l-0.9,0l0-0.8c0.1-2,0.2-4.1,0.3-6.1c0.1-2,0.2-4.1,0.2-6.1c0-2,0-4.1,0-6.1c0-2-0.1-4.1-0.2-6.1l0-0.5l0.6,0
			c2-0.1,4.1-0.2,6.1-0.2c2-0.1,4.1-0.1,6.1-0.1l6.1-0.1c2,0,4.1,0,6.1,0l1.1,0l0,1.1c0,2,0,4.1-0.1,6.1c0,2-0.1,4.1-0.2,6.1
			c-0.1,2-0.2,4.1-0.3,6.1c0,1-0.1,2-0.2,3c-0.1,1-0.1,2-0.2,3L25.3,25.8L25.3,25.8z M25.2,25.6c-0.1-1-0.2-2-0.2-2.9
			c-0.1-1-0.1-2-0.2-3c-0.1-2-0.2-4.1-0.3-6.1c-0.1-2-0.1-4.1-0.2-6.1c-0.1-2-0.1-4.1-0.1-6.1l1.1,1.1c-2,0-4.1,0-6.1,0l-6.1-0.1
			c-2,0-4.1-0.1-6.1-0.1C5.1,2.1,3,2,1,1.9l0.5-0.5c-0.1,2-0.2,4.1-0.2,6.1c0,2,0,4.1,0,6.1c0,2,0.1,4.1,0.2,6.1
			c0.1,2,0.2,4.1,0.3,6.1L1,24.9c2-0.1,4.1-0.1,6.1-0.1c2,0,4.1,0,6.1,0.1c2,0.1,4.1,0.1,6.1,0.2c1,0,2,0.1,3,0.2
			C23.3,25.4,24.2,25.5,25.2,25.6z"/>
	</g>
</g>
<g>
	<g>
		<path fill="#FFFFFF" d="M15.8,12.6H14v6h-1.9v-6h-0.7v-0.9l0.7-0.2v-1.1c0-1.6,0.6-2.7,2.3-2.7c0.8,0,1.6,0.5,1.6,0.5l-0.2,0.8
			c0,0-0.6-0.3-1-0.3c-0.5,0-0.7,0.3-0.7,2v0.8h1.8V12.6z"/>
		<g>
			<path fill="#FFFFFF" d="M15.8,12.7c-0.6,0.1-1.2,0.1-1.8,0.2l0.2-0.2c0.1,1,0.1,2,0.2,3c0,1,0.1,2,0,3l0,0.4l-0.4,0
				c-0.6,0-1.3-0.1-1.9-0.1l-0.3,0l0-0.3c0.1-1,0.2-2,0.2-3c0-1,0-2-0.1-3l0.2,0.2l-0.7,0l-0.3,0l0-0.3l-0.1-0.9l0-0.2l0.3-0.1
				l0.7-0.2l-0.3,0.4l0-0.8l0-0.4c0-0.1,0-0.3,0-0.5c0.1-0.6,0.2-1.3,0.8-1.8c0.5-0.5,1.3-0.7,1.9-0.7c0.2,0,0.4,0,0.5,0
				c0.2,0,0.3,0.1,0.5,0.1c0.3,0.1,0.6,0.2,0.9,0.4L16.6,8l-0.1,0.4l-0.3,0.8L16,9.8l-0.5-0.3c-0.2-0.1-0.6-0.3-0.8-0.3
				c0,0-0.1,0-0.1,0l0,0c0,0,0,0,0,0c0,0-0.1,0.1-0.1,0.3c-0.1,0.6-0.1,1.3-0.2,2L14,11.2c0.6,0,1.2,0.1,1.8,0.1l0.2,0l0,0.1
				C15.9,11.9,15.9,12.2,15.8,12.7L15.8,12.7L15.8,12.7z M15.7,12.6c0-0.3-0.1-0.7-0.1-1l0.2,0.2c-0.6,0.1-1.2,0.1-1.8,0.1l-0.3,0
				l0-0.3c0-0.7-0.1-1.4,0-2.2c0-0.2,0.1-0.4,0.2-0.7c0.1-0.1,0.3-0.3,0.4-0.3c0.1,0,0.2,0,0.2-0.1c0.1,0,0.1,0,0.2,0
				c0.5,0,0.8,0.2,1.2,0.4l-0.7,0.3l0.2-0.8l0.2,0.6c-0.2-0.1-0.4-0.2-0.7-0.3c-0.1,0-0.2-0.1-0.3-0.1c-0.1,0-0.2,0-0.3,0
				c-0.5,0-0.9,0.1-1.2,0.4c-0.3,0.3-0.5,0.7-0.5,1.2c0,0.1,0,0.2,0,0.4l0,0.4l0,0.8l0,0.3l-0.3,0.1l-0.7,0.2l0.2-0.3l-0.1,0.9
				l-0.3-0.3l0.7,0l0.3,0l0,0.2c-0.1,1-0.1,2-0.1,3c0,1,0.1,2,0.2,3l-0.3-0.3c0.6,0,1.3-0.1,1.9-0.1l-0.4,0.4c0-1,0-2,0-3
				c0-1,0.1-2,0.2-3l0-0.3l0.2,0C14.6,12.4,15.2,12.5,15.7,12.6z"/>
		</g>
	</g>
</g>
</svg>
