<?xml version="1.0" encoding="utf-8"?>
<!-- Generator: Adobe Illustrator 18.0.0, SVG Export Plug-In . SVG Version: 6.00 Build 0)  -->
<!DOCTYPE svg PUBLIC "-//W3C//DTD SVG 1.1//EN" "http://www.w3.org/Graphics/SVG/1.1/DTD/svg11.dtd">
<svg version="1.1" id="Слой_6" xmlns="http://www.w3.org/2000/svg" xmlns:xlink="http://www.w3.org/1999/xlink" x="0px" y="0px"
	 viewBox="30 10 30 80" enable-background="new 0 0 85.5 109.1" xml:space="preserve">
<g>
	<path fill="#27348B" d="M45.9,26.3c0,0,7.1,4.5,6.5,13.6c-0.5,8.1-7.6,12.7-7.6,12.7s3.6-7.2,3.8-13.2
		C48.9,32.8,45.9,26.3,45.9,26.3z"/>
	<path fill="#27348B" d="M45.1,46c0,0-3.9-20.1-9-16.1c-4.8,3.7,3.6,23.3,3.6,23.3s-8.1-7.7-9-18.1c-1.2-14.7,8-20.8,8-20.8
		s-1,6.8,4.5,15.2C48.4,37.6,45.1,46,45.1,46z"/>
	<path fill="#27348B" d="M46.5,65.4L31.1,53.6c0,0,3,9.1,4.5,13.6c6.6,19.4,7.9,18.4,14.1,28.7L36.9,61.8L46.5,65.4z"/>
</g>
</svg>
