<?xml version="1.0" encoding="utf-8"?>
<!-- Generator: Adobe Illustrator 18.0.0, SVG Export Plug-In . SVG Version: 6.00 Build 0)  -->
<!DOCTYPE svg PUBLIC "-//W3C//DTD SVG 1.1//EN" "http://www.w3.org/Graphics/SVG/1.1/DTD/svg11.dtd">
<svg version="1.1" id="Слой_6" xmlns="http://www.w3.org/2000/svg" xmlns:xlink="http://www.w3.org/1999/xlink" x="0px" y="0px"
	 viewBox="0 0 85.5 109.1" enable-background="new 0 0 85.5 109.1" xml:space="preserve">
<g>
	<path fill="#27348B" d="M45.9,26.3c0,0,7.1,4.5,6.5,13.6c-0.5,8.1-7.6,12.7-7.6,12.7s3.6-7.2,3.8-13.2
		C48.9,32.8,45.9,26.3,45.9,26.3z"/>
	<path fill="#27348B" d="M45.1,46c0,0-3.9-20.1-9-16.1c-4.8,3.7,3.6,23.3,3.6,23.3s-8.1-7.7-9-18.1c-1.2-14.7,8-20.8,8-20.8
		s-1,6.8,4.5,15.2C48.4,37.6,45.1,46,45.1,46z"/>
	<path fill="#27348B" d="M46.5,65.4L31.1,53.6c0,0,3,9.1,4.5,13.6c6.6,19.4,7.9,18.4,14.1,28.7L36.9,61.8L46.5,65.4z"/>
</g>
<g>
	<path fill="#27348B" d="M80.9,106.6l-38.4,0.7L4.4,108l-1.8,0l0-1.8L1.9,55.7L1.5,30.4L1.2,5.2l0-3.1L4.4,2
		c3.2-0.1,6.3-0.3,9.5-0.4c3.2-0.1,6.3-0.2,9.5-0.3c3.2-0.1,6.3-0.1,9.5-0.2c3.2,0,6.3-0.1,9.5-0.1L52,0.9c3.2,0,6.3,0,9.5,0l9.5,0
		L80.5,1l4.2,0l0,4.1l-0.1,12.6l-0.3,12.6c-0.1,4.2-0.2,8.4-0.3,12.6l-0.4,12.6l-0.5,12.6c-0.2,4.2-0.4,8.4-0.6,12.6
		c-0.2,4.2-0.5,8.4-0.7,12.6c-0.3,4.2-0.6,8.4-0.9,12.6L80.9,106.6z M80.1,105.8c-0.3-4.1-0.6-8.2-0.9-12.2
		c-0.2-4.2-0.5-8.4-0.7-12.6c-0.2-4.2-0.4-8.4-0.6-12.6l-0.5-12.6l-0.4-12.6c-0.1-4.2-0.2-8.4-0.3-12.6l-0.3-12.6L76.4,5.2l4.1,4.1
		L71,9.4l-9.5,0c-3.2,0-6.3,0-9.5,0l-9.5-0.1c-3.2,0-6.3-0.1-9.5-0.1c-3.2-0.1-6.3-0.1-9.5-0.2c-3.2-0.1-6.3-0.1-9.5-0.3
		c-3.2-0.1-6.3-0.2-9.5-0.4l3.2-3.2L7.3,30.4L6.9,55.7l-0.8,50.5l-1.8-1.8l38.1,0.7L80.1,105.8z"/>
</g>
</svg>
