<?xml version="1.0" encoding="utf-8"?>
<!-- Generator: Adobe Illustrator 18.0.0, SVG Export Plug-In . SVG Version: 6.00 Build 0)  -->
<!DOCTYPE svg PUBLIC "-//W3C//DTD SVG 1.1//EN" "http://www.w3.org/Graphics/SVG/1.1/DTD/svg11.dtd">
<svg version="1.1" xmlns="http://www.w3.org/2000/svg" xmlns:xlink="http://www.w3.org/1999/xlink" x="0px" y="0px"
	 viewBox="0 0 198.4 198.4" xml:space="preserve">
<g id="Слой_5">
	<g>
		<path fill="#27348B" d="M101.3,52.4c0,0,11.5,7.2,10.6,22.2c-0.8,13.2-12.3,20.6-12.3,20.6s5.8-11.7,6.2-21.4
			C106.2,62.9,101.3,52.4,101.3,52.4z"/>
		<path fill="#27348B" d="M100,84.3c0,0-6.4-32.6-14.6-26.2c-7.7,6.1,5.9,37.9,5.9,37.9S78,83.6,76.6,66.7
			c-2-23.9,13.1-33.8,13.1-33.8s-1.6,11,7.3,24.7C105.5,70.8,100,84.3,100,84.3z"/>
		<path fill="#27348B" d="M102.4,115.9l-25-19.2c0,0,4.9,14.7,7.4,22c10.8,31.5,12.9,29.8,22.9,46.7L86.8,110L102.4,115.9z"/>
	</g>
	<g>
		<path fill="#27348B" d="M158,182.6l-124,1.4l-1.8,0l0-1.8l-0.4-41l-0.3-41L30.8,18l0-3.1l3.2-0.1c5.2-0.1,10.3-0.3,15.5-0.4
			l15.5-0.3C70,14.1,75.2,14,80.3,14l15.5-0.1l15.5-0.1l15.5,0l15.5,0l15.5,0.1l4.2,0l0,4.1l-0.1,20.5l-0.3,20.5
			c-0.1,6.8-0.2,13.7-0.3,20.5l-0.4,20.5l-0.5,20.5l-0.6,20.5l-0.7,20.5c-0.3,6.8-0.6,13.7-0.9,20.5L158,182.6z M157.2,181.8
			c-0.3-6.7-0.6-13.4-0.9-20.1l-0.7-20.5l-0.6-20.5l-0.5-20.5l-0.4-20.5c-0.1-6.8-0.2-13.7-0.3-20.5l-0.3-20.5L153.5,18l4.1,4.1
			l-15.5,0.1l-15.5,0l-15.5,0l-15.5-0.1l-15.5-0.1C75.2,22,70,22,64.9,21.9l-15.5-0.3c-5.2-0.1-10.3-0.2-15.5-0.4l3.2-3.2l-0.7,82.1
			l-0.3,41l-0.4,41l-1.8-1.8L157.2,181.8z"/>
	</g>
</g>
</svg>
