<?xml version="1.0" encoding="utf-8"?>
<!-- Generator: Adobe Illustrator 18.0.0, SVG Export Plug-In . SVG Version: 6.00 Build 0)  -->
<!DOCTYPE svg PUBLIC "-//W3C//DTD SVG 1.1//EN" "http://www.w3.org/Graphics/SVG/1.1/DTD/svg11.dtd">
<svg version="1.1" id="Слой_6" xmlns="http://www.w3.org/2000/svg" xmlns:xlink="http://www.w3.org/1999/xlink" x="0px" y="0px"
	 viewBox="0 0 34.6 27.1" enable-background="new 0 0 34.6 27.1" xml:space="preserve">
<g>
	<path fill="#FFFFFF" d="M33.3,25.8c-1.3,0.1-2.7,0.2-4,0.3c-1.3,0.1-2.7,0.2-4,0.2c-2.7,0.1-5.4,0.2-8.1,0.2l-4,0.1
		c-1.3,0-2.7,0-4,0c-2.7,0-5.4-0.1-8.1-0.2l-0.7,0l0-0.7l0.2-6.1c0.1-2,0.1-4.1,0.1-6.1c0-2,0-4.1-0.1-6.1c0-2-0.1-4.1-0.2-6.1
		l0-0.5l0.6,0c2.7-0.1,5.4-0.2,8.1-0.3c2.7-0.1,5.4-0.1,8.1-0.2c2.7,0,5.4-0.1,8.1-0.1c2.7,0,5.4,0,8.1,0l1,0l0,1
		c-0.1,4.1-0.2,8.1-0.3,12.2l-0.3,6.1c-0.1,2-0.2,4.1-0.4,6.1L33.3,25.8L33.3,25.8z M33.2,25.6c-0.1-2-0.2-4-0.4-6l-0.3-6.1
		c-0.1-4.1-0.2-8.1-0.3-12.2l1,1c-2.7,0-5.4,0.1-8.1,0c-2.7,0-5.4-0.1-8.1-0.1c-2.7,0-5.4-0.1-8.1-0.2C6.4,2.1,3.7,2,1,1.9l0.5-0.5
		c-0.1,2-0.1,4.1-0.2,6.1c0,2-0.1,4.1-0.1,6.1c0,2,0,4.1,0.1,6.1l0.2,6.1L1,25c2.7-0.1,5.4-0.2,8.1-0.2c1.3,0,2.7,0,4,0l4,0.1
		c2.7,0.1,5.4,0.1,8.1,0.2c1.3,0.1,2.7,0.1,4,0.2C30.6,25.4,31.9,25.5,33.2,25.6z"/>
</g>
<g>
	<g>
		<path fill-rule="evenodd" clip-rule="evenodd" fill="#FFFFFF" d="M19,20c0,0.5,0.1,1.8-0.2,2.2c-0.1,0.2-0.4,0.3-0.5,0.1
			C17.9,21.8,18.6,20.2,19,20L19,20z M18.6,16.7c0.3-0.1,0.4,0.2,0.5,0.4c0,0.3-0.1,0.5-0.1,0.8c-0.1,1.2-0.8,1.9-0.9,0.9
			C17.9,18.2,18,16.9,18.6,16.7L18.6,16.7z M15.8,16.7c0.4-0.1,0.5,0.5,0.5,0.7c0,0.2-0.1-0.1-0.1,0.6c0,0.3-0.1,0.9-0.2,1.2
			c-0.1,0.2-0.5,0.6-0.7-0.2C15.2,18.3,15.2,16.9,15.8,16.7L15.8,16.7z M13.9,14.9c-0.1-0.1-0.4-0.2-0.6-0.2c-0.1,0.3,0,0.7-0.1,1.1
			c0,0.3-0.1,0.2-0.4,0.2c-0.2,0-0.4,0-0.5,0.1c0,0.3,0.6,0.3,0.8,0.4c0,0.9-0.2,1.9,0.1,2.7c0.1,0.3,0.4,0.7,0.9,0.5
			c0.3-0.1,0.5-0.6,0.6-0.9c0.2,0.8,0.2,0.8,0.8,0.9c0.5,0.1,0.7-0.5,0.8-0.9c0.1,0.2,0,0.2,0.2,0.4c0.1,0.1,0.2,0.2,0.3,0.2
			c0.4,0.1,0.5-0.2,0.7-0.4l0,0c0.1,0.6,0.4,0.6,0.8,0.6c0.5,0.1,0.5-0.4,0.7-0.6c0,1,0,0.5-0.3,0.9c-0.1,0.1-0.2,0.2-0.3,0.3
			c-0.4,0.6-1.1,2-0.3,2.4c0.2,0.1,0.8,0.2,1,0.1c0.2-0.1,0.3-0.4,0.4-0.7c0.1-0.7,0-1.5,0.1-2.2c0.2,0,0.3,0.1,0.4-0.1
			c0-0.2-0.2-0.2-0.4-0.2c0-0.3,0-0.7,0-1c0-0.7,0.1-0.6,0.1-0.8c-0.1-0.1-0.1,0-0.2-0.1c-0.1,0-0.1,0-0.1-0.1
			c-0.1-0.2,0.1-0.6-0.1-0.9c-0.2-0.3-0.4-0.2-0.8-0.4c-0.7-0.3-0.9,0.4-1.1,0.9c-0.2,0.9,0,1.5-0.3,1.9c-0.3,0.3-0.4-0.2-0.4-0.5
			c0-0.9,0.3-0.9-0.1-1.1c-0.1-0.4,0.1-0.8-0.2-1.1c-0.1-0.1-0.3-0.1-0.4-0.2c-0.2-0.1-0.3-0.1-0.6-0.1c-0.7,0.1-0.8,1.2-0.8,1.8
			c0,0.2,0-0.1-0.2,0.5c-0.2,0.9-0.6,1.2-0.7,0.6c-0.1-0.3,0-2.2,0-2.5c0.1-0.1,0.7-0.1,0.9-0.1c0.2,0,0.2,0.1,0.2,0
			C15.2,16,14,16,13.8,16L13.9,14.9z"/>
		<path fill-rule="evenodd" clip-rule="evenodd" fill="#FFFFFF" d="M23.2,16.7c0.4-0.1,0.5,0.4,0.5,0.6c0,0.2,0,0.1-0.1,0.2
			c-0.2,0.2,0,1.5-0.5,1.8c-0.5,0.3-0.5-0.9-0.5-1.3C22.6,17.6,22.7,16.9,23.2,16.7L23.2,16.7z M20,16.5c0,0.4,0,0.8,0,1.2
			c0,0.2,0,0.4,0,0.6c0,0.1-0.1,0.4-0.1,0.5c0.3,0.1,0.3-0.4,0.4-0.6c0-0.3,0.1-0.7,0.1-0.9c0,0,0.1,0,0.2,0c0.3,0,0.1,0.5,0.1,1.1
			c0,0.5,0.2,1.6,0.9,1.3c0.3-0.1,0.4-0.4,0.5-0.6c0.1,0.2,0.1,0.6,0.5,0.7c0.4,0.1,0.7,0.2,1-0.5c0-0.1,0-0.1,0.1-0.1
			c0,0,0-0.1,0-0.1c0,0,0,0,0-0.1c0,0.3,0.2,0.6,0.6,0.6c0.3,0,0.5-0.3,0.7-0.5c0,0.2,0,0.5,0.2,0.6c0.1,0.1,0.5,0.1,0.6,0
			c0.1-0.1,0.1-0.4,0.1-0.5c0-0.2,0-0.3,0.1-0.5c0-0.2,0.1-0.8,0.3-0.8c0.1,0.6-0.1,1.5,0.2,1.6c0.1,0,0.2,0,0.3,0
			c0.3,0,0.2-0.1,0.3-0.6c0.1-0.3,0.3-1.1,0.5-1.3c0,0.5-0.1,0.8,0,1.3c0.2,0.8,0.9,1.1,1.3,0.3c0.1-0.1,0.4-0.8,0.2-1
			c-0.2-0.2-0.2,0.6-0.4,0.9c-0.1,0.1-0.3,0.3-0.4,0.1C28,19,28,18.7,28,18.5c0-1.4,0.4-1.3,0-1.6c-0.2-0.1-0.3-0.1-0.6-0.1
			c-0.1,0.1-0.6,1.6-0.7,1.7c0,0,0,0,0,0c0-0.3,0-0.7,0-1.1c0-0.2,0-0.3-0.1-0.4C26.5,17,26.3,17,26.2,17c-0.2,0-0.3,0.4-0.4,0.6
			c0,0.1-0.2,0.7-0.2,0.8l0-1.8c-0.1-0.1-0.4-0.2-0.6-0.1c0,0.1,0,1.1,0,1.3c0,0.3,0,0.4-0.1,0.6c-0.1,0.1-0.1,0.3-0.1,0.5
			c-0.2,0.4-0.5,0.4-0.5-0.1c0-0.2,0-0.4,0-0.6c0-0.2,0.1-0.4,0.1-0.5c-0.1-0.1-0.1-0.1-0.2-0.1c-0.1-0.3,0-0.6-0.1-0.8
			c-0.1-0.3-0.2-0.2-0.5-0.4c-0.2-0.1-0.4-0.2-0.7-0.1c-0.2,0.1-0.3,0.3-0.4,0.5c-0.1,0.2-0.2,0.5-0.2,0.7c0,0.2,0,0.6-0.1,0.8
			c-0.1,0.3-0.2,1.3-0.6,1.2c-0.2-0.2-0.2-0.8-0.2-1.1c0-0.2,0-0.4,0.1-0.6c0-0.2,0.1-0.4,0.1-0.5c-0.2-0.3-0.7-0.1-0.9-0.3
			c0-0.2,0-0.3,0-0.5C20.3,16.3,20.1,16.3,20,16.5z"/>
		<path fill-rule="evenodd" clip-rule="evenodd" fill="#FFFFFF" d="M11.2,18.9c0.1-0.3,0.1-0.4,0.2-0.7c0.2,0.2,0.8,0.6,0.9,0.8
			c0.1,0.3-0.3,0.3-0.5,0.2c-0.1-0.1-0.2-0.1-0.3-0.2C11.3,18.9,11.3,18.9,11.2,18.9L11.2,18.9z M9.5,19.4c0.1-0.3,0.2-1.4,0.5-1.6
			c0,0.6-0.2,1.6,0.6,1.5c0.2,0,0.4-0.1,0.5-0.2c0.1,0.2,0.2,0.2,0.4,0.3c0.5,0.2,1.6,0.1,1.5-0.5c-0.1-0.5-1.5-0.9-1-1.6
			c0.1-0.1,0.3-0.2,0.5-0.1c0,0,0.2,0.3,0.4,0c0.1-0.1,0.2-0.4,0.1-0.5c-0.2-0.3-1.2,0-1.6,0.4c-0.3,0.3-0.2,0.7,0,1
			c-0.3,0.1-0.1,0.1-0.3,0.5c-0.1,0.2-0.2,0.4-0.4,0.4c-0.2-0.3-0.1-1-0.1-1.5c0-0.3-0.1-0.6-0.4-0.5c-0.3,0.1-0.5,0.9-0.7,1.2
			c0-0.3,0-1.4,0-1.5c0-0.2-0.5-0.3-0.5-0.2c0,0.1-0.1,2-0.1,2.2c0,0.2,0,0.5,0.1,0.7C9,19.5,9.3,19.5,9.5,19.4z"/>
		<path fill-rule="evenodd" clip-rule="evenodd" fill="#FFFFFF" d="M7.6,17.6c-0.5,0.1-0.7-0.3-0.7-0.8c-0.2-1.3,0.5-1.8,0.7-1.4
			c0.1,0.1,0,0.5,0,0.7C7.6,16.5,7.6,17.1,7.6,17.6L7.6,17.6z M7.6,18.1c0,0.4-0.2,0.9-0.4,1c-0.3,0.2-0.7,0.4-1.1,0.3
			c-0.5-0.1-0.6-0.6-0.5-0.9c0.1-0.2,0.2-0.2,0.3-0.4c0.3-0.7-0.8-0.6-0.8,0.4c0,1.1,0.8,1.3,1.7,1.3c1.6-0.1,1.5-1.6,1.5-2.9
			c0-0.5,0-1,0-1.5c0-0.9,0-0.7-0.6-0.8c-0.3,0-0.4,0-0.6,0.2C6.2,15.7,6,18.2,7.6,18.1z"/>
	</g>
	<path fill-rule="evenodd" clip-rule="evenodd" fill="#FFFFFF" d="M13.4,4.3h7.2c0.7,0,1.2,0.6,1.2,1.3v7.2c0,0.7-0.6,1.3-1.2,1.3
		h-7.2c-0.7,0-1.2-0.6-1.2-1.3V5.6C12.2,4.9,12.7,4.3,13.4,4.3L13.4,4.3z M19.2,5.4c-0.2,0-0.4,0.2-0.4,0.4v1c0,0.2,0.2,0.4,0.4,0.4
		h1.1c0.2,0,0.4-0.2,0.4-0.4v-1c0-0.2-0.2-0.4-0.4-0.4H19.2L19.2,5.4z M20.7,8.4h-0.8C19.9,8.7,20,9,20,9.3c0,1.6-1.3,2.9-3,2.9
		c-1.7,0-3-1.3-3-2.9c0-0.3,0-0.6,0.1-0.8h-0.9v4.1c0,0.2,0.2,0.4,0.4,0.4h6.7c0.2,0,0.4-0.2,0.4-0.4V8.4L20.7,8.4z M17,7.3
		c-1.1,0-1.9,0.8-1.9,1.9c0,1,0.9,1.9,1.9,1.9c1.1,0,1.9-0.8,1.9-1.9C18.9,8.1,18,7.3,17,7.3z"/>
</g>
</svg>
