<?xml version="1.0" encoding="utf-8"?>
<!-- Generator: Adobe Illustrator 18.0.0, SVG Export Plug-In . SVG Version: 6.00 Build 0)  -->
<!DOCTYPE svg PUBLIC "-//W3C//DTD SVG 1.1//EN" "http://www.w3.org/Graphics/SVG/1.1/DTD/svg11.dtd">
<svg version="1.1" xmlns="http://www.w3.org/2000/svg" xmlns:xlink="http://www.w3.org/1999/xlink" x="0px" y="0px"
	 viewBox="0 0 198.4 198.4" enable-background="new 0 0 198.4 198.4" xml:space="preserve">
<g id="Слой_1" display="none">
	<path display="inline" fill="#27348B" d="M64.9,64.1c0,0-4.8-24.6-11-19.7c-5.8,4.6,4.4,28.6,4.4,28.6s-10-9.4-11-22.1
		c-1.5-18.1,9.8-25.5,9.8-25.5s-1.2,8.3,5.5,18.7C69.1,53.8,64.9,64.1,64.9,64.1z"/>
	<path display="inline" fill="#27348B" d="M66.7,87.8L47.9,73.4c0,0,3.7,11.1,5.6,16.6c8.1,23.7,9.7,22.5,17.2,35.2L55,83.4
		L66.7,87.8z"/>
	<g display="inline">
		<path fill="#27348B" d="M114.8,140.7l-47,0.7l-46.6,0.7l-1.8,0l0-1.8l-0.8-61.9l-0.7-61.9l0-3.1l3.2-0.1c3.9-0.1,7.8-0.3,11.6-0.4
			c3.9-0.1,7.8-0.2,11.6-0.3c3.9-0.1,7.8-0.1,11.6-0.2c3.9,0,7.8-0.1,11.6-0.1l11.6-0.1c3.9,0,7.8,0,11.6,0l11.6,0l11.6,0.1l4.2,0
			l0,4.1L118.5,32l-0.3,15.5c-0.1,5.2-0.2,10.3-0.3,15.5l-0.4,15.5L117,93.9c-0.2,5.2-0.4,10.3-0.6,15.5c-0.2,5.2-0.5,10.3-0.7,15.5
			c-0.3,5.2-0.6,10.3-0.9,15.5L114.8,140.7z M114,139.9c-0.3-5-0.6-10-0.9-15.1c-0.2-5.2-0.5-10.3-0.7-15.5
			c-0.2-5.2-0.4-10.3-0.6-15.5l-0.5-15.5L111,62.9c-0.1-5.2-0.2-10.3-0.3-15.5L110.5,32l-0.1-15.5l4.1,4.1l-11.6,0.1l-11.6,0
			c-3.9,0-7.8,0-11.6,0l-11.6-0.1c-3.9,0-7.8-0.1-11.6-0.1c-3.9-0.1-7.8-0.1-11.6-0.2c-3.9-0.1-7.8-0.1-11.6-0.3
			c-3.9-0.1-7.8-0.2-11.6-0.4l3.2-3.2l-0.7,61.9l-0.8,61.9l-1.8-1.8l46.6,0.7L114,139.9z"/>
	</g>
	<path display="inline" fill="#27348B" d="M65.9,40c0,0,8.7,5.5,8,16.7c-0.6,10-9.3,15.5-9.3,15.5s4.4-8.9,4.7-16.1
		C69.6,47.9,65.9,40,65.9,40z"/>
	<path display="inline" fill="#27348B" d="M64.9,64.1c0,0-4.8-24.6-11-19.7c-5.8,4.6,4.4,28.6,4.4,28.6s-10-9.4-11-22.1
		c-1.5-18.1,9.8-25.5,9.8-25.5s-1.2,8.3,5.5,18.7C69.1,53.8,64.9,64.1,64.9,64.1z"/>
	<path display="inline" fill="#27348B" d="M66.7,87.8L47.9,73.4c0,0,3.7,11.1,5.6,16.6c8.1,23.7,9.7,22.5,17.2,35.2L55,83.4
		L66.7,87.8z"/>
	<g display="inline">
		<path fill="#E94E1B" d="M96.9,125l0.1,0.8c0,0.3,0,0.5,0,0.8c0,0.3-0.1,0.5-0.1,0.8c0,0.3-0.1,0.5-0.2,0.8c-0.2,0.5-0.4,1-0.7,1.4
			c-0.2,0.2-0.3,0.4-0.5,0.6c-0.2,0.2-0.4,0.4-0.6,0.6l-0.6,0.5l-0.7,0.4l-0.7,0.3l-0.8,0.3l-0.8,0.2l-0.8,0.1l-0.8,0l-0.8-0.1
			l0.1,0l-0.8,0.1c-0.3,0-0.5,0-0.8,0c-0.3,0-0.5-0.1-0.8-0.1c-0.3,0-0.5-0.1-0.8-0.2c-0.5-0.2-1-0.4-1.5-0.8
			c-0.2-0.2-0.4-0.3-0.6-0.5c-0.2-0.2-0.4-0.4-0.6-0.6l-0.5-0.7l-0.4-0.7l-0.3-0.8l-0.3-0.8l-0.2-0.8l-0.1-0.8l0-0.8l0.1-0.8l0,0.2
			l-0.1-0.8c0-0.3,0-0.6,0-0.9c0-0.3,0.1-0.6,0.1-0.8c0-0.3,0.2-0.6,0.2-0.8c0.2-0.5,0.5-1.1,0.8-1.5c0.2-0.2,0.4-0.4,0.5-0.7
			c0.2-0.2,0.4-0.4,0.6-0.6l0.7-0.5l0.7-0.4l0.8-0.4c0.3-0.1,0.5-0.2,0.8-0.3l0.8-0.2l0.9-0.1l0.9,0l0.8,0.1l-0.3,0l0.9-0.1
			c0.3,0,0.6,0,0.9,0c0.6,0.1,1.1,0.2,1.7,0.4c0.5,0.2,1,0.5,1.5,0.9c0.2,0.2,0.4,0.4,0.6,0.6c0.2,0.2,0.4,0.4,0.5,0.6l0.5,0.7
			l0.4,0.7l0.3,0.8l0.2,0.8l0.1,0.8l0,0.8l-0.1,0.8L96.9,125z M96.7,125L96.7,125l0-0.8l0-0.7l-0.1-0.7l-0.2-0.7l-0.3-0.7l-0.3-0.6
			l-0.4-0.6l-0.5-0.5c-0.3-0.3-0.7-0.6-1.1-0.9c-0.4-0.2-0.8-0.5-1.2-0.6c-0.2-0.1-0.4-0.1-0.7-0.2c-0.2,0-0.4-0.1-0.7-0.1
			c-0.2,0-0.4,0-0.7,0l-0.7,0.1l-0.1,0l-0.2,0l-0.7-0.1l-0.7,0l-0.7,0.1L87,118l-0.7,0.2l-0.6,0.3l-0.6,0.3l-0.6,0.4l-0.5,0.5
			c-0.1,0.2-0.3,0.3-0.4,0.5c-0.3,0.4-0.5,0.8-0.7,1.2c-0.1,0.2-0.2,0.4-0.2,0.6c0,0.2-0.1,0.4-0.1,0.7c0,0.2,0,0.5,0,0.7l0.1,0.7
			l0,0.1l0,0.1l-0.1,0.7l0,0.7l0,0.7l0.1,0.7l0.2,0.7l0.3,0.7l0.3,0.6l0.4,0.6l0.5,0.5c0.2,0.2,0.4,0.3,0.5,0.5
			c0.4,0.3,0.8,0.5,1.2,0.7c0.2,0.1,0.4,0.2,0.7,0.2c0.2,0,0.5,0.1,0.7,0.1c0.2,0,0.5,0,0.7,0l0.7-0.1l0.1,0l0.1,0l0.7,0.1l0.7,0
			l0.7,0l0.7-0.1l0.7-0.2l0.7-0.3l0.6-0.4l0.6-0.4c0.2-0.2,0.4-0.3,0.6-0.5c0.2-0.2,0.3-0.4,0.5-0.6c0.3-0.4,0.5-0.8,0.7-1.3
			c0.1-0.2,0.2-0.5,0.2-0.7c0-0.2,0.1-0.5,0.1-0.7c0-0.2,0-0.5,0-0.8L96.7,125z"/>
	</g>
	<g display="inline">
		<path fill="#27348B" d="M114.8,140.7l-47,0.7l-46.6,0.7l-1.8,0l0-1.8l-0.8-61.9l-0.7-61.9l0-3.1l3.2-0.1c3.9-0.1,7.8-0.3,11.6-0.4
			c3.9-0.1,7.8-0.2,11.6-0.3c3.9-0.1,7.8-0.1,11.6-0.2c3.9,0,7.8-0.1,11.6-0.1l11.6-0.1c3.9,0,7.8,0,11.6,0l11.6,0l11.6,0.1l4.2,0
			l0,4.1L118.5,32l-0.3,15.5c-0.1,5.2-0.2,10.3-0.3,15.5l-0.4,15.5L117,93.9c-0.2,5.2-0.4,10.3-0.6,15.5c-0.2,5.2-0.5,10.3-0.7,15.5
			c-0.3,5.2-0.6,10.3-0.9,15.5L114.8,140.7z M114,139.9c-0.3-5-0.6-10-0.9-15.1c-0.2-5.2-0.5-10.3-0.7-15.5
			c-0.2-5.2-0.4-10.3-0.6-15.5l-0.5-15.5L111,62.9c-0.1-5.2-0.2-10.3-0.3-15.5L110.5,32l-0.1-15.5l4.1,4.1l-11.6,0.1l-11.6,0
			c-3.9,0-7.8,0-11.6,0l-11.6-0.1c-3.9,0-7.8-0.1-11.6-0.1c-3.9-0.1-7.8-0.1-11.6-0.2c-3.9-0.1-7.8-0.1-11.6-0.3
			c-3.9-0.1-7.8-0.2-11.6-0.4l3.2-3.2l-0.7,61.9l-0.8,61.9l-1.8-1.8l46.6,0.7L114,139.9z"/>
	</g>
	<g display="inline">
		<polygon fill-rule="evenodd" clip-rule="evenodd" fill="#FFFFFF" points="137.7,188.4 49.9,157.3 91.2,40.7 179,71.8 		"/>
		<path fill="#36A936" d="M137.9,188.9l-44.5-15L49.3,159l-1.7-0.6l0.6-1.7l20-58.6l20.1-58.5l1-2.9l3.1,1c3.7,1.2,7.4,2.3,11.1,3.5
			c3.7,1.2,7.4,2.4,11.1,3.6c3.7,1.2,7.4,2.5,11,3.7c3.7,1.3,7.4,2.5,11,3.8l11,3.8c3.7,1.3,7.3,2.6,11,3.9l11,3.9l10.9,4l3.9,1.4
			l-1.4,3.9l-5.3,14.5l-5.4,14.5c-1.8,4.8-3.6,9.7-5.5,14.5l-5.5,14.5l-5.6,14.4c-1.9,4.8-3.8,9.6-5.7,14.4
			c-1.9,4.8-3.9,9.6-5.8,14.3c-2,4.8-4,9.5-6,14.3L137.9,188.9z M137.4,187.9c1.4-4.8,2.8-9.7,4.2-14.5c1.5-4.9,3-9.9,4.5-14.8
			c1.5-4.9,3-9.9,4.6-14.8l4.7-14.7l4.8-14.7c1.6-4.9,3.2-9.8,4.9-14.7l4.9-14.7l5-14.6l2.5,5.3l-11-3.8l-11-3.9
			c-3.7-1.3-7.3-2.6-11-3.9l-11-4c-3.7-1.3-7.3-2.7-10.9-4c-3.6-1.3-7.3-2.7-10.9-4.1c-3.6-1.4-7.3-2.7-10.9-4.1
			c-3.6-1.4-7.2-2.8-10.9-4.3l4.1-1.9L72.9,99.8l-21.4,58.1l-1.1-2.3l43.7,16.2L137.4,187.9z"/>
	</g>
	<g display="inline">
		<path fill="#E94E1B" d="M129.4,164c0,0,0,0.2-0.1,0.5c0,0.2-0.1,0.4-0.2,0.6c-0.1,0.2-0.2,0.5-0.4,0.8c-0.3,0.6-0.9,1.3-1.7,1.8
			c-0.8,0.5-1.8,0.9-3,1.2c-1.2,0.2-2.4,0.3-3.8,0.2c-0.3,0-0.6,0-1-0.1c-0.3-0.1-0.6-0.1-1-0.2c-0.8-0.2-1.4-0.6-2.1-1.2
			c-0.6-0.6-1.1-1.2-1.4-2c-0.3-0.7-0.5-1.5-0.7-2.3c-0.2-1.6-0.2-3.2,0-4.8c0.1-0.5,0.1-0.7,0.3-1.2l0.2-0.7
			c0.1-0.2,0.2-0.4,0.3-0.6c0.5-0.8,1.1-1.5,1.8-1.9c1.5-1,3.2-1.3,4.7-1.3c0.8,0,1.5,0,2.2,0.1c0.4,0,0.7,0.1,1.1,0.2l0.2,0l0.1,0
			l0.2,0.1l0.5,0.1c1.6,0.5,2.7,1.6,3.2,2.8c0.6,1.2,0.7,2.3,0.8,3.3c0,1,0,1.8-0.1,2.5C129.5,163.2,129.4,164,129.4,164L129.4,164z
			 M129.2,164c0,0,0-0.2,0.1-0.5c0-0.4,0.1-0.9,0.1-1.5c0-0.7-0.1-1.5-0.3-2.4c-0.2-0.9-0.6-1.8-1.2-2.6c-0.3-0.4-0.7-0.8-1.1-1
			c-0.2-0.2-0.5-0.2-0.7-0.4c-0.2-0.1-0.5-0.2-0.7-0.2c-1.2-0.2-2.5-0.4-3.9-0.3c-1.3,0-2.7,0.2-3.8,0.8c-0.6,0.3-1,0.7-1.4,1.2
			l-0.2,0.4l-0.2,0.4c-0.1,0.2-0.2,0.8-0.3,1c-0.3,1.4-0.4,2.9-0.2,4.3c0.1,0.7,0.2,1.4,0.5,2c0.3,0.6,0.6,1.2,1,1.6
			c0.5,0.4,1,0.8,1.6,1c0.3,0.1,0.6,0.2,1,0.3c0.3,0.1,0.6,0.1,0.9,0.2c1.3,0.2,2.5,0.3,3.6,0.2c1.1-0.1,2.1-0.4,2.9-0.8
			c0.8-0.4,1.4-1.1,1.7-1.6c0.2-0.3,0.3-0.6,0.4-0.8c0.1-0.2,0.1-0.4,0.2-0.6C129.1,164.1,129.2,164,129.2,164L129.2,164z"/>
	</g>
	<g display="inline">
		<path fill="#B2B2B2" d="M96.7,150.3c0,0-0.1,0.3-0.2,0.8c-0.1,0.3-0.1,0.6-0.3,1c-0.2,0.4-0.3,0.8-0.6,1.3c-0.5,0.9-1.3,2-2.5,2.8
			c-1.2,0.9-2.8,1.5-4.6,1.9c-1.8,0.4-3.8,0.5-5.9,0.4c-0.3,0-0.5,0-0.8-0.1l-0.4,0l-0.2,0l-0.3,0l-0.8-0.1c-0.3,0-0.5-0.1-0.8-0.2
			l-0.9-0.3c-0.3-0.1-0.6-0.3-0.8-0.4c-0.6-0.3-1-0.7-1.6-1.1c-0.9-0.9-1.7-1.9-2.2-3.1c-0.5-1.2-0.9-2.4-1.1-3.6
			c-0.4-2.5-0.3-5,0-7.4c0.2-0.8,0.1-1.1,0.4-1.9l0.4-1.1c0.2-0.3,0.3-0.6,0.5-1c0.7-1.2,1.7-2.4,2.9-3.1c2.4-1.6,5-2.1,7.4-2.2
			c1.2,0,2.4,0,3.5,0.2c0.6,0.1,1.1,0.2,1.7,0.3l0.3,0.1l0.2,0.1l0.4,0.1l0.7,0.2c0.6,0.2,1.3,0.5,1.8,0.8c0.5,0.4,1,0.6,1.4,1.1
			c0.2,0.2,0.4,0.4,0.6,0.6c0.2,0.2,0.3,0.5,0.5,0.7c0.4,0.4,0.6,0.9,0.8,1.4c0.9,1.9,1,3.7,1.1,5.2c0,1.5-0.1,2.8-0.2,3.8
			C96.9,149.2,96.7,150.3,96.7,150.3L96.7,150.3z M96.3,150.3c0,0,0-0.3,0.1-0.8c0.1-0.5,0.1-1.3,0.1-2.4c0-1-0.2-2.2-0.5-3.6
			c-0.4-1.3-1-2.8-1.9-3.9c-0.3-0.3-0.5-0.6-0.8-0.8l-0.4-0.4l-0.5-0.3c-0.3-0.2-0.7-0.3-1-0.5c-0.3-0.1-0.6-0.2-1-0.3
			c-0.2,0-0.5-0.1-0.8-0.1l-0.4-0.1l-0.2,0c-0.1,0,0.1,0,0.1,0l0,0l0,0l-0.1,0c-0.5-0.1-1-0.1-1.5-0.1c-1-0.1-2-0.1-3-0.1
			c-2,0-4,0.3-5.6,1.2c-0.8,0.4-1.4,1-2,1.8l-0.4,0.6c-0.1,0.2-0.2,0.4-0.3,0.6c-0.2,0.3-0.3,1.2-0.5,1.5c-0.4,2.2-0.6,4.4-0.4,6.6
			c0.1,1.1,0.3,2.1,0.7,3c0.4,0.9,0.9,1.7,1.5,2.4c0.7,0.6,1.5,1.2,2.3,1.5c0.2,0.1,0.4,0.2,0.7,0.2l0.8,0.2c0.1,0,0.5,0.1,0.7,0.1
			c0.2,0,0.5,0.1,0.7,0.1c1.9,0.3,3.8,0.5,5.5,0.3c1.7-0.1,3.2-0.5,4.5-1.2c0.6-0.3,1.1-0.8,1.6-1.2c0.4-0.5,0.8-0.9,1-1.3
			c0.3-0.4,0.4-0.8,0.6-1.2c0.2-0.4,0.2-0.7,0.3-1C96.2,150.5,96.3,150.2,96.3,150.3L96.3,150.3z"/>
	</g>
	<g display="inline">
		<path fill="#FCD138" d="M122.2,153.5L122.2,153.5c0,0-0.1,0.4-0.3,1.2c-0.1,0.4-0.2,0.9-0.5,1.5c-0.2,0.6-0.5,1.3-0.9,1.9
			c-0.7,1.4-2,2.9-3.8,4.2c-1.8,1.3-4.2,2.3-6.9,2.8c-2.7,0.6-5.7,0.7-8.8,0.5c-0.4,0-0.8-0.1-1.2-0.1l-0.6-0.1l-0.3,0l-0.4-0.1
			c-0.4-0.1-0.8-0.1-1.2-0.2l-0.6-0.1c-0.2,0-0.4-0.1-0.7-0.2c-0.4-0.2-0.9-0.3-1.4-0.5c-0.4-0.2-0.8-0.4-1.3-0.6
			c-0.9-0.4-1.6-1-2.3-1.6c-1.4-1.3-2.6-2.9-3.4-4.7c-0.8-1.8-1.3-3.6-1.6-5.5c-0.3-1.9-0.4-3.7-0.4-5.6c0-0.9,0-1.9,0.1-2.8
			c0-0.5,0.1-0.9,0.1-1.4l0.1-0.7l0-0.3l0-0.2l0-0.1l0,0c0-0.1,0,0.1,0-0.2l0.2-1.3l0.1-0.7c0-0.2,0.2-0.5,0.2-0.8
			c0.2-0.5,0.4-1.1,0.6-1.6c0.2-0.5,0.5-1,0.8-1.4c1.1-1.9,2.6-3.6,4.4-4.7c3.6-2.4,7.6-3.1,11.2-3.2c1.8,0,3.6,0,5.3,0.2
			c0.9,0.1,1.7,0.2,2.5,0.4l0.2,0l0.3,0.1l0.3,0.1l0.6,0.2c0.4,0.1,0.7,0.2,1.1,0.3c0.9,0.4,1.9,0.7,2.7,1.2c0.8,0.5,1.6,1,2.2,1.6
			c0.3,0.3,0.6,0.6,0.9,0.9c0.3,0.3,0.5,0.7,0.8,1c0.5,0.7,0.9,1.4,1.2,2.1c1.3,2.8,1.5,5.5,1.6,7.8c0,2.3-0.2,4.2-0.3,5.8
			c-0.2,1.6-0.4,2.8-0.5,3.6C122.3,153,122.2,153.5,122.2,153.5L122.2,153.5z M121.6,153.4c0,0,0-0.4,0.1-1.3c0.1-0.8,0.2-2,0.1-3.6
			c0-1.5-0.2-3.4-0.8-5.4c-0.5-2-1.4-4.2-2.9-5.9c-0.4-0.4-0.7-0.9-1.2-1.2c-0.2-0.2-0.4-0.4-0.6-0.5c-0.2-0.1-0.5-0.3-0.7-0.4
			c-0.4-0.3-1-0.5-1.5-0.7c-0.5-0.2-1-0.3-1.5-0.5c-0.4-0.1-0.8-0.1-1.1-0.2l-0.6-0.1l-0.3-0.1c0.1,0-0.2,0,0.2,0l0,0l-0.1,0l-0.1,0
			c-0.7-0.1-1.5-0.2-2.2-0.2c-0.7-0.1-1.5-0.1-2.2-0.1c-0.7,0-1.5,0-2.2,0c-3,0.1-6,0.5-8.4,1.8c-1.2,0.6-2.2,1.6-3,2.6l-0.6,0.9
			c-0.1,0.3-0.2,0.6-0.4,0.9c-0.1,0.2-0.1,0.3-0.2,0.5l-0.2,0.6l-0.3,1.3l-0.2,1.1c-0.1,0.4-0.1,0.8-0.2,1.2
			c-0.1,0.8-0.2,1.7-0.2,2.5c-0.1,1.7-0.1,3.3,0.1,4.9c0.2,1.6,0.5,3.1,1,4.5c0.6,1.4,1.3,2.6,2.3,3.6c0.5,0.4,1,1,1.6,1.3
			c0.3,0.2,0.6,0.4,0.9,0.5l0.9,0.4c0.2,0.1,0.3,0.1,0.5,0.2l0.6,0.2c0.4,0.1,0.8,0.2,1.1,0.3l0.1,0l0.1,0l0,0c0,0-0.2,0-0.1,0
			l0.3,0.1l0.6,0.1c0.4,0.1,0.7,0.1,1.1,0.2c2.9,0.4,5.7,0.7,8.3,0.5c2.6-0.2,4.9-0.8,6.7-1.8c0.9-0.5,1.7-1.1,2.3-1.8
			c0.3-0.3,0.6-0.7,0.8-1c0.3-0.3,0.4-0.7,0.6-1c0.4-0.6,0.6-1.3,0.8-1.8c0.2-0.5,0.3-1,0.4-1.4
			C121.5,153.8,121.6,153.4,121.6,153.4L121.6,153.4z"/>
	</g>
	<path display="inline" fill="#36A936" d="M118.4,67.8c-0.9,4.2,1.7,8.3,5.9,9.3c4.2,0.9,8.3-1.7,9.3-5.9c0.9-4.2-1.7-8.3-5.9-9.3
		C123.5,61,119.3,63.6,118.4,67.8z"/>
	<path display="inline" fill="#36A936" d="M151.4,72.2c0,0-18.9,18.7-32.8,11.7c-8.4-4.2-8.6-15.5-8.6-15.5s-4.1,7.5-5.3,19.4
		c-1.6,15.7,10.5,37.3,10.5,37.3s-4.5-20.1,0.5-20.3c5.2-0.1,3.3,21.1,3.3,21.1s4.2-16.2,10-25.8C138.1,85.1,151.4,72.2,151.4,72.2z
		"/>
	<path display="inline" fill="#36A936" d="M118.4,67.8c-0.9,4.2,1.7,8.3,5.9,9.3c4.2,0.9,8.3-1.7,9.3-5.9c0.9-4.2-1.7-8.3-5.9-9.3
		C123.5,61,119.3,63.6,118.4,67.8z"/>
	<path display="inline" fill="#27348B" d="M65.9,40c0,0,8.7,5.5,8,16.7c-0.6,10-9.3,15.5-9.3,15.5s4.4-8.9,4.7-16.1
		C69.6,47.9,65.9,40,65.9,40z"/>
</g>
<g id="Слой_2" display="none">
	<g display="inline">
		<g>
			<g>
				<path fill="#27348B" d="M182.6,181.5l-10.5,0.6l-10.1,0.5l-10.1,0.4c-3.4,0.1-6.7,0.2-10.1,0.3c-6.7,0.2-13.5,0.4-20.2,0.6
					l-10.1,0.2c-3.4,0.1-6.7,0.1-10.1,0.2l-20.2,0.3l-20.2,0.1L51,184.7l-10.1,0c-6.7,0-13.5-0.2-20.2-0.3l-3.4,0l0-3.3
					c0-3.4,0.2-6.7,0.2-10.1l0.3-10.1l0.6-20.2l0.6-20.2l0.2-10.1c0-3.4,0.1-6.7,0.2-10.1c0-6.7,0.1-13.5,0.1-20.2
					c0-6.7,0-13.5-0.1-20.2l-0.1-10.1L19,39.8l-0.5-20.2l-0.1-2.1l2.2-0.1l20.2-0.5c6.7-0.2,13.5-0.3,20.2-0.5
					c6.7-0.2,13.5-0.2,20.2-0.3l20.2-0.2l40.4-0.4l10.1-0.1l10.1,0l10.1,0c3.4,0,6.7,0,10.1,0l4.3,0.1l0,4.2l-0.2,20.2l-0.1,10.1
					L186.1,60l-0.3,20.2l-0.4,20.2c-0.1,6.7-0.3,13.5-0.5,20.2c-0.2,6.7-0.4,13.5-0.6,20.2c-0.2,6.7-0.5,13.5-0.7,20.2
					c-0.3,6.7-0.6,13.5-0.9,20.2L182.6,181.5z M181.8,180.7c-0.3-6.6-0.6-13.2-0.9-19.8c-0.3-6.7-0.5-13.5-0.7-20.2
					c-0.2-6.7-0.4-13.5-0.6-20.2c-0.2-6.7-0.4-13.5-0.5-20.2l-0.4-20.2L178.3,60l-0.1-10.1l-0.1-10.1l-0.2-20.2l4.3,4.3
					c-3.4,0-6.7,0-10.1,0l-10.1,0l-10.1,0l-10.1-0.1l-40.4-0.4l-20.2-0.2c-6.7-0.1-13.5-0.2-20.2-0.3c-6.7-0.1-13.5-0.3-20.2-0.5
					l-20.2-0.5l2.2-2.2l-0.5,20.2l-0.2,10.1L22.1,60C22,66.7,22,73.5,22,80.2c0,6.7,0.1,13.5,0.1,20.2c0,3.4,0.1,6.7,0.2,10.1
					l0.2,10.1l0.6,20.2l0.6,20.2l0.3,10.1c0.1,3.4,0.2,6.7,0.2,10.1l-3.3-3.3c6.7-0.1,13.5-0.2,20.2-0.3l10.1,0l10.1,0.1l20.2,0.1
					l20.2,0.3c3.4,0.1,6.7,0.1,10.1,0.2l10.1,0.2c6.7,0.1,13.5,0.3,20.2,0.6c3.4,0.1,6.7,0.2,10.1,0.3l10.1,0.4l10.1,0.5
					L181.8,180.7z"/>
			</g>
		</g>
		<path fill-rule="evenodd" clip-rule="evenodd" fill="#27348B" d="M96.2,120.2h4.6c0,0,1.4-0.2,2.1-0.9c0.6-0.7,0.6-2,0.6-2
			s-0.1-6.1,2.8-7.1c2.8-0.9,6.4,5.9,10.3,8.6c2.9,2,5.1,1.6,5.1,1.6l10.2-0.1c0,0,5.4-0.3,2.8-4.5c-0.2-0.3-1.5-3.1-7.6-8.8
			c-6.4-6-5.6-5,2.2-15.3c4.7-6.3,6.6-10.1,6-11.7c-0.6-1.6-4-1.2-4-1.2l-11.5,0.1c0,0-0.9-0.1-1.5,0.3c-0.6,0.4-1,1.2-1,1.2
			s-1.8,4.9-4.3,9c-5.1,8.7-7.2,9.2-8,8.6c-2-1.3-1.5-5.1-1.5-7.8c0-8.4,1.3-12-2.5-12.9c-1.3-0.3-2.2-0.5-5.4-0.5
			c-4.1,0-7.6,0-9.6,1c-1.3,0.6-2.3,2.1-1.7,2.2c0.8,0.1,2.5,0.5,3.4,1.7c1.2,1.6,1.1,5.2,1.1,5.2s0.7,9.9-1.6,11.2
			c-1.6,0.8-3.7-0.9-8.3-8.8c-2.3-4.1-4.1-8.5-4.1-8.5s-0.3-0.8-1-1.3c-0.7-0.5-1.8-0.7-1.8-0.7l-11,0.1c0,0-1.6,0-2.2,0.8
			c-0.5,0.6,0,2,0,2s8.6,20.1,18.3,30.2C86.1,120.8,96.2,120.2,96.2,120.2L96.2,120.2z"/>
	</g>
</g>
<g id="Слой_3" display="none">
	<g display="inline">
		<g>
			<path fill="#27348B" d="M177.3,178.8l-10.1,0.6l-9.8,0.5l-9.8,0.4c-3.3,0.1-6.5,0.2-9.8,0.3c-6.5,0.2-13,0.4-19.5,0.6l-9.8,0.2
				c-3.3,0.1-6.5,0.1-9.8,0.2l-19.5,0.3L59.8,182l-9.8,0.1l-9.8,0c-6.5,0-13-0.2-19.5-0.3l-3.4,0l0-3.3c0-3.3,0.2-6.5,0.2-9.8
				l0.3-9.8l0.6-19.5l0.6-19.5l0.2-9.8c0-3.3,0.1-6.5,0.2-9.8c0-6.5,0.1-13,0.1-19.5c0-6.5,0-13-0.1-19.5l-0.1-9.8l-0.2-9.8
				l-0.5-19.5l-0.1-2.1l2.2-0.1l19.5-0.5c6.5-0.2,13-0.3,19.5-0.5c6.5-0.2,13-0.2,19.5-0.3l19.5-0.2l39-0.4l9.8-0.1l9.8,0l9.8,0
				c3.3,0,6.5,0,9.8,0l4.3,0.1l0,4.2L181,41.9l-0.1,9.8l-0.1,9.8l-0.3,19.5l-0.4,19.5c-0.1,6.5-0.3,13-0.5,19.5
				c-0.2,6.5-0.4,13-0.6,19.5c-0.2,6.5-0.5,13-0.7,19.5c-0.3,6.5-0.6,13-0.9,19.5L177.3,178.8z M176.5,178
				c-0.3-6.4-0.6-12.7-0.9-19.1c-0.3-6.5-0.5-13-0.7-19.5c-0.2-6.5-0.4-13-0.6-19.5c-0.2-6.5-0.4-13-0.5-19.5l-0.4-19.5L173,61.4
				l-0.1-9.8l-0.1-9.8l-0.2-19.5l4.3,4.3c-3.3,0-6.5,0-9.8,0l-9.8,0l-9.8,0l-9.8-0.1l-39-0.4l-19.5-0.2c-6.5-0.1-13-0.2-19.5-0.3
				c-6.5-0.1-13-0.3-19.5-0.5l-19.5-0.5l2.2-2.2l-0.5,19.5l-0.2,9.8l-0.1,9.8c-0.1,6.5-0.1,13-0.1,19.5c0,6.5,0.1,13,0.1,19.5
				c0,3.3,0.1,6.5,0.2,9.8l0.2,9.8l0.6,19.5l0.6,19.5l0.3,9.8c0.1,3.3,0.2,6.5,0.2,9.8l-3.3-3.3c6.5-0.1,13-0.2,19.5-0.3l9.8,0
				l9.8,0.1l19.5,0.1l19.5,0.3c3.3,0.1,6.5,0.1,9.8,0.2l9.8,0.2c6.5,0.1,13,0.3,19.5,0.6c3.3,0.1,6.5,0.2,9.8,0.3l9.8,0.4l9.8,0.5
				L176.5,178z"/>
		</g>
		<g>
			<path fill="#27348B" d="M115.7,94.5h-11.5v38.8H92.1V94.5h-4.5V89l4.5-1.3V81c0-10.4,3.8-17.3,14.5-17.3c5.2,0,10.3,3.1,10.3,3.1
				l-1.6,5.2c0,0-3.9-2.2-6.5-2.2c-3.1,0-4.5,1.7-4.5,12.6v5.1h11.5V94.5z"/>
		</g>
	</g>
</g>
<g id="Слой_4">
	<g>
		<g>
			<path fill="#27348B" d="M190.6,166.6c-3.8,0.2-7.6,0.4-11.4,0.6l-11.4,0.5c-7.6,0.3-15.2,0.6-22.8,0.8
				c-7.6,0.3-15.2,0.4-22.8,0.6c-7.6,0.2-15.2,0.3-22.8,0.4c-7.6,0.1-15.2,0.2-22.8,0.2L65,169.8l-11.4,0c-3.8,0-7.6,0-11.4-0.1
				l-11.4-0.2c-3.8,0-7.6-0.2-11.4-0.3L7.9,169l-2.8-0.1l0.1-2.7c0.3-11.5,0.8-22.9,1-34.4c0.2-5.7,0.2-11.5,0.3-17.2
				c0.1-5.7,0.1-11.5,0.1-17.2c0.1-5.7,0-11.5,0-17.2c0-5.7-0.1-11.5-0.2-17.2c-0.1-5.7-0.2-11.5-0.3-17.2L5.8,28.6l-0.1-2.1
				l2.2-0.1l22.8-0.6c7.6-0.2,15.2-0.4,22.8-0.5L76.5,25l22.8-0.3l22.8-0.2l11.4-0.1l11.4,0l11.4,0c3.8,0,7.6,0,11.4,0l22.8,0.2
				l4.1,0l0,4c0,5.7-0.1,11.5-0.2,17.2L194.2,63c-0.1,5.7-0.2,11.5-0.3,17.2c-0.1,5.7-0.2,11.5-0.4,17.2l-0.5,17.2l-0.6,17.2
				l-0.7,17.2c-0.2,5.7-0.5,11.5-0.8,17.2l0,0.4L190.6,166.6z M190.2,165.8c-0.3-5.6-0.6-11.2-0.8-16.8l-0.7-17.2l-0.6-17.2
				l-0.5-17.2c-0.2-5.7-0.3-11.5-0.4-17.2c-0.1-5.7-0.3-11.5-0.3-17.2l-0.3-17.2c-0.1-5.7-0.2-11.5-0.2-17.2l4.1,4.1l-22.8,0.2
				c-3.8,0-7.6,0-11.4,0l-11.4,0l-11.4,0l-11.4-0.1l-22.8-0.2l-22.8-0.3L53.6,32c-7.6-0.2-15.2-0.3-22.8-0.5L7.9,30.8l2.2-2.2
				L9.7,45.8C9.6,51.6,9.4,57.3,9.4,63c-0.1,5.7-0.2,11.5-0.2,17.2c0,5.7-0.1,11.5,0,17.2c0.1,5.7,0,11.5,0.1,17.2
				c0.1,5.7,0.2,11.5,0.3,17.2c0.3,11.5,0.7,22.9,1,34.4l-2.8-2.8l11.4-0.3c3.8-0.1,7.6-0.2,11.4-0.3l11.4-0.2
				c3.8-0.1,7.6-0.1,11.4-0.1l11.4,0l11.4,0.1c7.6,0.1,15.2,0.1,22.8,0.2c7.6,0.1,15.2,0.2,22.8,0.4c7.6,0.2,15.2,0.3,22.8,0.6
				c7.6,0.2,15.2,0.5,22.8,0.8l11.4,0.5C182.9,165.4,186.5,165.6,190.2,165.8z"/>
		</g>
		<g>
			<g>
				<path fill-rule="evenodd" clip-rule="evenodd" fill="#27348B" d="M109.9,134.1c0,3.1,0.4,9.9-1.2,12.4c-0.6,0.9-2.1,1.8-3,0.5
					C103.7,144,107.3,135.4,109.9,134.1L109.9,134.1z M107.5,115.2c1.6-0.6,2.4,1,2.6,2.5c0.3,1.9-0.5,2.7-0.6,4.5
					c-0.3,7-4.4,10.8-5.2,5.3C103.7,124.1,104.1,116.4,107.5,115.2L107.5,115.2z M91.9,115.5c2.4-0.6,2.8,2.7,2.7,3.7
					c-0.1,1.3-0.5-0.5-0.8,3.1c-0.2,1.9-0.4,5-1.3,6.6c-0.7,1.3-3.1,3.4-3.7-1.1C88.2,124.5,88.5,116.3,91.9,115.5L91.9,115.5z
					 M81,105.2c-0.8-0.6-2.3-1-3.6-1c-0.4,1.9-0.3,4.1-0.4,6.1c-0.1,1.6-0.5,1.1-2,1.1c-1,0-2.1,0-2.7,0.5c-0.1,1.8,3.3,1.6,4.5,2.1
					c0.1,5-1.1,10.8,0.6,15.3c0.6,1.7,2.4,4.1,4.9,3c1.9-0.8,2.6-3.4,3.3-4.8c1.3,4.4,1.3,4.3,4.8,5c2.6,0.5,3.9-2.9,4.6-5
					c0.4,0.9,0.3,1.4,0.9,2.2c0.4,0.5,0.9,1.2,1.8,1.4c2.1,0.5,3-1.1,3.9-2.1l0.2-0.2c0.7,3.2,2.5,3.2,4.3,3.6
					c2.6,0.6,3.1-2.3,4.1-3.6c-0.3,5.4,0.2,2.8-1.9,5c-0.5,0.6-1.1,1-1.6,1.7c-2.5,3.2-5.9,11.3-1.5,13.4c1.2,0.5,4.4,1,5.6,0.5
					c1.3-0.6,2-2.3,2.3-4c0.7-4,0.1-8.4,0.4-12.4c1-0.2,1.6,0.4,2.2-0.6c-0.1-1.1-1.2-1.1-2.2-1.2c0-1.9-0.1-3.8,0-5.7
					c0.1-4.2,0.7-3.6,0.8-4.7c-0.4-0.3-0.3-0.2-0.9-0.4c-0.6-0.2-0.5-0.1-0.7-0.5c-0.5-1.2,0.8-3.4-0.5-5.2c-1.1-1.5-2.5-1.2-4.2-2
					c-3.7-1.8-5.4,2.1-6,5.3c-1.1,5.2,0.1,8.6-1.8,10.7c-1.7,1.9-2.3-1.4-2.4-2.9c-0.2-5.3,1.8-5.3-0.7-6.2c-0.4-2.5,0.4-4.4-1.3-6
					c-0.5-0.5-1.7-0.7-2.5-1.1c-0.9-0.5-1.9-0.7-3.1-0.5c-3.7,0.8-4.2,7.1-4.6,9.9c-0.2,1.3-0.3-0.3-0.9,2.7c-1.1,5-3.5,6.7-4.2,3.2
					c-0.4-1.8-0.3-12.5,0.2-14c0.3-0.5,4-0.7,4.9-0.7c0.9,0,1,0.3,1.3,0.1c1.5-2-5.1-1.7-6.1-2L81,105.2z"/>
				<path fill-rule="evenodd" clip-rule="evenodd" fill="#27348B" d="M133.3,115.5c2.2-0.6,2.8,2.1,2.7,3.6c0,0.9,0,0.4-0.4,1
					c-0.9,1.3,0,8.6-3,10.2c-3.1,1.7-2.8-5.3-2.6-7.4C130.2,120.5,130.7,116.3,133.3,115.5L133.3,115.5z M115.3,114
					c-0.1,2.2,0.2,4.5,0.2,6.8c0,1.1-0.1,2.3-0.2,3.4c-0.1,0.8-0.5,2.2-0.4,2.9c1.6,0.6,1.9-2.4,2.1-3.7c0.2-1.5,0.4-3.9,0.8-5.1
					c0.3-0.1,0.5-0.1,0.9-0.1c1.6,0.1,0.4,2.7,0.6,6.3c0.1,2.8,1.2,9,5.1,7.5c1.5-0.6,2.1-2.1,2.8-3.7c0.5,1,0.8,3.5,3.1,3.9
					c2.4,0.4,3.7,1,5.5-3c0.1-0.3,0.2-0.5,0.3-0.8c0.1-0.2,0.1-0.3,0.2-0.4c0.2-0.3,0.1-0.1,0.3-0.3c0.3,1.7,1.4,3.5,3.3,3.5
					c1.9,0.1,3-1.8,3.7-3c0.2,1.1,0,2.9,0.9,3.4c0.8,0.4,2.7,0.6,3.6,0.2c0.4-0.6,0.3-2,0.4-2.8c0.1-0.9,0.2-1.8,0.4-2.7
					c0.2-0.9,0.6-4.2,1.4-4.7c0.4,3.2-0.7,8.3,1.4,9.2c0.5,0.2,1,0.3,1.5,0.3c1.8,0,1.2-0.7,1.9-3.3c0.4-1.8,1.7-6.1,2.6-7.2
					c0,2.6-0.5,4.4,0.1,7.2c0.9,4.7,5,6.2,7.5,1.6c0.4-0.8,2.1-4.8,1.2-5.7c-1.3-1.4-1.2,3.2-2.5,5c-0.5,0.8-1.8,1.6-2.4,0.4
					c-0.4-0.8-0.5-2.2-0.6-3.3c-0.2-7.9,2.5-7.5-0.2-9.2c-1.1-0.7-1.7-0.8-3.1-0.6c-0.7,0.4-3.4,9.1-3.9,9.9
					c-0.1,0.2-0.1,0.1-0.2,0.3c0-2,0-4,0-5.9c0-1,0.2-1.9-0.5-2.4c-0.6-0.4-1.6-0.5-2.4-0.4c-1.2,0.2-1.8,2.3-2.2,3.5
					c-0.3,0.8-1.2,3.8-1.2,4.3l0-10.2c-0.5-0.7-2.5-1-3.3-0.7c-0.2,0.5-0.2,6.1-0.2,7.1c0,1.5,0.1,2.4-0.3,3.3
					c-0.3,0.7-0.5,1.9-0.8,2.7c-1,2.5-2.7,2.4-3.1-0.6c-0.1-1.1-0.1-2.4-0.1-3.4c0.1-1,0.6-2.3,0.5-3c-0.5-0.6-0.6-0.4-1.2-0.8
					c-0.3-1.5,0.1-3.3-0.5-4.7c-0.7-1.8-1.4-1.4-3-2.1c-1.3-0.6-2.4-1.3-4.1-0.5c-1.3,0.5-1.8,1.4-2.4,2.7c-0.6,1.2-0.9,2.6-1.2,4
					c-0.2,1.2-0.3,3.6-0.6,4.6c-0.6,1.9-1.2,7.1-3.4,6.8c-1.3-1.2-1.1-4.5-0.9-6.5c0.1-1.2,0.3-2.3,0.5-3.4c0.2-0.9,0.8-2.2,0.8-3.1
					c-1.1-1.7-3.8-0.7-5.4-1.5c-0.1-1,0.1-1.6-0.1-2.5C117,112.8,116.1,113.4,115.3,114z"/>
				<path fill-rule="evenodd" clip-rule="evenodd" fill="#27348B" d="M65.4,127.6c0.5-1.5,0.8-2.2,0.9-4.1c1,1.1,4.7,3.4,5.1,4.7
					c0.6,1.8-1.8,1.8-3,1.2c-0.5-0.3-1-0.7-1.4-1.1C66.2,127.8,66.2,128,65.4,127.6L65.4,127.6z M55.8,130.8
					c0.6-1.6,1.2-7.8,2.7-9.1c0.2,3.4-1.1,8.9,3.2,8.7c1.4-0.1,2.1-0.8,2.8-1.3c0.7,0.9,0.9,1.2,2.2,1.7c2.9,1,9,0.6,8.3-2.7
					c-0.6-2.9-8.7-5.3-5.9-9.2c0.4-0.6,1.9-1.3,2.8-0.7c0.1,0.1,1.3,1.7,2.5,0c0.5-0.7,1-2.3,0.3-3.1c-1.4-1.5-6.8,0-8.8,2
					c-1.9,1.9-1.3,3.9,0,5.9c-1.5,0.4-0.5,0.3-1.4,3c-0.4,1.2-1,2.4-2.4,2.1c-1.2-1.9-0.3-5.6-0.5-8.3c-0.1-1.6-0.7-3.4-2.5-2.9
					c-1.5,0.4-3,5-3.8,6.8c-0.1-1.9,0.1-7.7,0-8.6c-0.2-1-2.6-1.5-3-0.9c-0.2,0.3-0.6,11.5-0.6,12.4c0,1.1,0,3.1,0.5,3.8
					C52.9,131.4,54.8,131.1,55.8,130.8z"/>
				<path fill-rule="evenodd" clip-rule="evenodd" fill="#27348B" d="M45.5,120.4c-3,0.6-3.7-1.8-4-4.6c-0.9-7.3,2.8-10.1,4.1-8.1
					c0.4,0.7,0,2.8,0,3.8C45.5,114.5,45.5,117.5,45.5,120.4L45.5,120.4z M45.4,123.3c0.2,2.4-1.4,4.9-2.5,5.9
					c-1.5,1.4-3.7,2.3-6.4,1.6c-2.9-0.7-3.6-3.4-2.7-4.9c0.6-0.9,1.4-1.3,1.8-2.4c1.6-4-4.4-3.5-4.5,2.3c-0.1,5.9,4.3,7.5,9.4,7.2
					c9.2-0.6,8.7-9.1,8.7-16.4c0-2.8,0-5.6,0-8.4c0-5.2,0.1-3.8-3.6-4.3c-1.6-0.2-2.3,0.1-3.1,1C37.6,109.7,36.4,123.6,45.4,123.3z"
					/>
			</g>
			<path fill-rule="evenodd" clip-rule="evenodd" fill="#27348B" d="M78,45.3h40.4c3.8,0,7,3.2,7,7.1v40.9c0,3.9-3.1,7.1-7,7.1H78
				c-3.8,0-7-3.2-7-7.1V52.4C71.1,48.5,74.2,45.3,78,45.3L78,45.3z M110.7,51.4c-1.3,0-2.4,1.1-2.4,2.5v5.9c0,1.4,1.1,2.5,2.4,2.5
				h6.2c1.3,0,2.4-1.1,2.4-2.5v-5.9c0-1.4-1.1-2.5-2.4-2.5H110.7L110.7,51.4z M119.3,68.6h-4.8c0.5,1.5,0.7,3.1,0.7,4.7
				c0,9.2-7.6,16.6-16.9,16.6c-9.3,0-16.9-7.4-16.9-16.6c0-1.6,0.2-3.2,0.7-4.7h-5v23.3c0,1.2,1,2.2,2.2,2.2h37.9
				c1.2,0,2.2-1,2.2-2.2V68.6L119.3,68.6z M98.3,62c-6,0-10.9,4.8-10.9,10.7c0,5.9,4.9,10.7,10.9,10.7c6,0,10.9-4.8,10.9-10.7
				C109.3,66.8,104.4,62,98.3,62z"/>
		</g>
	</g>
</g>
</svg>
