<?xml version="1.0" encoding="utf-8"?>
<!-- Generator: Adobe Illustrator 18.0.0, SVG Export Plug-In . SVG Version: 6.00 Build 0)  -->
<!DOCTYPE svg PUBLIC "-//W3C//DTD SVG 1.1//EN" "http://www.w3.org/Graphics/SVG/1.1/DTD/svg11.dtd">
<svg version="1.1" id="Слой_1" xmlns="http://www.w3.org/2000/svg" xmlns:xlink="http://www.w3.org/1999/xlink" x="0px" y="0px"
	 viewBox="0 0 582.9 145.1" enable-background="new 0 0 582.9 145.1" xml:space="preserve">
<path fill="#27348B" d="M28,31.2c0,0-2.7-14-6.3-11.2c-3.3,2.6,2.5,16.2,2.5,16.2s-5.7-5.3-6.3-12.6c-0.9-10.2,5.6-14.5,5.6-14.5
	s-0.7,4.7,3.1,10.6C30.4,25.4,28,31.2,28,31.2z"/>
<path fill="#27348B" d="M29,44.7l-10.7-8.2c0,0,2.1,6.3,3.2,9.4c4.6,13.5,5.5,12.8,9.8,20l-8.9-23.7L29,44.7z"/>
<g>
	<path fill="#27348B" d="M56.5,74.9l-13.6,0.4l-13.2,0.3L3.3,76.3l-1.7,0l0-1.8C1.1,62.8,1,51.1,0.7,39.4L0.3,21.8L0,4.3l0-3
		l3.3-0.2c2.2-0.2,4.4-0.3,6.6-0.4c2.2-0.1,4.4-0.2,6.6-0.3c2.2-0.1,4.4-0.1,6.6-0.2c2.2,0,4.4-0.1,6.6-0.1L36.3,0
		c2.2,0,4.4,0,6.6,0l6.6,0l6.6,0.1l4.2,0l-0.1,4.1c-0.1,5.9-0.2,11.7-0.4,17.6c-0.2,5.9-0.5,11.7-0.7,17.6l-0.5,8.8
		c-0.2,2.9-0.4,5.9-0.6,8.8c-0.2,2.9-0.5,5.9-0.7,8.8c-0.3,2.9-0.5,5.9-0.9,8.8L56.5,74.9z M55.7,74.1c-0.3-2.8-0.6-5.6-0.8-8.4
		c-0.2-2.9-0.5-5.9-0.7-8.8c-0.2-2.9-0.4-5.9-0.6-8.8l-0.5-8.8c-0.2-5.9-0.5-11.7-0.7-17.6C52.2,16,52.1,10.1,52,4.3l4.2,4.2
		l-6.6,0.1l-6.6,0c-2.2,0-4.4,0-6.6,0l-6.6-0.1c-2.2,0-4.4-0.1-6.6-0.1c-2.2-0.1-4.4-0.1-6.6-0.2C14.3,8,12.1,8,9.9,7.8
		C7.7,7.7,5.5,7.6,3.3,7.5l3.2-3.2L6.2,21.8L5.8,39.4C5.5,51.1,5.4,62.8,5,74.5l-1.8-1.8l26.4,0.7l13.2,0.3L55.7,74.1z"/>
</g>
<path fill="#27348B" d="M28.6,17.6c0,0,4.9,3.1,4.5,9.5c-0.3,5.7-5.3,8.8-5.3,8.8s2.5-5,2.7-9.1C30.7,22.1,28.6,17.6,28.6,17.6z"/>
<path fill="#27348B" d="M28,31.2c0,0-2.7-14-6.3-11.2c-3.3,2.6,2.5,16.2,2.5,16.2s-5.7-5.3-6.3-12.6c-0.9-10.2,5.6-14.5,5.6-14.5
	s-0.7,4.7,3.1,10.6C30.4,25.4,28,31.2,28,31.2z"/>
<path fill="#27348B" d="M29,44.7l-10.7-8.2c0,0,2.1,6.3,3.2,9.4c4.6,13.5,5.5,12.8,9.8,20l-8.9-23.7L29,44.7z"/>
<g>
	<path fill="#E94E1B" d="M46.2,65.9c0,0.3,0.1,0.6,0.1,0.9c0,0.3-0.1,0.6-0.2,0.9c-0.2,0.6-0.5,1.1-1,1.5c-0.2,0.2-0.5,0.4-0.8,0.5
		c-0.3,0.1-0.6,0.3-0.9,0.4c-0.3,0.1-0.6,0.1-0.9,0.2c-0.3,0-0.6,0-1-0.1l0.1,0c-0.3,0.1-0.6,0.1-1,0.1c-0.3,0-0.7-0.1-1-0.2
		c-0.6-0.2-1.2-0.6-1.6-1.1c-0.2-0.2-0.4-0.5-0.6-0.8c-0.2-0.3-0.3-0.6-0.4-0.9c-0.1-0.3-0.1-0.7-0.2-1c0-0.3,0-0.7,0.1-1l0,0.2
		c-0.1-0.3-0.1-0.7-0.1-1c0-0.3,0.1-0.7,0.2-1c0.1-0.3,0.3-0.6,0.5-0.9c0.2-0.3,0.4-0.6,0.7-0.8c0.3-0.2,0.6-0.4,0.9-0.6
		c0.3-0.2,0.6-0.3,1-0.4c0.3-0.1,0.7-0.1,1-0.1c0.4,0,0.7,0,1,0.1l-0.3,0c0.4,0,0.7,0,1.1,0c0.4,0,0.7,0.1,1,0.3
		c0.3,0.1,0.6,0.3,0.9,0.5c0.3,0.2,0.5,0.5,0.7,0.7c0.2,0.3,0.4,0.6,0.5,0.9c0.1,0.3,0.2,0.6,0.2,0.9c0,0.3,0,0.6,0,0.9l-0.1,0.5
		L46.2,65.9z M46,65.8c0-0.3,0-0.6-0.1-0.8c-0.1-0.3-0.1-0.5-0.2-0.8c-0.1-0.2-0.2-0.5-0.4-0.7c-0.2-0.2-0.3-0.4-0.5-0.6
		c-0.4-0.3-0.8-0.6-1.2-0.7c-0.2-0.1-0.4-0.1-0.7-0.1c-0.2,0-0.5,0-0.7,0.1l-0.1,0l-0.2,0c-0.2,0-0.5-0.1-0.7,0
		c-0.2,0-0.5,0-0.7,0.1c-0.2,0.1-0.4,0.1-0.7,0.2c-0.2,0.1-0.4,0.2-0.6,0.4c-0.4,0.3-0.7,0.7-0.9,1.1c-0.1,0.2-0.2,0.4-0.2,0.7
		c0,0.2,0,0.5,0,0.7l0,0.2l0,0.1c-0.1,0.2-0.1,0.5-0.1,0.7c0,0.2,0,0.5,0.1,0.7c0.1,0.2,0.1,0.5,0.2,0.7c0.1,0.2,0.2,0.4,0.4,0.6
		c0.3,0.4,0.7,0.7,1.2,0.9c0.2,0.1,0.5,0.2,0.7,0.2c0.3,0,0.5,0,0.8,0l0.1,0l0.1,0c0.3,0.1,0.5,0.1,0.8,0.1c0.3,0,0.5,0,0.8-0.1
		c0.3-0.1,0.5-0.1,0.8-0.3c0.2-0.1,0.5-0.3,0.7-0.4c0.4-0.3,0.8-0.8,1-1.3c0.1-0.3,0.2-0.5,0.2-0.8C46.1,66.4,46.1,66.1,46,65.8
		L46,65.8z"/>
</g>
<g>
	<path fill="#27348B" d="M56.5,74.9l-13.6,0.4l-13.2,0.3L3.3,76.3l-1.7,0l0-1.8C1.1,62.8,1,51.1,0.7,39.4L0.3,21.8L0,4.3l0-3
		l3.3-0.2c2.2-0.2,4.4-0.3,6.6-0.4c2.2-0.1,4.4-0.2,6.6-0.3c2.2-0.1,4.4-0.1,6.6-0.2c2.2,0,4.4-0.1,6.6-0.1L36.3,0
		c2.2,0,4.4,0,6.6,0l6.6,0l6.6,0.1l4.2,0l-0.1,4.1c-0.1,5.9-0.2,11.7-0.4,17.6c-0.2,5.9-0.5,11.7-0.7,17.6l-0.5,8.8
		c-0.2,2.9-0.4,5.9-0.6,8.8c-0.2,2.9-0.5,5.9-0.7,8.8c-0.3,2.9-0.5,5.9-0.9,8.8L56.5,74.9z M55.7,74.1c-0.3-2.8-0.6-5.6-0.8-8.4
		c-0.2-2.9-0.5-5.9-0.7-8.8c-0.2-2.9-0.4-5.9-0.6-8.8l-0.5-8.8c-0.2-5.9-0.5-11.7-0.7-17.6C52.2,16,52.1,10.1,52,4.3l4.2,4.2
		l-6.6,0.1l-6.6,0c-2.2,0-4.4,0-6.6,0l-6.6-0.1c-2.2,0-4.4-0.1-6.6-0.1c-2.2-0.1-4.4-0.1-6.6-0.2C14.3,8,12.1,8,9.9,7.8
		C7.7,7.7,5.5,7.6,3.3,7.5l3.2-3.2L6.2,21.8L5.8,39.4C5.5,51.1,5.4,62.8,5,74.5l-1.8-1.8l26.4,0.7l13.2,0.3L55.7,74.1z"/>
</g>
<g>
	
		<rect x="29.7" y="24.8" transform="matrix(0.9426 0.3341 -0.3341 0.9426 23.231 -15.3161)" fill-rule="evenodd" clip-rule="evenodd" fill="#FFFFFF" width="52.9" height="70.2"/>
	<path fill="#36A936" d="M69.5,102.3l-12.9-4.2L44,94.1l-25.1-8.2l-1.6-0.5l0.6-1.7c3.6-11.1,7.3-22.2,11-33.4l5.5-16.7l5.6-16.7
		l0.9-2.8l3.1,0.9c2.1,0.6,4.2,1.2,6.4,1.9c2.1,0.6,4.2,1.3,6.3,2c2.1,0.7,4.2,1.3,6.3,2c2.1,0.7,4.2,1.4,6.3,2.1l6.3,2.1
		c2.1,0.7,4.2,1.5,6.2,2.2l6.2,2.2l6.2,2.3l4,1.5L96.7,37c-2,5.5-4.1,11-6.2,16.4c-2.1,5.5-4.3,10.9-6.5,16.3l-3.4,8.1
		c-1.1,2.7-2.3,5.4-3.5,8.1c-1.2,2.7-2.4,5.4-3.6,8c-1.2,2.7-2.5,5.3-3.8,8L69.5,102.3z M69.1,101.3c0.6-2.7,1.3-5.5,2-8.2
		c0.8-2.8,1.5-5.7,2.3-8.5c0.8-2.8,1.6-5.7,2.4-8.5l2.5-8.4c1.7-5.6,3.4-11.2,5.2-16.8c1.8-5.6,3.6-11.1,5.5-16.7l2.5,5.3l-6.3-2.1
		l-6.2-2.2c-2.1-0.7-4.2-1.4-6.2-2.2l-6.2-2.3c-2.1-0.7-4.1-1.6-6.2-2.3c-2.1-0.8-4.1-1.6-6.2-2.4c-2.1-0.8-4.1-1.6-6.1-2.5
		c-2-0.8-4.1-1.7-6.1-2.6L46,19l-6.1,16.5l-6.2,16.4c-4.2,10.9-8.2,21.9-12.5,32.8l-1.1-2.3l24.7,9.5l12.4,4.7L69.1,101.3z"/>
</g>
<g>
	<path fill="#E94E1B" d="M64.7,88c0,0,0,0.1-0.1,0.3c0,0.2-0.1,0.5-0.3,0.8c-0.3,0.7-1.3,1.5-2.6,1.8c-0.7,0.2-1.4,0.2-2.2,0.2
		c-0.2,0-0.4,0-0.6-0.1c-0.2,0-0.4,0-0.6-0.1c-0.5-0.1-0.9-0.4-1.3-0.7c-0.8-0.7-1.1-1.6-1.3-2.6c-0.2-0.9-0.1-1.9,0-2.8
		c0.1-0.3,0-0.4,0.2-0.7c0.1-0.3,0.2-0.6,0.3-0.8c0.3-0.5,0.7-0.9,1.1-1.2c0.9-0.6,2-0.8,2.9-0.9c0.9,0,1.8,0.1,2.6,0.3
		c1,0.3,1.7,1.1,2,1.8c0.3,0.7,0.3,1.4,0.3,2c0,0.6-0.1,1-0.1,1.4C64.8,87.6,64.7,88,64.7,88L64.7,88z M64.5,87.9c0,0,0-0.1,0-0.3
		c0-0.2,0-0.5,0-0.9c0-0.4-0.1-0.8-0.2-1.3c-0.2-0.5-0.4-1-0.8-1.4c-0.4-0.4-0.9-0.6-1.3-0.7c-0.6-0.1-1.4-0.2-2.1-0.1
		c-0.7,0-1.4,0.1-1.9,0.4c-0.3,0.1-0.5,0.3-0.7,0.6c-0.1,0.1-0.2,0.2-0.2,0.4c-0.1,0.1-0.1,0.4-0.2,0.5c-0.2,0.8-0.2,1.6-0.2,2.4
		c0.1,0.8,0.3,1.4,0.7,1.9c0.2,0.2,0.5,0.4,0.8,0.5c0.1,0.1,0.4,0.1,0.5,0.2c0.1,0,0.3,0.1,0.5,0.1c0.7,0.1,1.4,0.2,2,0.2
		c0.6,0,1.2-0.2,1.6-0.4c0.4-0.2,0.8-0.6,0.9-0.9c0.2-0.3,0.3-0.6,0.3-0.8C64.4,88,64.5,87.9,64.5,87.9L64.5,87.9z"/>
</g>
<g>
	<path fill="#B2B2B2" d="M46.1,80.2c0,0,0,0.2-0.1,0.5c-0.1,0.3-0.2,0.8-0.5,1.3c-0.3,0.5-0.7,1.1-1.4,1.7c-0.7,0.5-1.6,0.9-2.6,1.2
		c-1,0.3-2.2,0.4-3.4,0.4l-0.5,0c-0.2,0-0.3,0-0.5-0.1l-0.4-0.1c-0.1,0-0.3,0-0.5-0.1c-0.8-0.2-1.4-0.6-2.1-1.1
		c-0.6-0.5-1.1-1.2-1.4-1.9c-0.3-0.7-0.6-1.5-0.7-2.2c-0.3-1.5-0.2-3-0.1-4.4c0.1-0.6,0.1-0.6,0.2-1.2c0.1-0.2,0.2-0.5,0.2-0.7
		c0.1-0.2,0.2-0.4,0.3-0.6c0.5-0.8,1.1-1.6,1.9-2.1c1.5-1,3.2-1.4,4.6-1.4c0.7,0,1.4,0,2.1,0.1c0.3,0,0.7,0.1,1,0.2l0.2,0l0.1,0
		l0.2,0.1l0.4,0.1c0.4,0.2,0.8,0.3,1.2,0.6c0.3,0.2,0.7,0.4,0.9,0.7l0.4,0.4c0.1,0.2,0.2,0.3,0.3,0.5c0.2,0.3,0.3,0.6,0.5,0.9
		c0.5,1.2,0.5,2.3,0.4,3.2c-0.1,0.9-0.2,1.6-0.3,2.2C46.3,79.6,46.1,80.2,46.1,80.2L46.1,80.2z M45.7,80.2L45.7,80.2
		c0,0,0-0.2,0-0.5c0-0.3,0-0.8,0-1.3c0-0.6-0.2-1.3-0.5-2c-0.3-0.7-0.7-1.5-1.3-2c-0.3-0.2-0.6-0.4-0.9-0.5
		c-0.1-0.1-0.3-0.1-0.5-0.2c-0.2,0-0.2,0-0.4-0.1c-0.9-0.1-2.1-0.2-3.1-0.2c-1,0-2,0.1-2.8,0.5c-0.4,0.2-0.7,0.4-0.9,0.7l-0.2,0.2
		c0,0.1-0.1,0.1-0.1,0.2c-0.1,0.1-0.2,0.7-0.3,0.8c-0.3,1.2-0.4,2.4-0.3,3.5c0,0.6,0.2,1.1,0.3,1.6c0.2,0.5,0.4,0.9,0.7,1.2
		c0.3,0.3,0.7,0.6,1.1,0.8c0.1,0.1,0.2,0.1,0.4,0.1l0.4,0.1c0.2,0,0.5,0.1,0.7,0.2c1.1,0.2,2.1,0.4,3,0.3c0.9,0,1.8-0.2,2.5-0.5
		c0.7-0.4,1.2-0.9,1.4-1.4c0.2-0.2,0.2-0.5,0.3-0.7c0.1-0.2,0.1-0.4,0.1-0.5C45.7,80.4,45.7,80.2,45.7,80.2z"/>
</g>
<g>
	<path fill="#FCD138" d="M60.7,82.1c0,0-0.1,0.3-0.2,0.7c-0.1,0.2-0.1,0.5-0.3,0.8c-0.1,0.3-0.3,0.7-0.5,1.1
		c-0.4,0.8-1.1,1.7-2.2,2.5c-1,0.8-2.4,1.4-4,1.8c-1.6,0.4-3.3,0.6-5.1,0.5c-0.2,0-0.5,0-0.7,0l-0.3,0l-0.2,0l-0.3,0l-0.7-0.1
		L46,89.3c-0.1,0-0.3-0.1-0.4-0.1l-0.9-0.3c-0.3-0.1-0.5-0.2-0.8-0.4c-0.5-0.2-1-0.6-1.5-1c-0.9-0.8-1.6-1.8-2.2-2.9
		c-0.5-1.1-0.8-2.2-1.1-3.3c-0.2-1.1-0.3-2.2-0.3-3.3c0-0.6,0-1.1,0-1.7c0-0.3,0-0.6,0.1-0.8l0-0.4l0-0.2l0-0.1l0-0.1l0,0
		c0-0.1,0,0.1,0-0.2l0.1-0.7l0.1-0.4c0-0.1,0.1-0.3,0.1-0.5c0.1-0.4,0.2-0.7,0.4-1.1c0.1-0.3,0.3-0.6,0.5-0.9
		c0.7-1.2,1.7-2.4,2.8-3.1c2.3-1.6,4.8-2.1,6.9-2.2c1.1,0,2.2,0,3.2,0.2c0.5,0.1,1,0.2,1.5,0.3l0.4,0.1l0.2,0l0.3,0.1l0.6,0.2
		c0.6,0.2,1.3,0.5,1.8,0.9c0.5,0.4,1,0.7,1.4,1.1c0.2,0.2,0.4,0.4,0.6,0.6c0.2,0.2,0.3,0.5,0.5,0.7c0.3,0.4,0.5,0.9,0.7,1.4
		c0.7,1.8,0.7,3.5,0.6,4.8c-0.1,1.3-0.3,2.4-0.4,3.3C60.9,81,60.7,82,60.7,82.1L60.7,82.1z M60.1,81.9L60.1,81.9c0,0,0-0.2,0.1-0.7
		c0-0.5,0-1.2,0-2c-0.1-0.9-0.3-1.9-0.7-3c-0.4-1.1-1.1-2.2-2-2.9c-0.2-0.2-0.4-0.4-0.7-0.5l-0.3-0.2l-0.4-0.1
		c-0.2-0.1-0.5-0.1-0.7-0.2c-0.2-0.1-0.4,0-0.6-0.1L54.2,72l-0.3,0l-0.2,0c0.1,0-0.2,0,0.2,0l0,0l0,0l-0.1,0c-0.4,0-0.8-0.1-1.2-0.1
		c-0.8,0-1.6-0.1-2.4,0c-1.6,0-3.1,0.2-4.2,0.7c-0.6,0.2-1,0.6-1.4,1.1L44.3,74c0,0.1-0.1,0.2-0.2,0.3c0,0.1-0.1,0.1-0.1,0.2
		l-0.1,0.4l-0.2,0.7l-0.1,0.5c0,0.2-0.1,0.4-0.1,0.7c-0.1,0.5-0.1,0.9-0.2,1.3c-0.1,0.9-0.1,1.8,0,2.6c0.1,0.8,0.2,1.6,0.5,2.4
		c0.3,0.7,0.6,1.3,1,1.8c0.5,0.5,1.1,0.9,1.6,1.2c0.1,0,0.1,0.1,0.2,0.1l0.3,0.1l0.6,0.2l0.1,0l0,0l0,0c0,0-0.2,0-0.1,0l0.2,0
		l0.3,0.1c0.2,0,0.4,0.1,0.6,0.1c1.6,0.3,3.2,0.5,4.6,0.5c1.4,0,2.7-0.3,3.8-0.8c1-0.5,1.8-1.3,2.2-2c0.2-0.4,0.4-0.7,0.5-1
		c0.1-0.3,0.2-0.6,0.2-0.8C60,82.2,60.1,82,60.1,81.9z"/>
</g>
<g>
	<path d="M128.8,2.2V10h-6v30.9h-10.1V10h-5.9V2.2H128.8z"/>
	<path d="M143.9,24.7h-2.7v16.2h-10.1V2.2h10.1v13.9h2.7c0-3.4,0.2-5.8,0.5-7.3c0.3-1.5,1-2.7,2-3.7c1-1,2.3-1.7,3.8-2.1
		c1.5-0.4,3.3-0.6,5.3-0.6c2.1,0,4,0.2,5.5,0.7c1.5,0.5,2.8,1.2,3.8,2.3c1,1.1,1.6,2.5,1.9,4.2c0.3,1.7,0.4,4.6,0.4,8.8v6.6
		c0,4.2-0.1,7.1-0.4,8.8c-0.3,1.7-0.9,3.1-1.9,4.2c-1,1.1-2.3,1.9-3.8,2.4c-1.6,0.5-3.4,0.7-5.5,0.7c-2,0-3.7-0.2-5.2-0.6
		c-1.5-0.4-2.7-1.1-3.7-2.1c-1-0.9-1.6-2-2-3c-0.3-1.1-0.5-2.4-0.6-4c-0.1-1.6-0.1-3.7-0.1-6.4V24.7z M157.2,31.4V12.2
		c0-1.6-0.1-2.7-0.2-3.3c-0.2-0.6-0.6-0.9-1.3-0.9c-0.6,0-1,0.2-1.2,0.7c-0.2,0.5-0.4,1.7-0.4,3.5v19.9c0,1,0.1,1.8,0.3,2.3
		c0.2,0.5,0.6,0.8,1.2,0.8c0.6,0,1-0.2,1.2-0.7C157,34.1,157.2,33,157.2,31.4z"/>
	<path d="M202,2.2v38.7h-8.8l0-26.1l-3.5,26.1h-6.2l-3.7-25.5l0,25.5h-8.8V2.2h13c0.4,2.3,0.8,5.1,1.2,8.2l1.4,9.8l2.3-18.1H202z"/>
	<path d="M206,2.2h16.8V10h-6.7v7.3h6.3v7.4h-6.3v8.5h7.4v7.7H206V2.2z"/>
	<path d="M249.5,2.2v38.7h-10.1V24.7h-3v16.2h-10.1V2.2h10.1v13.8h3V2.2H249.5z"/>
	<path d="M277,19.1h-10.1v-6.7c0-2-0.1-3.2-0.3-3.7c-0.2-0.5-0.7-0.7-1.4-0.7c-0.8,0-1.4,0.3-1.6,0.9c-0.2,0.6-0.3,1.9-0.3,3.8v18
		c0,1.9,0.1,3.1,0.3,3.7c0.2,0.6,0.7,0.9,1.5,0.9c0.7,0,1.2-0.3,1.5-0.9c0.2-0.6,0.3-1.9,0.3-4v-4.9H277v1.5c0,4-0.3,6.8-0.8,8.5
		c-0.6,1.7-1.8,3.1-3.8,4.4c-1.9,1.3-4.3,1.9-7.2,1.9c-2.9,0-5.4-0.5-7.3-1.6c-1.9-1.1-3.2-2.5-3.8-4.4c-0.6-1.9-0.9-4.7-0.9-8.5
		V15.9c0-2.8,0.1-4.9,0.3-6.3c0.2-1.4,0.8-2.7,1.7-4c0.9-1.3,2.3-2.3,3.9-3c1.7-0.7,3.6-1.1,5.8-1.1c3,0,5.4,0.6,7.3,1.7
		c1.9,1.1,3.2,2.6,3.8,4.3c0.6,1.7,0.9,4.4,0.9,8V19.1z"/>
	<path d="M280.6,2.2h10.1l0,16.3c1.9,0,2.9-1.1,2.9-3.2l0.2-7.6c0.1-2.8,0.6-4.7,1.6-5.6h9.3c-0.9,0.9-1.4,2.9-1.3,5.8l0.1,6.6
		c0,4-2.2,6.3-6.8,6.9c4.6,0.6,6.8,2.9,6.8,7l-0.1,6.2c0,2.9,0.4,5,1.3,6.3h-9.3c-1.1-1-1.6-2.9-1.6-5.6v-7.5c0-1-0.3-1.7-0.9-2.3
		c-0.6-0.6-1.3-0.9-2.3-0.9l0,16.4h-10.1V2.2z"/>
	<path d="M324.2,2.2l5.8,38.7h-10.3l-0.5-7h-3.6l-0.6,7h-10.4l5.1-38.7H324.2z M318.9,27.1c-0.5-4.4-1-9.8-1.5-16.2
		c-1,7.4-1.7,12.8-1.9,16.2H318.9z"/>
	<path d="M354.1,40.9H344V23.5c-1.3,0-2.1,0.2-2.5,0.6c-0.4,0.4-0.6,1.3-0.6,2.8v14h-9.3V29.4c0-2,0.1-3.4,0.3-4.5
		c0.2-1,0.7-1.9,1.5-2.5c0.8-0.7,2-1.2,3.7-1.7c-2.3-0.2-3.8-0.9-4.5-2c-0.7-1.1-1-3.1-1-6c0-2.6,0.3-4.6,1-6.1
		c0.6-1.5,1.6-2.5,2.8-3.1c1.2-0.6,2.6-1,4.2-1.2c1.6-0.1,4-0.2,7.4-0.2h7.1V40.9z M344,17.4V8.9h-0.5c-0.8,0-1.5,0.2-1.9,0.6
		c-0.4,0.4-0.6,1.2-0.6,2.4V14c0,1.4,0.2,2.4,0.5,2.8C341.9,17.2,342.7,17.4,344,17.4z"/>
	<path d="M389.6,24.9c0,3.9-0.1,6.6-0.3,8.3c-0.2,1.6-0.8,3.1-1.7,4.4c-1,1.3-2.3,2.4-3.9,3.1c-1.6,0.7-3.6,1.1-5.7,1.1
		c-2.1,0-3.9-0.3-5.6-1c-1.6-0.7-3-1.7-4-3c-1-1.4-1.6-2.8-1.8-4.4c-0.2-1.6-0.3-4.4-0.3-8.4v-6.6c0-3.9,0.1-6.6,0.3-8.3
		c0.2-1.6,0.8-3.1,1.7-4.4c1-1.3,2.3-2.4,3.9-3.1c1.6-0.7,3.6-1.1,5.7-1.1c2.1,0,3.9,0.3,5.6,1c1.7,0.7,3,1.7,4,3
		c1,1.4,1.6,2.8,1.8,4.4c0.2,1.6,0.3,4.4,0.3,8.4V24.9z M379.5,12.2c0-1.8-0.1-3-0.3-3.5C379,8.2,378.6,8,378,8
		c-0.5,0-0.9,0.2-1.2,0.6c-0.3,0.4-0.4,1.6-0.4,3.6v18.1c0,2.2,0.1,3.6,0.3,4.2c0.2,0.5,0.6,0.8,1.3,0.8c0.7,0,1.1-0.3,1.3-0.9
		c0.2-0.6,0.3-2.1,0.3-4.3V12.2z"/>
	<path d="M416.8,31.9c0,2.9-0.4,5-1.1,6.2c-0.7,1.3-1.9,2-3.4,2.4c-1.5,0.3-3.9,0.5-7.3,0.5h-11.6V2.2h19.7v6.7h-9.6v6.5h1.6
		c3.1,0,5.5,0.2,7,0.5c1.6,0.4,2.8,1.2,3.6,2.4c0.8,1.2,1.2,3.2,1.2,5.9V31.9z M406.7,30.7v-5.6c0-1.6-0.2-2.6-0.5-3
		c-0.3-0.4-1.3-0.5-2.8-0.6v12.7c1.3,0,2.1-0.2,2.6-0.5C406.5,33.4,406.7,32.4,406.7,30.7z"/>
	<path d="M444.9,40.9h-10.1V10h-2.9v21.9c0,2.9-0.4,5-1.1,6.2c-0.7,1.3-1.9,2-3.4,2.4c-1.5,0.3-3.9,0.5-7.2,0.5h-1.6v-6.7
		c1.2,0,2.1-0.2,2.5-0.5c0.5-0.3,0.7-1.3,0.7-3.1V2.2h23.1V40.9z"/>
	<path d="M466.3,2.2l5.8,38.7h-10.3l-0.5-7h-3.6l-0.6,7h-10.4l5.1-38.7H466.3z M461,27.1c-0.5-4.4-1-9.8-1.5-16.2
		c-1,7.4-1.7,12.8-1.9,16.2H461z"/>
	<path d="M497.2,19.1h-10.1v-6.7c0-2-0.1-3.2-0.3-3.7c-0.2-0.5-0.7-0.7-1.4-0.7c-0.8,0-1.4,0.3-1.6,0.9c-0.2,0.6-0.3,1.9-0.3,3.8v18
		c0,1.9,0.1,3.1,0.3,3.7c0.2,0.6,0.7,0.9,1.5,0.9c0.7,0,1.2-0.3,1.5-0.9c0.2-0.6,0.3-1.9,0.3-4v-4.9h10.1v1.5c0,4-0.3,6.8-0.8,8.5
		c-0.6,1.7-1.8,3.1-3.8,4.4c-1.9,1.3-4.3,1.9-7.2,1.9c-2.9,0-5.4-0.5-7.3-1.6c-1.9-1.1-3.2-2.5-3.8-4.4c-0.6-1.9-0.9-4.7-0.9-8.5
		V15.9c0-2.8,0.1-4.9,0.3-6.3c0.2-1.4,0.8-2.7,1.7-4c0.9-1.3,2.3-2.3,3.9-3c1.7-0.7,3.6-1.1,5.8-1.1c3,0,5.4,0.6,7.3,1.7
		c1.9,1.1,3.2,2.6,3.8,4.3c0.6,1.7,0.9,4.4,0.9,8V19.1z"/>
	<path d="M521.1,2.2V10h-6v30.9h-10.1V10h-5.9V2.2H521.1z"/>
	<path d="M546.8,31.9c0,2.9-0.4,5-1.1,6.2c-0.7,1.3-1.9,2-3.4,2.4c-1.5,0.3-3.9,0.5-7.3,0.5h-11.6V2.2h10.1v13.3h1.6
		c3.1,0,5.5,0.2,7,0.5c1.6,0.4,2.8,1.2,3.6,2.4c0.8,1.2,1.2,3.2,1.2,5.9V31.9z M536.8,30.7v-5.6c0-1.6-0.2-2.6-0.5-3
		c-0.3-0.4-1.3-0.5-2.8-0.6v12.7c1.3,0,2.1-0.2,2.6-0.5C536.5,33.4,536.8,32.4,536.8,30.7z"/>
	<path d="M556.7,22.1h25v6h-25V22.1z"/>
</g>
<g>
	<path d="M125.4,75.9c1.4,0.5,2.4,1.2,3.1,2.3c0.7,1.1,1,3.6,1,7.5c0,2.9-0.3,5.2-1,6.8c-0.7,1.6-1.8,2.8-3.4,3.7
		c-1.6,0.8-3.7,1.3-6.3,1.3c-2.9,0-5.2-0.5-6.8-1.5c-1.7-1-2.7-2.2-3.3-3.6c-0.5-1.4-0.8-3.9-0.8-7.4v-2.9h9.2v6
		c0,1.6,0.1,2.6,0.3,3c0.2,0.4,0.6,0.6,1.3,0.6c0.7,0,1.2-0.3,1.4-0.8c0.2-0.5,0.3-2,0.3-4.3v-2.5c0-1.4-0.2-2.4-0.5-3.1
		c-0.3-0.7-0.8-1.1-1.4-1.3c-0.6-0.2-1.8-0.3-3.6-0.3v-5.3c2.2,0,3.5-0.1,4-0.2c0.5-0.2,0.9-0.5,1.1-1.1c0.2-0.6,0.3-1.4,0.3-2.6v-2
		c0-1.3-0.1-2.1-0.4-2.5c-0.3-0.4-0.7-0.6-1.2-0.6c-0.6,0-1.1,0.2-1.3,0.7c-0.2,0.4-0.4,1.3-0.4,2.8v3h-9.2v-3.1
		c0-3.5,0.8-5.9,2.4-7.1c1.6-1.2,4.2-1.8,7.6-1.8c4.4,0,7.3,0.9,8.9,2.6c1.6,1.7,2.3,4.1,2.3,7.1c0,2.1-0.3,3.5-0.8,4.5
		C127.8,74.3,126.8,75.1,125.4,75.9z"/>
	<path d="M160.4,103h-6.6v-6.3h-15.4v6.3h-6.6V89h1.9c1-3,1.9-7,2.5-11.9c0.7-4.9,1-10.3,1-16.1v-1.1h21.2V89h2V103z M148.9,89V67.2
		h-2.8v0.3c0,7-0.8,14.2-2.3,21.5H148.9z"/>
	<path d="M163.4,60h15.9v7.4H173v7h6v7h-6v8.1h7v7.4h-16.6V60z"/>
	<path d="M205,76h-9.6v-6.4c0-1.9-0.1-3-0.3-3.5c-0.2-0.5-0.7-0.7-1.3-0.7c-0.8,0-1.3,0.3-1.5,0.8c-0.2,0.6-0.3,1.8-0.3,3.6v17.1
		c0,1.8,0.1,3,0.3,3.5c0.2,0.5,0.7,0.8,1.4,0.8c0.7,0,1.2-0.3,1.4-0.8c0.2-0.5,0.3-1.8,0.3-3.8V82h9.6v1.4c0,3.8-0.3,6.5-0.8,8.1
		c-0.5,1.6-1.7,3-3.6,4.2c-1.8,1.2-4.1,1.8-6.8,1.8c-2.8,0-5.1-0.5-6.9-1.5c-1.8-1-3-2.4-3.6-4.2c-0.6-1.8-0.9-4.5-0.9-8.1V72.9
		c0-2.6,0.1-4.6,0.3-6c0.2-1.3,0.7-2.6,1.6-3.8c0.9-1.2,2.1-2.2,3.7-2.9c1.6-0.7,3.4-1.1,5.5-1.1c2.8,0,5.1,0.5,7,1.6
		c1.8,1.1,3,2.4,3.6,4.1c0.6,1.6,0.9,4.2,0.9,7.6V76z"/>
	<path d="M230.7,88.1c0,2.7-0.4,4.7-1.1,5.9c-0.7,1.2-1.8,1.9-3.2,2.2c-1.4,0.3-3.8,0.5-6.9,0.5h-11V59.9h9.6v12.6h1.5
		c3,0,5.2,0.2,6.7,0.5c1.5,0.4,2.6,1.1,3.4,2.3c0.7,1.2,1.1,3.1,1.1,5.6V88.1z M221.1,87v-5.3c0-1.5-0.2-2.5-0.5-2.8
		c-0.3-0.3-1.2-0.5-2.6-0.6v12.1c1.2,0,2-0.2,2.5-0.5C220.9,89.6,221.1,88.6,221.1,87z"/>
	<path d="M261.2,59.9l-2.6,24.4c-0.4,3.8-0.8,6.5-1.3,8.1c-0.5,1.6-1.4,2.7-2.7,3.3c-1.3,0.7-3.6,1-6.6,1h-5.6V92h0.6
		c1.3,0,2-0.1,2.3-0.3c0.3-0.2,0.4-0.5,0.4-0.9c0,0-0.2-1.1-0.5-3.1l-5-27.7h8.3l3,22.9l1.5-22.9H261.2z"/>
	<path d="M276.2,82.6c-0.8,0.8-1.8,1.5-3,2c-1.2,0.5-2.5,0.7-3.8,0.7c-2.3,0-3.9-0.6-5-1.9c-1-1.3-1.6-3.2-1.6-5.9V59.9h9.6v16.5
		c0,1.4,0.1,2.4,0.4,3c0.2,0.5,0.7,0.8,1.2,0.8c1.4,0,2.1-1.2,2.1-3.7V59.9h9.6v36.8h-9.6V82.6z"/>
	<path d="M306.1,60l5.5,36.7h-9.8l-0.5-6.6h-3.4l-0.6,6.6h-9.9l4.9-36.7H306.1z M301,83.6c-0.5-4.2-1-9.3-1.5-15.4
		c-1,7-1.6,12.2-1.8,15.4H301z"/>
	<path d="M332.4,60v7.4h-5.7v29.4h-9.6V67.3h-5.7V60H332.4z"/>
	<path d="M364.8,96.7h-9.6V67.3h-2.8v29.4h-9.6V59.9h22V96.7z"/>
	<path d="M390.4,81.5c0,3.7-0.1,6.3-0.3,7.8c-0.2,1.5-0.7,2.9-1.6,4.2c-0.9,1.3-2.2,2.2-3.7,2.9c-1.6,0.7-3.4,1-5.4,1
		c-2,0-3.7-0.3-5.3-1c-1.6-0.6-2.8-1.6-3.8-2.9c-1-1.3-1.5-2.7-1.7-4.2c-0.2-1.5-0.3-4.2-0.3-7.9v-6.3c0-3.7,0.1-6.3,0.3-7.8
		c0.2-1.5,0.7-2.9,1.6-4.2c0.9-1.3,2.2-2.2,3.7-2.9c1.6-0.7,3.4-1,5.4-1c2,0,3.7,0.3,5.3,1c1.6,0.6,2.8,1.6,3.8,2.9
		c1,1.3,1.5,2.7,1.7,4.2c0.2,1.5,0.3,4.2,0.3,7.9V81.5z M380.9,69.4c0-1.7-0.1-2.8-0.3-3.3c-0.2-0.5-0.6-0.7-1.2-0.7
		c-0.5,0-0.9,0.2-1.1,0.6c-0.3,0.4-0.4,1.5-0.4,3.4v17.2c0,2.1,0.1,3.5,0.3,3.9c0.2,0.5,0.6,0.7,1.2,0.7c0.7,0,1.1-0.3,1.2-0.9
		c0.2-0.6,0.3-1.9,0.3-4.1V69.4z"/>
	<path d="M416.3,88.1c0,2.7-0.4,4.7-1.1,5.9c-0.7,1.2-1.8,1.9-3.2,2.2c-1.4,0.3-3.7,0.5-6.9,0.5H394V59.9h18.7v6.4h-9.1v6.2h1.5
		c3,0,5.2,0.2,6.7,0.5c1.5,0.4,2.6,1.1,3.4,2.3c0.7,1.2,1.1,3.1,1.1,5.6V88.1z M406.7,87v-5.3c0-1.5-0.2-2.5-0.5-2.8
		c-0.3-0.3-1.2-0.5-2.6-0.6v12.1c1.2,0,2-0.2,2.5-0.5C406.5,89.6,406.7,88.6,406.7,87z"/>
	<path d="M419.6,60h15.9v7.4h-6.4v7h6v7h-6v8.1h7v7.4h-16.6V60z"/>
	<path d="M449.5,80.9c-2,0-3,0.9-3,2.6v9.7c0,1.3-0.1,2.2-0.4,2.7c-0.3,0.5-0.5,0.8-0.6,0.8h-7.9c0.7-1,1-2.4,1-4.4v-8.3
		c0-1.8,0.5-3.1,1.5-4c1-0.9,2.7-1.6,5-2v0c-4.3-0.2-6.4-2.2-6.4-6v-7.8c0-1.9-0.3-3.4-1-4.3h7.9c0.2,0.1,0.5,0.4,0.7,1
		c0.2,0.6,0.3,1.4,0.3,2.5v9.1c0,1.7,1,2.5,3,2.6V59.9h9.6v15.3c2-0.1,3-0.9,3-2.6v-9.1c0-1.3,0.1-2.2,0.4-2.7
		c0.3-0.5,0.5-0.8,0.6-0.8h7.9c-0.7,1-1,2.4-1,4.3V72c0,3.8-2.2,5.8-6.5,6v0c2.4,0.4,4.1,1.1,5,2c1,0.9,1.5,2.3,1.5,4v8.3
		c0,1.9,0.3,3.4,1,4.4h-7.9c-0.2-0.1-0.5-0.4-0.7-1c-0.2-0.6-0.3-1.4-0.3-2.5v-9.7c0-1.7-1-2.5-3.1-2.6v15.8h-9.6V80.9z"/>
	<path d="M500.7,103h-6.6v-6.3h-15.4v6.3h-6.6V89h2c1-3,1.9-7,2.5-11.9c0.7-4.9,1-10.3,1-16.1v-1.1h21.2V89h2V103z M489.1,89V67.2
		h-2.8v0.3c0,7-0.8,14.2-2.3,21.5H489.1z"/>
	<path d="M520.2,60l5.5,36.7h-9.8l-0.5-6.6h-3.4l-0.6,6.6h-9.9l4.9-36.7H520.2z M515.1,83.6c-0.5-4.2-1-9.3-1.5-15.4
		c-1,7-1.6,12.2-1.8,15.4H515.1z"/>
	<path d="M546.5,60v7.4h-5.7v29.4h-9.6V67.3h-5.7V60H546.5z"/>
	<path d="M570.9,88.1c0,2.7-0.4,4.7-1.1,5.9c-0.7,1.2-1.8,1.9-3.2,2.2c-1.4,0.3-3.7,0.5-6.9,0.5h-11.1V59.9h9.6v12.6h1.5
		c2.9,0,5.2,0.2,6.7,0.5c1.5,0.4,2.6,1.1,3.4,2.3c0.8,1.2,1.1,3.1,1.1,5.6V88.1z M561.4,87v-5.3c0-1.5-0.2-2.5-0.5-2.8
		c-0.3-0.3-1.2-0.5-2.6-0.6v12.1c1.2,0,2-0.2,2.5-0.5C561.1,89.6,561.4,88.6,561.4,87z"/>
	<path d="M582.9,73.6l-1.1,17.6h-5l-1.1-17.6H582.9z M582.4,92.3V97h-6.1v-4.7H582.4z"/>
</g>
<circle fill="#36A936" cx="62.7" cy="34.3" r="4.4"/>
<path fill="#36A936" d="M77.1,35.9c0,0-10.7,10.6-18.6,6.6c-4.8-2.4-4.9-8.8-4.9-8.8s-2.3,4.3-3,11c-0.9,8.9,6,21.2,6,21.2
	S54,54.5,56.9,54.4c2.9-0.1,1.9,12,1.9,12s2.4-9.2,5.7-14.7C69.6,43.2,77.1,35.9,77.1,35.9z"/>
<g>
	<path d="M1.7,125.3h1.6l0.2,1.6c0.2-0.3,1.3-1.8,3.7-1.8c3.1,0,5.1,2.3,5.1,6.5c0,4.3-1.9,7.2-5.4,7.2c-2.4,0-3.4-1.3-3.4-1.3h0
		v7.6l-1.9,0.1V125.3z M3.6,128.1v8.2c0.1,0.2,1,1.2,2.8,1.2c2.8,0,4-2,4-5.9c0-3.8-1.4-5.2-3.7-5.2C4.4,126.3,3.6,128.1,3.6,128.1z
		"/>
	<path d="M24.3,136.5c0,0-1.2,2.2-4.4,2.2c-3.4,0-5.6-2.1-5.6-6.6c0-4.5,2.1-7.1,5.4-7.1c3,0,4.7,2.2,4.7,6c0,0.8-0.1,1.2-0.1,1.2
		h-8c0,3.7,1.4,5.3,3.8,5.3c2.3,0,3.4-1.7,3.4-1.7L24.3,136.5z M16.3,131.1h6.3c0,0,0-0.3,0-0.5c0-3-1-4.5-3-4.5
		C17.6,126.2,16.5,127.8,16.3,131.1z"/>
	<path d="M29.1,126.5v11.9h-1.9v-13.2H34v1.2H29.1z"/>
	<path d="M46.5,125.3v13.2h-1.9v-10.8L38,138.5h-1.5v-13.2h1.9v10.5l6.4-10.5H46.5z"/>
	<path d="M55.1,138.7c-3.7,0-5.6-2.6-5.6-6.9c0-4.3,1.9-6.9,5.6-6.9s5.6,2.6,5.6,6.9C60.7,136.2,58.7,138.7,55.1,138.7z M51.5,131.9
		c0,3.8,1.1,5.7,3.6,5.7c2.5,0,3.6-1.9,3.6-5.7c0-3.8-1.1-5.7-3.6-5.7C52.6,126.2,51.5,128.1,51.5,131.9z"/>
	<path d="M63.7,125.3h1.9v5.8h5.9v-5.8h1.9v13.2h-1.9v-6.2h-5.9v6.2h-1.9V125.3z"/>
	<path d="M77.5,126.2c0,0,1.8-1.2,3.7-1.2c2.9,0,4.4,1,4.4,4.3v6.5c0,1.6,0.4,1.8,0.7,1.8c0.4,0,1-0.2,1-0.2l0.1,0.9
		c0,0-1.3,0.5-2.1,0.5c-0.9,0-1.4-0.4-1.5-2h0c0,0-0.9,2-3.7,2c-2.3,0-3.8-1.2-3.8-3.2c0-3.6,4.7-4.4,7.5-4.7v-1.4
		c0-2.5-0.8-3.2-2.7-3.2c-1.5,0-3.2,1.1-3.2,1.1L77.5,126.2z M83.7,131.8c-2.6,0.3-5.5,1-5.5,3.5c0,1.6,1,2.3,2.5,2.3
		c2.2,0,3-1.9,3-1.9V131.8z"/>
	<path d="M98.6,138.5h-1.9v-11.9H93c-0.1,7.8-1.6,12.2-4.5,12.2c-0.1,0-0.2,0-0.4,0l0.1-1.3h0.1c2.1,0,3.3-4.1,3.3-12.1h7V138.5z"/>
	<path d="M104.5,130.3h2.1c3,0,5.2,1,5.2,4s-1.8,4.2-5.1,4.2h-4v-13.2h1.9V130.3z M104.5,131.3v6.1h2.1c2,0,3.2-0.8,3.2-3.2
		c0-2.3-1.6-2.9-3.2-2.9H104.5z"/>
	<path d="M114.5,125.3h1.9v5.8h5.9v-5.8h1.9v13.2h-1.9v-6.2h-5.9v6.2h-1.9V125.3z"/>
	<path d="M128.3,126.2c0,0,1.8-1.2,3.7-1.2c2.9,0,4.4,1,4.4,4.3v6.5c0,1.6,0.4,1.8,0.7,1.8c0.4,0,1-0.2,1-0.2l0.1,0.9
		c0,0-1.3,0.5-2.1,0.5c-0.9,0-1.4-0.4-1.5-2h0c0,0-0.9,2-3.7,2c-2.3,0-3.8-1.2-3.8-3.2c0-3.6,4.7-4.4,7.5-4.7v-1.4
		c0-2.5-0.8-3.2-2.7-3.2c-1.5,0-3.2,1.1-3.2,1.1L128.3,126.2z M134.5,131.8c-2.6,0.3-5.5,1-5.5,3.5c0,1.6,1,2.3,2.5,2.3
		c2.2,0,3-1.9,3-1.9V131.8z"/>
	<path d="M148.9,138.5H147V133h-2.6l-2.5,5.4h-2l2.8-5.8c-1.6-0.5-2.9-1.7-2.9-3.5c0-2.6,1.8-3.9,5-3.9h4.1V138.5z M144.9,132
		L144.9,132h2.1v-5.6H145c-2.1,0-3.2,0.9-3.2,2.9C141.7,131.1,143.1,132,144.9,132z"/>
	<path d="M169.7,142.4h-1.1l-0.3-4h-9.5l-0.3,4h-1.1l-0.1-5.2h1.7c1.3-3.1,1.6-6.7,1.6-12h7.6v12h1.8L169.7,142.4z M160.3,137.3h5.8
		v-10.8h-4.4C161.7,130.9,161.4,134.3,160.3,137.3z"/>
	<path d="M181.3,136.5c0,0-1.2,2.2-4.4,2.2c-3.4,0-5.6-2.1-5.6-6.6c0-4.5,2.1-7.1,5.4-7.1c3,0,4.7,2.2,4.7,6c0,0.8-0.1,1.2-0.1,1.2
		h-8c0,3.7,1.4,5.3,3.8,5.3c2.3,0,3.4-1.7,3.4-1.7L181.3,136.5z M173.3,131.1h6.3c0,0,0-0.3,0-0.5c0-3-1-4.5-3-4.5
		C174.6,126.2,173.5,127.8,173.3,131.1z"/>
	<path d="M188.6,126.5v11.9h-1.9v-11.9h-4v-1.2h9.9l0,1.2H188.6z"/>
	<path d="M200,126.2c-2.7,0-3.9,1.6-3.9,5.8c0,4.2,1.6,5.6,3.8,5.6c2.3,0,3.3-1.6,3.3-1.6l0.8,0.6c0,0-1.1,2.2-4.3,2.2
		c-3.6,0-5.7-2.2-5.7-6.7c0-4.5,2-7,5.7-7c2.1,0,3.7,1.1,3.7,1.1l-0.2,1.1C203.2,127.2,201.7,126.2,200,126.2z"/>
	<path d="M206.2,125.3h1.9v6l1.6-0.9l3.8-5.1h1.3l-3.9,5.4l4.7,7.8h-2.2l-3.9-6.6l-1.5,0.7v5.9h-1.9V125.3z"/>
	<path d="M222.8,138.7c-3.7,0-5.6-2.6-5.6-6.9c0-4.3,1.9-6.9,5.6-6.9s5.6,2.6,5.6,6.9C228.5,136.2,226.4,138.7,222.8,138.7z
		 M219.3,131.9c0,3.8,1.1,5.7,3.6,5.7c2.5,0,3.6-1.9,3.6-5.7c0-3.8-1.1-5.7-3.6-5.7C220.3,126.2,219.3,128.1,219.3,131.9z"/>
	<path d="M236.4,131.8h-6v-1.2h6V131.8z"/>
	<path d="M254.1,131.9c0,4.3-1.7,6.9-5.5,6.9c-3.4,0-5.1-2.3-5.2-6.5h-2.2v6.2h-1.9v-13.2h1.9v5.8h2.2c0.2-3.9,1.9-6.1,5.2-6.1
		C252.4,125,254.1,127.6,254.1,131.9z M245.3,131.9c0,3.7,0.9,5.7,3.4,5.7c2.6,0,3.5-2.1,3.5-5.7c0-3.7-0.9-5.7-3.5-5.7
		C246.1,126.2,245.3,128.1,245.3,131.9z"/>
	<path d="M257.1,125.3h1.9v5.8h5.9v-5.8h1.9v13.2h-1.9v-6.2H259v6.2h-1.9V125.3z"/>
	<path d="M275.3,138.7c-3.7,0-5.6-2.6-5.6-6.9c0-4.3,1.9-6.9,5.6-6.9s5.6,2.6,5.6,6.9C281,136.2,278.9,138.7,275.3,138.7z
		 M271.8,131.9c0,3.8,1.1,5.7,3.6,5.7c2.5,0,3.6-1.9,3.6-5.7c0-3.8-1.1-5.7-3.6-5.7C272.8,126.2,271.8,128.1,271.8,131.9z"/>
	<path d="M298.9,138.5h-15v-13.2h1.9v11.9h4.6v-11.9h1.9v11.9h4.6v-11.9h1.9V138.5z"/>
	<path d="M311.9,136.5c0,0-1.2,2.2-4.4,2.2c-3.4,0-5.6-2.1-5.6-6.6c0-4.5,2.1-7.1,5.4-7.1c3,0,4.7,2.2,4.7,6c0,0.8-0.1,1.2-0.1,1.2
		h-8c0,3.7,1.4,5.3,3.9,5.3c2.3,0,3.4-1.7,3.4-1.7L311.9,136.5z M303.9,131.1h6.3c0,0,0-0.3,0-0.5c0-3-1-4.5-3-4.5
		C305.2,126.2,304.1,127.8,303.9,131.1z"/>
	<path d="M319.8,126.2c-2.7,0-3.9,1.6-3.9,5.8c0,4.2,1.6,5.6,3.8,5.6c2.3,0,3.3-1.6,3.3-1.6l0.8,0.6c0,0-1.1,2.2-4.3,2.2
		c-3.6,0-5.7-2.2-5.7-6.7c0-4.5,2-7,5.7-7c2.1,0,3.7,1.1,3.7,1.1l-0.2,1.1C323,127.2,321.5,126.2,319.8,126.2z"/>
	<path d="M326,125.3h1.9v6l1.6-0.9l3.8-5.1h1.3l-3.9,5.4l4.7,7.8h-2.2l-3.9-6.6l-1.5,0.7v5.9H326V125.3z"/>
	<path d="M338.2,126.2c0,0,1.8-1.2,3.7-1.2c2.9,0,4.4,1,4.4,4.3v6.5c0,1.6,0.4,1.8,0.7,1.8c0.4,0,1-0.2,1-0.2l0.1,0.9
		c0,0-1.3,0.5-2.1,0.5c-0.9,0-1.4-0.4-1.5-2h0c0,0-0.9,2-3.7,2c-2.3,0-3.8-1.2-3.8-3.2c0-3.6,4.7-4.4,7.5-4.7v-1.4
		c0-2.5-0.8-3.2-2.7-3.2c-1.5,0-3.2,1.1-3.2,1.1L338.2,126.2z M344.4,131.8c-2.6,0.3-5.5,1-5.5,3.5c0,1.6,1,2.3,2.5,2.3
		c2.2,0,3-1.9,3-1.9V131.8z"/>
	<path d="M358.8,138.5h-1.9V133h-2.6l-2.5,5.4h-2l2.8-5.8c-1.6-0.5-2.9-1.7-2.9-3.5c0-2.6,1.8-3.9,5-3.9h4.1V138.5z M354.8,132
		L354.8,132h2.1v-5.6h-2.1c-2.1,0-3.2,0.9-3.2,2.9C351.6,131.1,353,132,354.8,132z"/>
	<path d="M373.8,126.2c-2.7,0-3.9,1.6-3.9,5.8c0,4.2,1.6,5.6,3.8,5.6c2.3,0,3.3-1.6,3.3-1.6l0.8,0.6c0,0-1.1,2.2-4.3,2.2
		c-3.6,0-5.7-2.2-5.7-6.7c0-4.5,2-7,5.7-7c2.1,0,3.7,1.1,3.7,1.1l-0.2,1.1C377.1,127.2,375.6,126.2,373.8,126.2z"/>
	<path d="M389.5,138.5h-1.9v-11.9h-5.7v11.9H380v-13.2h9.5V138.5z"/>
	<path d="M398.1,138.7c-3.7,0-5.6-2.6-5.6-6.9c0-4.3,1.9-6.9,5.6-6.9s5.6,2.6,5.6,6.9C403.7,136.2,401.7,138.7,398.1,138.7z
		 M394.5,131.9c0,3.8,1.1,5.7,3.6,5.7c2.5,0,3.6-1.9,3.6-5.7c0-3.8-1.1-5.7-3.6-5.7C395.6,126.2,394.5,128.1,394.5,131.9z"/>
	<path d="M406.7,125.3h1.6l0.2,1.6c0.2-0.3,1.3-1.8,3.7-1.8c3.1,0,5.1,2.3,5.1,6.5c0,4.3-1.9,7.2-5.4,7.2c-2.4,0-3.4-1.3-3.4-1.3h0
		v7.6l-1.9,0.1V125.3z M408.6,128.1v8.2c0.1,0.2,1,1.2,2.8,1.2c2.8,0,4-2,4-5.9c0-3.8-1.4-5.2-3.7-5.2
		C409.5,126.3,408.6,128.1,408.6,128.1z"/>
	<path d="M424.4,126.5v11.9h-1.9v-11.9h-4v-1.2h9.9l0,1.2H424.4z"/>
	<path d="M440.9,125.3v13.2H439v-10.8l-6.6,10.8h-1.5v-13.2h1.9v10.5l6.4-10.5H440.9z"/>
	<path d="M444.9,138.5v-13.2h4.4c3.2,0,4.4,1.5,4.4,3.4c0,1.7-1.2,2.5-2.2,2.9c1.5,0.4,2.7,1.4,2.7,3c0,2.1-1.1,3.8-5,3.8H444.9z
		 M449.6,131.3c0,0,2.2-0.1,2.2-2.4c0-1.5-0.7-2.5-2.5-2.5h-2.5v4.9H449.6z M446.8,132.1v5.3h2.4c2.5,0,3.1-1.4,3.1-2.9
		c0-1.4-0.9-2.4-2.8-2.4H446.8z"/>
	<path d="M457.1,125.3h1.9v5.8h5.9v-5.8h1.9v13.2h-1.9v-6.2H459v6.2h-1.9V125.3z"/>
	<path d="M470.9,126.2c0,0,1.8-1.2,3.7-1.2c2.9,0,4.4,1,4.4,4.3v6.5c0,1.6,0.4,1.8,0.7,1.8c0.4,0,1-0.2,1-0.2l0.1,0.9
		c0,0-1.3,0.5-2.1,0.5c-0.9,0-1.4-0.4-1.5-2h0c0,0-0.9,2-3.7,2c-2.3,0-3.8-1.2-3.8-3.2c0-3.6,4.7-4.4,7.5-4.7v-1.4
		c0-2.5-0.8-3.2-2.7-3.2c-1.5,0-3.2,1.1-3.2,1.1L470.9,126.2z M477.1,131.8c-2.6,0.3-5.5,1-5.5,3.5c0,1.6,1,2.3,2.5,2.3
		c2.2,0,3-1.9,3-1.9V131.8z"/>
	<path d="M491.5,138.5h-1.9V133H487l-2.5,5.4h-2l2.8-5.8c-1.6-0.5-2.9-1.7-2.9-3.5c0-2.6,1.8-3.9,5-3.9h4.1V138.5z M487.5,132
		L487.5,132h2.1v-5.6h-2.1c-2.1,0-3.2,0.9-3.2,2.9C484.3,131.1,485.7,132,487.5,132z"/>
	<path d="M511.1,138.5h-1.9v-11.9h-5.7v11.9h-1.9v-13.2h9.5V138.5z"/>
	<path d="M515.1,125.3h1.6l0.2,1.6c0.2-0.3,1.3-1.8,3.7-1.8c3.1,0,5.1,2.3,5.1,6.5c0,4.3-1.9,7.2-5.4,7.2c-2.4,0-3.4-1.3-3.4-1.3h0
		v7.6l-1.9,0.1V125.3z M517,128.1v8.2c0.1,0.2,1,1.2,2.8,1.2c2.8,0,4-2,4-5.9c0-3.8-1.4-5.2-3.7-5.2
		C517.9,126.3,517,128.1,517,128.1z"/>
	<path d="M537.7,136.5c0,0-1.2,2.2-4.4,2.2c-3.4,0-5.6-2.1-5.6-6.6c0-4.5,2.1-7.1,5.4-7.1c3,0,4.7,2.2,4.7,6c0,0.8-0.1,1.2-0.1,1.2
		h-8c0,3.7,1.4,5.3,3.8,5.3c2.3,0,3.4-1.7,3.4-1.7L537.7,136.5z M529.7,131.1h6.3c0,0,0-0.3,0-0.5c0-3-1-4.5-3-4.5
		C531,126.2,529.9,127.8,529.7,131.1z"/>
	<path d="M553.8,138.5h-1.8L552,128l0-0.8l-4.3,11.2h-1.5l-4.2-11.2l0,0.3l-0.2,10.9h-1.2l0.4-13.2h2.3l3.9,11.2l4.1-11.2h2.3
		L553.8,138.5z"/>
	<path d="M567.8,125.3v13.2h-1.9v-10.8l-6.6,10.8h-1.5v-13.2h1.9v10.5l6.4-10.5H567.8z"/>
	<path d="M579.9,138.5H578V133h-2.6l-2.5,5.4h-2l2.8-5.8c-1.6-0.5-2.9-1.7-2.9-3.5c0-2.6,1.8-3.9,5-3.9h4.1V138.5z M575.9,132
		L575.9,132h2.1v-5.6h-2.1c-2.1,0-3.2,0.9-3.2,2.9C572.7,131.1,574.1,132,575.9,132z"/>
</g>
<circle fill="#36A936" cx="62.7" cy="34.3" r="4.4"/>
<path fill="#27348B" d="M28.6,17.6c0,0,4.9,3.1,4.5,9.5c-0.3,5.7-5.3,8.8-5.3,8.8s2.5-5,2.7-9.1C30.7,22.1,28.6,17.6,28.6,17.6z"/>
</svg>
