<?xml version="1.0" encoding="utf-8"?>
<!-- Generator: Adobe Illustrator 18.0.0, SVG Export Plug-In . SVG Version: 6.00 Build 0)  -->
<!DOCTYPE svg PUBLIC "-//W3C//DTD SVG 1.1//EN" "http://www.w3.org/Graphics/SVG/1.1/DTD/svg11.dtd">
<svg version="1.1" id="Слой_6" xmlns="http://www.w3.org/2000/svg" xmlns:xlink="http://www.w3.org/1999/xlink" x="0px" y="0px"
	 viewBox="0 0 1030.7 258.7" enable-background="new 0 0 1030.7 258.7" xml:space="preserve">
<path fill="#27348B" d="M50,56.6c0,0-4.8-24.6-11-19.7c-5.8,4.6,4.4,28.6,4.4,28.6s-10-9.4-11-22.1c-1.5-18.1,9.8-25.5,9.8-25.5
	s-1.2,8.3,5.5,18.7C54.1,46.3,50,56.6,50,56.6z"/>
<path fill="#27348B" d="M51.8,80.3L32.9,65.9c0,0,3.7,11.1,5.6,16.6c8.1,23.7,9.7,22.5,17.2,35.2L40,75.9L51.8,80.3z"/>
<g>
	<path fill="#27348B" d="M99.9,133.1l-47,0.7l-46.6,0.7l-1.8,0l0-1.8L3.8,70.9L3.1,9l0-3.1l3.2-0.1c3.9-0.1,7.8-0.3,11.6-0.4
		c3.9-0.1,7.8-0.2,11.6-0.3C33.5,5.1,37.4,5,41.3,5c3.9,0,7.8-0.1,11.6-0.1l11.6-0.1c3.9,0,7.8,0,11.6,0l11.6,0l11.6,0.1l4.2,0
		l0,4.1l-0.1,15.5L103.3,40c-0.1,5.2-0.2,10.3-0.3,15.5l-0.4,15.5l-0.5,15.5c-0.2,5.2-0.4,10.3-0.6,15.5c-0.2,5.2-0.5,10.3-0.7,15.5
		c-0.3,5.2-0.6,10.3-0.9,15.5L99.9,133.1z M99.1,132.3c-0.3-5-0.6-10-0.9-15.1c-0.2-5.2-0.5-10.3-0.7-15.5
		c-0.2-5.2-0.4-10.3-0.6-15.5l-0.5-15.5l-0.4-15.5c-0.1-5.2-0.2-10.3-0.3-15.5l-0.3-15.5L95.4,9l4.1,4.1l-11.6,0.1l-11.6,0
		c-3.9,0-7.8,0-11.6,0l-11.6-0.1c-3.9,0-7.8-0.1-11.6-0.1c-3.9-0.1-7.8-0.1-11.6-0.2c-3.9-0.1-7.8-0.1-11.6-0.3
		c-3.9-0.1-7.8-0.2-11.6-0.4L9.5,9L8.9,70.9l-0.8,61.9L6.3,131l46.6,0.7L99.1,132.3z"/>
</g>
<path fill="#27348B" d="M51,32.5c0,0,8.7,5.5,8,16.7c-0.6,10-9.3,15.5-9.3,15.5s4.4-8.9,4.7-16.1C54.7,40.4,51,32.5,51,32.5z"/>
<path fill="#27348B" d="M50,56.6c0,0-4.8-24.6-11-19.7c-5.8,4.6,4.4,28.6,4.4,28.6s-10-9.4-11-22.1c-1.5-18.1,9.8-25.5,9.8-25.5
	s-1.2,8.3,5.5,18.7C54.1,46.3,50,56.6,50,56.6z"/>
<path fill="#27348B" d="M51.8,80.3L32.9,65.9c0,0,3.7,11.1,5.6,16.6c8.1,23.7,9.7,22.5,17.2,35.2L40,75.9L51.8,80.3z"/>
<g>
	<path fill="#E94E1B" d="M81.9,117.5l0.1,0.8c0,0.3,0,0.5,0,0.8c0,0.3-0.1,0.5-0.1,0.8c0,0.3-0.1,0.5-0.2,0.8
		c-0.2,0.5-0.4,1-0.7,1.4c-0.2,0.2-0.3,0.4-0.5,0.6c-0.2,0.2-0.4,0.4-0.6,0.6l-0.6,0.5l-0.7,0.4l-0.7,0.3l-0.8,0.3l-0.8,0.2
		l-0.8,0.1l-0.8,0l-0.8-0.1l0.1,0l-0.8,0.1c-0.3,0-0.5,0-0.8,0c-0.3,0-0.5-0.1-0.8-0.1c-0.3,0-0.5-0.1-0.8-0.2
		c-0.5-0.2-1-0.4-1.5-0.8c-0.2-0.2-0.4-0.3-0.6-0.5c-0.2-0.2-0.4-0.4-0.6-0.6l-0.5-0.7l-0.4-0.7l-0.3-0.8l-0.3-0.8l-0.2-0.8
		l-0.1-0.8l0-0.8l0.1-0.8l0,0.2l-0.1-0.8c0-0.3,0-0.6,0-0.9c0-0.3,0.1-0.6,0.1-0.8c0-0.3,0.2-0.6,0.2-0.8c0.2-0.5,0.5-1.1,0.8-1.5
		c0.2-0.2,0.4-0.5,0.5-0.7c0.2-0.2,0.4-0.4,0.6-0.6l0.7-0.5l0.7-0.4l0.8-0.4c0.3-0.1,0.5-0.2,0.8-0.3l0.8-0.2l0.9-0.1l0.9,0L75,109
		l-0.3,0l0.9-0.1c0.3,0,0.6,0,0.9,0c0.6,0.1,1.1,0.2,1.7,0.4c0.5,0.2,1,0.5,1.5,0.9c0.2,0.2,0.4,0.4,0.6,0.6
		c0.2,0.2,0.4,0.4,0.5,0.6l0.5,0.7l0.4,0.7l0.3,0.8l0.2,0.8l0.1,0.8l0,0.8l-0.1,0.8L81.9,117.5z M81.8,117.5L81.8,117.5l0-0.8l0-0.7
		l-0.1-0.7l-0.2-0.7l-0.3-0.7l-0.3-0.6l-0.4-0.6l-0.5-0.5c-0.3-0.3-0.7-0.6-1.1-0.9c-0.4-0.2-0.8-0.5-1.2-0.6
		c-0.2-0.1-0.4-0.1-0.7-0.2c-0.2,0-0.4-0.1-0.7-0.1c-0.2,0-0.4,0-0.7,0l-0.7,0.1l-0.1,0l-0.2,0l-0.7-0.1l-0.7,0l-0.7,0.1l-0.7,0.1
		l-0.7,0.2l-0.6,0.3l-0.6,0.3l-0.6,0.4l-0.5,0.5c-0.1,0.2-0.3,0.3-0.4,0.5c-0.3,0.4-0.5,0.8-0.7,1.2c-0.1,0.2-0.2,0.4-0.2,0.6
		c0,0.2-0.1,0.4-0.1,0.7c0,0.2,0,0.5,0,0.7l0.1,0.7l0,0.1l0,0.1l-0.1,0.7l0,0.7l0,0.7l0.1,0.7l0.2,0.7l0.3,0.7l0.3,0.6l0.4,0.6
		l0.5,0.5c0.2,0.2,0.4,0.3,0.5,0.5c0.4,0.3,0.8,0.5,1.2,0.7c0.2,0.1,0.4,0.2,0.7,0.2c0.2,0,0.5,0.1,0.7,0.1c0.2,0,0.5,0,0.7,0
		l0.7-0.1l0.1,0l0.1,0l0.7,0.1l0.7,0l0.7,0l0.7-0.1l0.7-0.2l0.7-0.3l0.6-0.4l0.6-0.4c0.2-0.2,0.4-0.3,0.6-0.5
		c0.2-0.2,0.3-0.4,0.5-0.6c0.3-0.4,0.5-0.8,0.7-1.3c0.1-0.2,0.2-0.5,0.2-0.7c0-0.2,0.1-0.5,0.1-0.7c0-0.2,0-0.5,0-0.8L81.8,117.5z"
		/>
</g>
<g>
	<path fill="#27348B" d="M99.9,133.1l-47,0.7l-46.6,0.7l-1.8,0l0-1.8L3.8,70.9L3.1,9l0-3.1l3.2-0.1c3.9-0.1,7.8-0.3,11.6-0.4
		c3.9-0.1,7.8-0.2,11.6-0.3C33.5,5.1,37.4,5,41.3,5c3.9,0,7.8-0.1,11.6-0.1l11.6-0.1c3.9,0,7.8,0,11.6,0l11.6,0l11.6,0.1l4.2,0
		l0,4.1l-0.1,15.5L103.3,40c-0.1,5.2-0.2,10.3-0.3,15.5l-0.4,15.5l-0.5,15.5c-0.2,5.2-0.4,10.3-0.6,15.5c-0.2,5.2-0.5,10.3-0.7,15.5
		c-0.3,5.2-0.6,10.3-0.9,15.5L99.9,133.1z M99.1,132.3c-0.3-5-0.6-10-0.9-15.1c-0.2-5.2-0.5-10.3-0.7-15.5
		c-0.2-5.2-0.4-10.3-0.6-15.5l-0.5-15.5l-0.4-15.5c-0.1-5.2-0.2-10.3-0.3-15.5l-0.3-15.5L95.4,9l4.1,4.1l-11.6,0.1l-11.6,0
		c-3.9,0-7.8,0-11.6,0l-11.6-0.1c-3.9,0-7.8-0.1-11.6-0.1c-3.9-0.1-7.8-0.1-11.6-0.2c-3.9-0.1-7.8-0.1-11.6-0.3
		c-3.9-0.1-7.8-0.2-11.6-0.4L9.5,9L8.9,70.9l-0.8,61.9L6.3,131l46.6,0.7L99.1,132.3z"/>
</g>
<g>
	<polygon fill-rule="evenodd" clip-rule="evenodd" fill="#FFFFFF" points="122.8,180.9 34.9,149.8 76.3,33.1 164.1,64.3 	"/>
	<path fill="#36A936" d="M123,181.4l-44.5-15l-44.1-14.9l-1.7-0.6l0.6-1.7l20-58.6l20.1-58.5l1-2.9l3.1,1c3.7,1.2,7.4,2.3,11.1,3.5
		c3.7,1.2,7.4,2.4,11.1,3.6c3.7,1.2,7.4,2.5,11,3.7c3.7,1.3,7.4,2.5,11,3.8l11,3.8c3.7,1.3,7.3,2.6,11,3.9l11,3.9l10.9,4l3.9,1.4
		l-1.4,3.9l-5.3,14.5l-5.4,14.5c-1.8,4.8-3.6,9.7-5.5,14.5l-5.5,14.5l-5.6,14.4c-1.9,4.8-3.8,9.6-5.7,14.4
		c-1.9,4.8-3.9,9.6-5.8,14.3c-2,4.8-4,9.5-6,14.3L123,181.4z M122.5,180.4c1.4-4.8,2.8-9.7,4.2-14.5c1.5-4.9,3-9.9,4.5-14.8
		c1.5-4.9,3-9.9,4.6-14.8l4.7-14.7l4.8-14.7c1.6-4.9,3.2-9.8,4.9-14.7l4.9-14.7l5-14.6l2.5,5.3l-11-3.8l-11-3.9
		c-3.7-1.3-7.3-2.6-11-3.9l-11-4c-3.7-1.3-7.3-2.7-10.9-4c-3.6-1.3-7.3-2.7-10.9-4.1c-3.6-1.4-7.3-2.7-10.9-4.1
		c-3.6-1.4-7.2-2.8-10.9-4.3l4.1-1.9L58,92.3l-21.4,58.1l-1.1-2.3l43.7,16.2L122.5,180.4z"/>
</g>
<g>
	<path fill="#E94E1B" d="M114.4,156.5c0,0,0,0.2-0.1,0.5c0,0.2-0.1,0.4-0.2,0.6c-0.1,0.2-0.2,0.5-0.4,0.8c-0.3,0.6-0.9,1.3-1.6,1.8
		c-0.8,0.5-1.8,0.9-3,1.2c-1.2,0.2-2.4,0.3-3.8,0.2c-0.3,0-0.6,0-1-0.1c-0.3-0.1-0.6-0.1-1-0.2c-0.8-0.2-1.4-0.6-2.1-1.2
		c-0.6-0.6-1.1-1.2-1.4-2c-0.3-0.7-0.5-1.5-0.7-2.3c-0.2-1.6-0.2-3.2,0-4.8c0.1-0.5,0.1-0.7,0.3-1.2l0.2-0.7
		c0.1-0.2,0.2-0.4,0.3-0.6c0.5-0.8,1.1-1.5,1.8-1.9c1.5-1,3.2-1.3,4.7-1.3c0.8,0,1.5,0,2.2,0.1c0.4,0,0.7,0.1,1.1,0.2l0.2,0l0.1,0
		l0.2,0.1l0.5,0.1c1.6,0.5,2.7,1.6,3.2,2.8c0.6,1.2,0.7,2.3,0.8,3.3c0,1,0,1.8-0.1,2.5C114.6,155.7,114.4,156.5,114.4,156.5
		L114.4,156.5z M114.2,156.4c0,0,0-0.2,0.1-0.5c0-0.4,0.1-0.9,0.1-1.5c0-0.7-0.1-1.5-0.3-2.4c-0.2-0.9-0.6-1.8-1.2-2.6
		c-0.3-0.4-0.7-0.8-1.1-1c-0.2-0.2-0.5-0.2-0.7-0.4c-0.2-0.1-0.5-0.2-0.7-0.2c-1.2-0.2-2.5-0.4-3.9-0.3c-1.3,0-2.7,0.2-3.8,0.8
		c-0.6,0.3-1,0.7-1.4,1.2l-0.2,0.4l-0.2,0.4c-0.1,0.2-0.2,0.8-0.3,1c-0.3,1.4-0.4,2.9-0.2,4.3c0.1,0.7,0.2,1.4,0.5,2
		c0.3,0.6,0.6,1.2,1,1.6c0.5,0.4,1,0.8,1.6,1c0.3,0.1,0.6,0.2,1,0.3c0.3,0.1,0.6,0.1,0.9,0.2c1.3,0.2,2.5,0.3,3.6,0.2
		c1.1-0.1,2.1-0.4,2.9-0.8c0.8-0.4,1.4-1.1,1.7-1.6c0.2-0.3,0.3-0.6,0.4-0.8c0.1-0.2,0.1-0.4,0.2-0.6
		C114.2,156.6,114.2,156.4,114.2,156.4L114.2,156.4z"/>
</g>
<g>
	<path fill="#B2B2B2" d="M81.7,142.8c0,0-0.1,0.3-0.2,0.8c-0.1,0.3-0.1,0.6-0.3,1c-0.2,0.4-0.3,0.8-0.6,1.3c-0.5,0.9-1.3,2-2.5,2.8
		c-1.2,0.9-2.8,1.5-4.6,1.9c-1.8,0.4-3.8,0.5-5.9,0.4c-0.3,0-0.5,0-0.8-0.1l-0.4,0l-0.2,0l-0.3,0l-0.8-0.1c-0.3,0-0.5-0.1-0.8-0.2
		l-0.9-0.3c-0.3-0.1-0.6-0.3-0.8-0.4c-0.6-0.3-1-0.7-1.6-1.1c-0.9-0.9-1.7-1.9-2.2-3.1c-0.5-1.2-0.9-2.4-1.1-3.6
		c-0.4-2.5-0.3-5,0-7.4c0.2-0.8,0.1-1.1,0.4-1.9l0.4-1.1c0.2-0.3,0.3-0.6,0.5-1c0.7-1.2,1.7-2.4,2.9-3.1c2.4-1.6,5-2.1,7.4-2.2
		c1.2,0,2.4,0,3.5,0.2c0.6,0.1,1.1,0.2,1.7,0.3l0.3,0.1l0.2,0.1l0.4,0.1l0.7,0.2c0.6,0.2,1.3,0.5,1.8,0.8c0.5,0.4,1,0.6,1.4,1.1
		c0.2,0.2,0.4,0.4,0.6,0.6c0.2,0.2,0.3,0.5,0.5,0.7c0.4,0.4,0.6,0.9,0.8,1.4c0.9,1.9,1,3.7,1.1,5.2c0,1.5-0.1,2.8-0.2,3.8
		C82,141.7,81.7,142.8,81.7,142.8L81.7,142.8z M81.3,142.7c0,0,0-0.3,0.1-0.8c0.1-0.5,0.1-1.3,0.1-2.4c0-1-0.2-2.2-0.5-3.6
		c-0.4-1.3-1-2.8-1.9-3.9c-0.3-0.3-0.5-0.6-0.8-0.8l-0.4-0.4l-0.5-0.3c-0.3-0.2-0.7-0.3-1-0.5c-0.3-0.1-0.6-0.2-1-0.3
		c-0.2,0-0.5-0.1-0.8-0.1l-0.4-0.1l-0.2,0c-0.1,0,0.1,0,0.1,0l0,0l0,0l-0.1,0c-0.5-0.1-1-0.1-1.5-0.1c-1-0.1-2-0.1-3-0.1
		c-2,0-4,0.3-5.6,1.2c-0.8,0.4-1.5,1-2,1.8l-0.4,0.6c-0.1,0.2-0.2,0.4-0.3,0.6c-0.2,0.3-0.3,1.2-0.5,1.5c-0.4,2.2-0.6,4.4-0.4,6.6
		c0.1,1.1,0.3,2.1,0.7,3c0.4,0.9,0.9,1.7,1.5,2.4c0.7,0.6,1.5,1.2,2.3,1.5c0.2,0.1,0.4,0.2,0.7,0.2l0.8,0.2c0.1,0,0.5,0.1,0.7,0.1
		c0.2,0,0.5,0.1,0.7,0.1c1.9,0.3,3.8,0.5,5.5,0.3c1.7-0.1,3.2-0.5,4.5-1.2c0.6-0.3,1.1-0.8,1.6-1.2c0.4-0.5,0.8-0.9,1-1.3
		c0.3-0.4,0.4-0.8,0.6-1.2c0.2-0.4,0.2-0.7,0.3-1C81.3,143,81.3,142.7,81.3,142.7L81.3,142.7z"/>
</g>
<g>
	<path fill="#FCD138" d="M107.3,146L107.3,146c0,0-0.1,0.4-0.3,1.2c-0.1,0.4-0.2,0.9-0.5,1.5c-0.2,0.6-0.5,1.3-0.9,1.9
		c-0.7,1.4-2,2.9-3.8,4.2c-1.8,1.3-4.2,2.3-6.9,2.8c-2.7,0.6-5.7,0.7-8.8,0.5c-0.4,0-0.8-0.1-1.2-0.1l-0.6-0.1l-0.3,0l-0.4-0.1
		c-0.4-0.1-0.8-0.1-1.2-0.2l-0.6-0.1c-0.2,0-0.4-0.1-0.7-0.2c-0.4-0.2-0.9-0.3-1.4-0.5c-0.4-0.2-0.8-0.4-1.3-0.6
		c-0.9-0.4-1.6-1-2.3-1.6c-1.4-1.3-2.6-2.9-3.4-4.7c-0.8-1.8-1.3-3.6-1.6-5.5c-0.3-1.9-0.4-3.7-0.4-5.6c0-0.9,0-1.9,0.1-2.8
		c0-0.5,0.1-0.9,0.1-1.4l0.1-0.7l0-0.3l0-0.2l0-0.1l0,0c0-0.1,0,0.1,0-0.2l0.2-1.3l0.1-0.7c0-0.2,0.2-0.5,0.2-0.8
		c0.2-0.5,0.4-1.1,0.6-1.6c0.2-0.5,0.5-1,0.8-1.4c1.1-1.9,2.6-3.6,4.4-4.7c3.6-2.4,7.6-3.1,11.2-3.2c1.8,0,3.6,0,5.3,0.2
		c0.9,0.1,1.7,0.2,2.5,0.4l0.2,0l0.3,0.1l0.3,0.1l0.6,0.2c0.4,0.1,0.7,0.2,1.1,0.3c0.9,0.4,1.9,0.7,2.7,1.2c0.8,0.5,1.6,1,2.2,1.6
		c0.3,0.3,0.6,0.6,0.9,0.9c0.3,0.3,0.5,0.7,0.8,1c0.5,0.7,0.9,1.4,1.2,2.1c1.3,2.8,1.5,5.5,1.6,7.8c0,2.3-0.2,4.2-0.3,5.8
		c-0.2,1.6-0.4,2.8-0.5,3.6C107.4,145.5,107.3,146,107.3,146L107.3,146z M106.7,145.9c0,0,0-0.4,0.1-1.3c0.1-0.8,0.2-2,0.1-3.6
		c0-1.5-0.2-3.4-0.8-5.4c-0.5-2-1.4-4.2-2.9-5.9c-0.4-0.4-0.7-0.9-1.2-1.2c-0.2-0.2-0.4-0.4-0.6-0.5c-0.2-0.1-0.5-0.3-0.7-0.4
		c-0.4-0.3-1-0.5-1.5-0.7c-0.5-0.2-1-0.3-1.5-0.5c-0.4-0.1-0.8-0.1-1.1-0.2l-0.6-0.1l-0.3-0.1c0.1,0-0.2,0,0.2,0l0,0l-0.1,0l-0.1,0
		c-0.7-0.1-1.5-0.2-2.2-0.2c-0.7-0.1-1.5-0.1-2.2-0.1c-0.7,0-1.5,0-2.2,0c-3,0.1-6,0.5-8.4,1.8c-1.2,0.6-2.2,1.6-3,2.6L77,131
		c-0.1,0.3-0.2,0.6-0.4,0.9c-0.1,0.2-0.1,0.3-0.2,0.5l-0.2,0.6l-0.3,1.3l-0.2,1.1c-0.1,0.4-0.1,0.8-0.2,1.2
		c-0.1,0.8-0.2,1.7-0.2,2.5c-0.1,1.7-0.1,3.3,0.1,4.9c0.2,1.6,0.5,3.1,1,4.5c0.6,1.4,1.3,2.6,2.3,3.6c0.5,0.4,1,1,1.6,1.3
		c0.3,0.2,0.6,0.4,0.9,0.5l0.9,0.4c0.2,0.1,0.3,0.1,0.5,0.2l0.6,0.2c0.4,0.1,0.8,0.2,1.1,0.3l0.1,0l0.1,0l0,0c0,0-0.2,0-0.1,0
		l0.3,0.1l0.6,0.1c0.4,0.1,0.7,0.1,1.1,0.2c2.9,0.4,5.7,0.7,8.3,0.5c2.6-0.2,4.9-0.8,6.7-1.8c0.9-0.5,1.7-1.1,2.3-1.8
		c0.3-0.3,0.6-0.7,0.8-1c0.3-0.3,0.4-0.7,0.6-1c0.4-0.6,0.6-1.3,0.8-1.8c0.2-0.5,0.3-1,0.4-1.4C106.6,146.3,106.7,145.9,106.7,145.9
		L106.7,145.9z"/>
</g>
<g>
	<path d="M227.5,5.5v13.6H217v54.5h-17.7V19.1h-10.5V5.5H227.5z"/>
	<path d="M254.2,45h-4.8v28.6h-17.8V5.4h17.8v24.4h4.8c0.1-5.9,0.4-10.2,0.9-12.8c0.6-2.6,1.7-4.8,3.5-6.6c1.8-1.8,4-3,6.7-3.8
		c2.7-0.8,5.8-1.1,9.4-1.1c3.8,0,7,0.4,9.7,1.2c2.7,0.8,4.9,2.2,6.7,4.1c1.8,1.9,2.9,4.4,3.3,7.4c0.5,3,0.7,8.2,0.7,15.5v11.6
		c0,7.3-0.2,12.5-0.7,15.5c-0.5,3-1.6,5.4-3.4,7.4c-1.8,2-4,3.4-6.8,4.2c-2.7,0.9-6,1.3-9.7,1.3c-3.5,0-6.5-0.4-9.1-1.1
		c-2.6-0.8-4.8-2-6.5-3.6c-1.8-1.7-2.9-3.4-3.5-5.3c-0.6-1.9-0.9-4.3-1.1-7.1c-0.2-2.8-0.3-6.6-0.3-11.3V45z M277.5,56.8V23
		c0-2.9-0.1-4.8-0.4-5.9c-0.3-1.1-1.1-1.6-2.3-1.6c-1,0-1.7,0.4-2.1,1.2c-0.4,0.8-0.6,2.9-0.6,6.2v35c0,1.8,0.2,3.1,0.5,4.1
		c0.3,1,1.1,1.4,2.2,1.4c1,0,1.7-0.4,2.2-1.2C277.2,61.6,277.5,59.7,277.5,56.8z"/>
	<path d="M356.4,5.5v68.1h-15.5l0-46l-6.2,46h-11l-6.5-44.9l0,44.9h-15.5V5.5h22.9c0.7,4.1,1.4,8.9,2.1,14.5l2.5,17.3l4.1-31.8
		H356.4z"/>
	<path d="M363.5,5.5H393v13.6h-11.8V32h11.1v13h-11.1v15h13v13.6h-30.7V5.5z"/>
	<path d="M440.1,5.5v68.1h-17.7V45H417v28.6h-17.7V5.5H417v24.4h5.3V5.5H440.1z"/>
	<path d="M488.5,35.1h-17.7V23.3c0-3.4-0.2-5.6-0.6-6.5c-0.4-0.8-1.2-1.3-2.5-1.3c-1.5,0-2.4,0.5-2.8,1.6c-0.4,1-0.6,3.3-0.6,6.7
		v31.6c0,3.3,0.2,5.5,0.6,6.5c0.4,1,1.3,1.5,2.6,1.5c1.3,0,2.2-0.5,2.6-1.5c0.4-1,0.6-3.4,0.6-7.1v-8.6h17.7V49c0,7-0.5,12.1-1.5,15
		c-1,3-3.2,5.5-6.6,7.8c-3.4,2.2-7.6,3.3-12.6,3.3c-5.2,0-9.5-0.9-12.8-2.8c-3.4-1.9-5.6-4.5-6.7-7.8c-1.1-3.3-1.6-8.3-1.6-15V29.5
		c0-4.9,0.2-8.6,0.5-11c0.3-2.5,1.3-4.8,3-7.1c1.7-2.3,4-4.1,6.9-5.4c3-1.3,6.4-2,10.2-2c5.2,0,9.5,1,12.9,3c3.4,2,5.6,4.5,6.7,7.5
		c1.1,3,1.6,7.7,1.6,14.1V35.1z"/>
	<path d="M494.9,5.4h17.8l0.1,28.8c3.3-0.1,5.1-1.9,5.2-5.6l0.3-13.3c0.1-4.9,1.1-8.2,2.9-9.9h16.4c-1.6,1.7-2.4,5.1-2.4,10.3
		l0.1,11.7c0.1,7.1-3.9,11.1-12,12.1c8,1,12,5.1,12,12.2l-0.1,10.9c0,5.2,0.8,8.8,2.4,11h-16.4c-1.9-1.7-2.9-5-2.9-9.9V50.4
		c0-1.7-0.5-3-1.5-4.1c-1-1-2.4-1.6-4-1.6l-0.1,28.9h-17.8V5.4z"/>
	<path d="M571.7,5.5l10.1,68.1h-18.1l-0.9-12.3h-6.3l-1.1,12.3h-18.3l9-68.1H571.7z M562.3,49.3c-0.9-7.7-1.8-17.3-2.7-28.6
		c-1.8,13-2.9,22.6-3.4,28.6H562.3z"/>
	<path d="M624.3,73.6h-17.8V42.9c-2.2,0-3.7,0.4-4.4,1.1c-0.7,0.7-1,2.4-1,4.9v24.7h-16.5V53.3c0-3.5,0.2-6.1,0.6-7.9
		c0.4-1.8,1.3-3.3,2.6-4.5c1.4-1.2,3.6-2.2,6.5-2.9c-4.1-0.4-6.7-1.5-7.9-3.5c-1.2-1.9-1.8-5.4-1.8-10.5c0-4.5,0.6-8.1,1.7-10.7
		c1.1-2.6,2.8-4.4,4.9-5.5c2.1-1.1,4.6-1.8,7.4-2c2.8-0.2,7.1-0.4,13-0.4h12.6V73.6z M606.6,32.2V17.2h-0.8c-1.5,0-2.6,0.3-3.4,1
		c-0.8,0.7-1.1,2.1-1.1,4.2v3.7c0,2.5,0.3,4.2,0.9,4.9C602.8,31.9,604.3,32.2,606.6,32.2z"/>
	<path d="M686.9,45.4c0,6.9-0.2,11.7-0.5,14.5c-0.3,2.8-1.3,5.4-3,7.8c-1.7,2.4-4,4.2-6.9,5.4c-2.9,1.3-6.3,1.9-10.1,1.9
		c-3.6,0-6.9-0.6-9.8-1.8c-2.9-1.2-5.2-3-7-5.4c-1.8-2.4-2.8-5-3.2-7.8c-0.3-2.8-0.5-7.7-0.5-14.7V33.7c0-6.9,0.2-11.7,0.5-14.5
		c0.3-2.8,1.3-5.4,3-7.8c1.7-2.4,4-4.2,6.9-5.4c2.9-1.3,6.3-1.9,10.1-1.9c3.6,0,6.9,0.6,9.8,1.8c2.9,1.2,5.2,3,7,5.4
		c1.8,2.4,2.8,5,3.2,7.8c0.3,2.8,0.5,7.7,0.5,14.7V45.4z M669.2,23c0-3.2-0.2-5.2-0.5-6.1c-0.4-0.9-1.1-1.3-2.2-1.3
		c-0.9,0-1.6,0.4-2.1,1.1c-0.5,0.7-0.7,2.8-0.7,6.3v31.8c0,4,0.2,6.4,0.5,7.3c0.3,0.9,1.1,1.4,2.2,1.4c1.2,0,2-0.5,2.3-1.6
		c0.3-1.1,0.5-3.6,0.5-7.6V23z"/>
	<path d="M734.8,57.7c0,5.1-0.7,8.7-2,10.9c-1.3,2.2-3.3,3.6-6,4.2c-2.7,0.6-6.9,0.8-12.8,0.8h-20.5V5.4h34.7v11.8h-17v11.5h2.7
		c5.5,0,9.6,0.3,12.4,1c2.8,0.6,4.9,2.1,6.3,4.3c1.4,2.2,2.1,5.7,2.1,10.4V57.7z M717,55.6v-9.8c0-2.9-0.3-4.6-0.9-5.2
		c-0.6-0.6-2.2-1-4.9-1.1v22.4c2.2,0,3.8-0.3,4.6-0.9C716.6,60.4,717,58.6,717,55.6z"/>
	<path d="M784.3,73.6h-17.8V19.1h-5.2v38.6c0,5.1-0.6,8.7-2,10.9c-1.3,2.2-3.3,3.6-6,4.2c-2.7,0.6-6.9,0.8-12.7,0.8h-2.8V61.9
		c2.2,0,3.7-0.3,4.5-0.8c0.8-0.5,1.2-2.4,1.2-5.5V5.4h40.7V73.6z"/>
	<path d="M822,5.5l10.1,68.1H814l-0.9-12.3h-6.3l-1.1,12.3h-18.3l9-68.1H822z M812.6,49.3c-0.9-7.7-1.8-17.3-2.7-28.6
		c-1.8,13-2.9,22.6-3.4,28.6H812.6z"/>
	<path d="M876.5,35.1h-17.7V23.3c0-3.4-0.2-5.6-0.6-6.5c-0.4-0.8-1.2-1.3-2.5-1.3c-1.5,0-2.4,0.5-2.8,1.6c-0.4,1-0.6,3.3-0.6,6.7
		v31.6c0,3.3,0.2,5.5,0.6,6.5c0.4,1,1.3,1.5,2.7,1.5c1.3,0,2.2-0.5,2.6-1.5c0.4-1,0.6-3.4,0.6-7.1v-8.6h17.7V49c0,7-0.5,12.1-1.5,15
		c-1,3-3.2,5.5-6.6,7.8c-3.4,2.2-7.6,3.3-12.6,3.3c-5.2,0-9.5-0.9-12.8-2.8c-3.4-1.9-5.6-4.5-6.7-7.8c-1.1-3.3-1.6-8.3-1.6-15V29.5
		c0-4.9,0.2-8.6,0.5-11c0.3-2.5,1.3-4.8,3-7.1c1.7-2.3,4-4.1,6.9-5.4c3-1.3,6.4-2,10.2-2c5.2,0,9.5,1,12.9,3c3.4,2,5.6,4.5,6.7,7.5
		c1.1,3,1.6,7.7,1.6,14.1V35.1z"/>
	<path d="M918.5,5.5v13.6H908v54.5h-17.7V19.1h-10.5V5.5H918.5z"/>
	<path d="M963.9,57.7c0,5.1-0.7,8.7-2,10.9c-1.3,2.2-3.3,3.6-6,4.2c-2.7,0.6-6.9,0.8-12.8,0.8h-20.5V5.4h17.8v23.4h2.7
		c5.5,0,9.6,0.3,12.4,1c2.8,0.6,4.9,2.1,6.3,4.3c1.4,2.2,2.1,5.7,2.1,10.4V57.7z M946.1,55.6v-9.8c0-2.9-0.3-4.6-0.9-5.2
		c-0.6-0.6-2.2-1-4.9-1.1v22.4c2.3,0,3.8-0.3,4.6-0.9C945.7,60.4,946.1,58.6,946.1,55.6z"/>
	<path d="M981.3,40.4h44.1v10.5h-44.1V40.4z"/>
</g>
<g>
	<path d="M221.5,135.2c2.4,0.8,4.3,2.2,5.5,4.1c1.2,1.9,1.8,6.3,1.8,13.2c0,5.2-0.6,9.1-1.8,12c-1.2,2.8-3.2,5-6.1,6.5
		c-2.9,1.5-6.6,2.2-11.1,2.2c-5.1,0-9.1-0.9-12-2.6c-2.9-1.7-4.8-3.8-5.8-6.3c-0.9-2.5-1.4-6.8-1.4-13v-5.1h16.1v10.5
		c0,2.8,0.2,4.6,0.5,5.3c0.3,0.8,1.1,1.1,2.2,1.1c1.3,0,2.1-0.5,2.5-1.4c0.4-1,0.6-3.5,0.6-7.5v-4.5c0-2.5-0.3-4.3-0.8-5.4
		c-0.6-1.1-1.4-1.9-2.5-2.3c-1.1-0.4-3.2-0.6-6.4-0.6V132c3.8,0,6.2-0.1,7.1-0.4c0.9-0.3,1.6-0.9,2-1.9c0.4-1,0.6-2.5,0.6-4.6v-3.6
		c0-2.3-0.2-3.8-0.7-4.5c-0.5-0.7-1.2-1.1-2.2-1.1c-1.1,0-1.9,0.4-2.3,1.1c-0.4,0.8-0.6,2.4-0.6,4.9v5.3h-16.1v-5.5
		c0-6.2,1.4-10.4,4.2-12.5c2.8-2.2,7.3-3.3,13.5-3.3c7.7,0,12.9,1.5,15.7,4.5c2.7,3,4.1,7.2,4.1,12.5c0,3.6-0.5,6.2-1.5,7.9
		C225.8,132.4,224,133.8,221.5,135.2z"/>
	<path d="M283.2,183h-11.6v-11.2h-27.2V183h-11.6v-24.7h3.4c1.8-5.3,3.3-12.3,4.5-20.9c1.2-8.6,1.7-18.1,1.7-28.4v-2h37.3v51.2h3.4
		V183z M262.9,158.3v-38.4h-5v0.5c0,12.4-1.3,25-4,37.9H262.9z"/>
	<path d="M288.5,107.1h28.1v13h-11.2v12.3h10.5v12.3h-10.5v14.2h12.4v13h-29.2V107.1z"/>
	<path d="M361.8,135.3H345v-11.2c0-3.3-0.2-5.3-0.5-6.1c-0.4-0.8-1.2-1.2-2.4-1.2c-1.4,0-2.3,0.5-2.6,1.5c-0.4,1-0.6,3.1-0.6,6.4
		v30.1c0,3.2,0.2,5.2,0.6,6.2c0.4,1,1.2,1.4,2.5,1.4c1.3,0,2.1-0.5,2.5-1.4c0.4-1,0.6-3.2,0.6-6.8v-8.1h16.8v2.5
		c0,6.7-0.5,11.5-1.4,14.3c-0.9,2.8-3,5.3-6.3,7.4c-3.2,2.1-7.2,3.2-12,3.2c-4.9,0-9-0.9-12.2-2.7c-3.2-1.8-5.3-4.3-6.4-7.4
		c-1-3.1-1.6-7.9-1.6-14.2V130c0-4.7,0.2-8.2,0.5-10.5c0.3-2.3,1.3-4.6,2.9-6.7c1.6-2.2,3.8-3.9,6.6-5.1c2.8-1.2,6-1.9,9.7-1.9
		c5,0,9,1,12.3,2.9c3.2,1.9,5.3,4.3,6.4,7.2c1,2.9,1.5,7.3,1.5,13.4V135.3z"/>
	<path d="M407,156.7c0,4.8-0.6,8.3-1.9,10.4c-1.3,2.1-3.2,3.4-5.7,4c-2.5,0.5-6.6,0.8-12.2,0.8h-19.5v-64.8h16.9v22.2h2.6
		c5.2,0,9.1,0.3,11.8,0.9c2.7,0.6,4.7,2,6,4.1c1.3,2.1,2,5.4,2,9.8V156.7z M390.2,154.7v-9.4c0-2.7-0.3-4.4-0.8-5
		c-0.5-0.6-2.1-0.9-4.7-1v21.3c2.1,0,3.6-0.3,4.3-0.8C389.8,159.3,390.2,157.6,390.2,154.7z"/>
	<path d="M460.8,107.1l-4.6,42.9c-0.7,6.8-1.5,11.5-2.3,14.2c-0.8,2.7-2.4,4.7-4.8,5.9c-2.4,1.2-6.3,1.8-11.7,1.8h-9.8v-8.4h1
		c2.2,0,3.6-0.2,4.1-0.5c0.5-0.4,0.8-0.9,0.8-1.7c0-0.1-0.3-1.9-1-5.5l-8.8-48.7h14.6l5.3,40.3l2.6-40.3H460.8z"/>
	<path d="M487.1,147c-1.4,1.4-3.1,2.6-5.3,3.5c-2.2,0.9-4.4,1.3-6.6,1.3c-4,0-6.9-1.1-8.8-3.4c-1.8-2.2-2.7-5.7-2.7-10.4v-30.9h16.9
		v29.1c0,2.5,0.2,4.3,0.7,5.2c0.4,1,1.2,1.4,2.2,1.4c2.5,0,3.8-2.2,3.8-6.5v-29.3H504v64.8h-16.9V147z"/>
	<path d="M539.8,107.1l9.6,64.7h-17.2l-0.9-11.6h-6l-1,11.6h-17.4l8.6-64.7H539.8z M530.9,148.7c-0.9-7.3-1.7-16.4-2.6-27.2
		c-1.7,12.4-2.8,21.5-3.2,27.2H530.9z"/>
	<path d="M586.2,107.1v13h-10v51.8h-16.8v-51.8h-10v-13H586.2z"/>
	<path d="M643.2,171.9h-16.9V120h-5v51.8h-16.9v-64.8h38.7V171.9z"/>
	<path d="M688.3,145c0,6.5-0.2,11.1-0.5,13.8c-0.3,2.7-1.3,5.2-2.9,7.4c-1.6,2.2-3.8,4-6.5,5.2c-2.7,1.2-5.9,1.8-9.6,1.8
		c-3.5,0-6.6-0.6-9.3-1.7c-2.8-1.1-5-2.8-6.7-5.1c-1.7-2.3-2.7-4.7-3-7.4c-0.3-2.7-0.5-7.3-0.5-14V134c0-6.5,0.2-11.1,0.5-13.8
		c0.3-2.7,1.3-5.2,2.9-7.4c1.6-2.2,3.8-4,6.5-5.2c2.7-1.2,5.9-1.8,9.6-1.8c3.5,0,6.6,0.6,9.3,1.7c2.8,1.1,5,2.8,6.7,5.1
		c1.7,2.3,2.7,4.7,3,7.4c0.3,2.7,0.5,7.3,0.5,14V145z M671.5,123.8c0-3-0.2-4.9-0.5-5.8c-0.3-0.8-1-1.3-2.1-1.3c-0.9,0-1.6,0.3-2,1
		c-0.5,0.7-0.7,2.7-0.7,6V154c0,3.7,0.2,6.1,0.5,7c0.3,0.9,1,1.3,2.1,1.3c1.1,0,1.9-0.5,2.2-1.5c0.3-1,0.5-3.4,0.5-7.2V123.8z"/>
	<path d="M733.8,156.7c0,4.8-0.6,8.3-1.9,10.4c-1.3,2.1-3.2,3.4-5.7,4c-2.5,0.5-6.6,0.8-12.2,0.8h-19.5v-64.8h33v11.2h-16.1v10.9
		h2.6c5.2,0,9.1,0.3,11.8,0.9c2.7,0.6,4.7,2,6,4.1c1.3,2.1,2,5.4,2,9.8V156.7z M717,154.7v-9.4c0-2.7-0.3-4.4-0.8-5
		c-0.5-0.6-2.1-0.9-4.7-1v21.3c2.1,0,3.6-0.3,4.3-0.8C716.6,159.3,717,157.6,717,154.7z"/>
	<path d="M739.8,107.1h28.1v13h-11.2v12.3h10.5v12.3h-10.5v14.2H769v13h-29.2V107.1z"/>
	<path d="M792.4,144c-3.5,0.1-5.3,1.6-5.3,4.6v17c0,2.3-0.2,3.9-0.7,4.8c-0.5,1-0.8,1.4-1.1,1.4h-13.9c1.2-1.7,1.8-4.3,1.8-7.7
		v-14.6c0-3.1,0.9-5.4,2.6-7.1c1.7-1.6,4.7-2.8,8.9-3.5V139c-7.6-0.4-11.4-3.9-11.4-10.5v-13.7c0-3.4-0.6-5.9-1.8-7.6h13.9
		c0.4,0.2,0.8,0.7,1.2,1.7c0.4,1,0.6,2.5,0.6,4.4v16.1c0,2.9,1.7,4.5,5.2,4.6v-26.9h16.9V134c3.5-0.1,5.3-1.6,5.3-4.6v-16.1
		c0-2.2,0.2-3.8,0.7-4.8c0.5-0.9,0.8-1.4,1.1-1.4h13.9c-1.2,1.7-1.8,4.2-1.8,7.6v13.7c0,6.6-3.8,10.1-11.4,10.5v0.1
		c4.2,0.7,7.1,1.9,8.9,3.5c1.7,1.6,2.6,4,2.6,7.1v14.6c0,3.4,0.6,6,1.8,7.7h-13.9c-0.4-0.2-0.8-0.8-1.2-1.8c-0.4-1-0.6-2.5-0.6-4.4
		v-17c0-3-1.8-4.5-5.4-4.6v27.8h-16.9V144z"/>
	<path d="M882.5,183h-11.6v-11.2h-27.2V183h-11.6v-24.7h3.4c1.8-5.3,3.3-12.3,4.5-20.9c1.2-8.6,1.7-18.1,1.7-28.4v-2h37.3v51.2h3.4
		V183z M862.2,158.3v-38.4h-5v0.5c0,12.4-1.3,25-4,37.9H862.2z"/>
	<path d="M916.9,107.1l9.6,64.7h-17.2l-0.9-11.6h-6l-1,11.6H884l8.6-64.7H916.9z M908,148.7c-0.9-7.3-1.7-16.4-2.6-27.2
		c-1.7,12.4-2.8,21.5-3.2,27.2H908z"/>
	<path d="M963.3,107.1v13h-10v51.8h-16.8v-51.8h-10v-13H963.3z"/>
	<path d="M1006.3,156.7c0,4.8-0.6,8.3-1.9,10.4c-1.3,2.1-3.2,3.4-5.7,4c-2.5,0.5-6.6,0.8-12.2,0.8h-19.5v-64.8H984v22.2h2.6
		c5.2,0,9.1,0.3,11.8,0.9c2.7,0.6,4.7,2,6,4.1c1.3,2.1,2,5.4,2,9.8V156.7z M989.4,154.7v-9.4c0-2.7-0.3-4.4-0.8-5
		c-0.5-0.6-2.1-0.9-4.7-1v21.3c2.1,0,3.6-0.3,4.3-0.8C989.1,159.3,989.4,157.6,989.4,154.7z"/>
	<path d="M1027.4,131.2l-1.9,31h-8.8l-1.9-31H1027.4z M1026.5,164.2v8.2h-10.7v-8.2H1026.5z"/>
</g>
<path fill="#36A936" d="M103.5,60.3c-0.9,4.2,1.7,8.3,5.9,9.3c4.2,0.9,8.3-1.7,9.3-5.9c0.9-4.2-1.7-8.3-5.9-9.3
	C108.5,53.5,104.4,56.1,103.5,60.3z"/>
<path fill="#36A936" d="M136.4,64.7c0,0-18.9,18.7-32.8,11.7c-8.4-4.2-8.6-15.5-8.6-15.5s-4.1,7.5-5.3,19.4
	c-1.6,15.7,10.5,37.3,10.5,37.3s-4.5-20.1,0.5-20.3c5.2-0.1,3.3,21.1,3.3,21.1s4.2-16.2,10-25.8C123.2,77.6,136.4,64.7,136.4,64.7z"
	/>
<text transform="matrix(1 0 0 1 -0.1744 245.4349)" font-family="'Arsenal-Regular'" font-size="46.4533">региональная детско-юношеская спортивная премия</text>
<path fill="#36A936" d="M103.5,60.3c-0.9,4.2,1.7,8.3,5.9,9.3c4.2,0.9,8.3-1.7,9.3-5.9c0.9-4.2-1.7-8.3-5.9-9.3
	C108.5,53.5,104.4,56.1,103.5,60.3z"/>
<path fill="#27348B" d="M51,32.5c0,0,8.7,5.5,8,16.7c-0.6,10-9.3,15.5-9.3,15.5s4.4-8.9,4.7-16.1C54.7,40.4,51,32.5,51,32.5z"/>
</svg>
