<?xml version="1.0" encoding="utf-8"?>
<!-- Generator: Adobe Illustrator 18.0.0, SVG Export Plug-In . SVG Version: 6.00 Build 0)  -->
<!DOCTYPE svg PUBLIC "-//W3C//DTD SVG 1.1//EN" "http://www.w3.org/Graphics/SVG/1.1/DTD/svg11.dtd">
<svg version="1.1" id="Слой_1" xmlns="http://www.w3.org/2000/svg" xmlns:xlink="http://www.w3.org/1999/xlink" x="0px" y="0px"
	 viewBox="0 0 70.9 70.9" enable-background="new 0 0 70.9 70.9" xml:space="preserve">
<path fill="#3EAD59" d="M16,30.6c-1.6,15.9,10.6,37.7,10.6,37.7S22.1,48,27.2,47.9c5.3-0.1,3.3,21.3,3.3,21.3s4.2-16.3,10.1-26.1
	c9.1-15.2,22.6-28.3,22.6-28.3"/>
<path fill="#3EAD59" d="M63.2,14.8c0,0-19.1,18.9-33.1,11.8C21.6,22.4,21.4,11,21.4,11s-4.1,7.6-5.3,19.6"/>
<path fill="#3EAD59" d="M29.8,10.4c-0.9,4.2,1.7,8.4,6,9.4c4.2,0.9,8.4-1.7,9.4-6c0.9-4.2-1.7-8.4-6-9.4C35,3.5,30.8,6.2,29.8,10.4"
	/>
</svg>
