<svg version="1.1" xmlns="http://www.w3.org/2000/svg" xmlns:xlink="http://www.w3.org/1999/xlink" x="0px" y="0px"
	 viewBox="10 8 60 60" xml:space="preserve">
<path fill="#20B85A" d="M59.2,14.1c0,0-9.4,19.5-22,17.9c-7.6-1-10.8-9.6-10.8-9.6s-1.1,6.9,1.2,16.3c3,12.4,18.1,25.8,18.1,25.8
	s-8.9-14.2-5.1-15.7c3.9-1.5,8.2,15.3,8.2,15.3s-1.2-13.5,0.7-22.5C52.5,27.6,59.2,14.1,59.2,14.1z"/>
<path fill="#20B85A" d="M32.7,19.7c0.4,3.5,3.6,5.9,7,5.5c3.5-0.4,5.9-3.6,5.5-7c-0.4-3.5-3.6-5.9-7-5.5
	C34.8,13.1,32.3,16.2,32.7,19.7z"/>
</svg>
