<?xml version="1.0" encoding="utf-8"?>
<!-- Generator: Adobe Illustrator 18.0.0, SVG Export Plug-In . SVG Version: 6.00 Build 0)  -->
<!DOCTYPE svg PUBLIC "-//W3C//DTD SVG 1.1//EN" "http://www.w3.org/Graphics/SVG/1.1/DTD/svg11.dtd">
<svg version="1.1" xmlns="http://www.w3.org/2000/svg" xmlns:xlink="http://www.w3.org/1999/xlink" x="0px" y="0px"
	 viewBox="0 0 198.4 198.4" enable-background="new 0 0 198.4 198.4" xml:space="preserve">
<g id="Слой_6">
	<g>
		<path fill="#00983A" d="M164.7,187l-129.8,1.2l-1.8,0l0-1.8l-0.3-43l-0.3-43l-0.6-85.9l0-3.1l3.2-0.1c5.4-0.1,10.8-0.3,16.2-0.4
			l16.2-0.2l16.2-0.2l16.2-0.1l16.2-0.1l16.2,0l16.2,0l16.2,0.1l4.2,0l0,4.1l-0.2,21.5l-0.3,21.5c-0.1,7.2-0.2,14.3-0.3,21.5
			l-0.4,21.5l-0.5,21.5l-0.6,21.5l-0.7,21.5c-0.3,7.2-0.6,14.3-0.9,21.5L164.7,187z M163.9,186.2c-0.3-7-0.6-14.1-0.8-21.1
			l-0.7-21.5l-0.6-21.5l-0.5-21.5L161,79.1c-0.1-7.2-0.2-14.3-0.3-21.5l-0.2-21.5l-0.1-21.5l4.1,4.1l-16.2,0.1l-16.2,0l-16.2,0
			l-16.2-0.1l-16.2-0.1l-16.2-0.2l-16.2-0.3C45.8,18,40.4,17.9,35,17.7l3.2-3.2l-0.8,85.9l-0.4,43l-0.4,43l-1.8-1.8L163.9,186.2z"/>
	</g>
	<g>
		<g>
			<path fill="#00983A" d="M141.8,157.9l0.2,1c0,0.4,0,0.7,0,1.1c0,0.4-0.1,0.7-0.1,1.1c-0.1,0.4-0.2,0.7-0.2,1.1
				c-0.1,0.3-0.2,0.7-0.4,1c-0.1,0.3-0.3,0.7-0.5,1l-0.6,0.9l-0.7,0.8l-0.8,0.8c-0.3,0.2-0.6,0.4-0.9,0.7c-0.3,0.2-0.6,0.4-1,0.5
				c-0.3,0.1-0.7,0.3-1,0.4c-0.4,0.1-0.7,0.2-1.1,0.3c-0.4,0.1-0.7,0.1-1.1,0.2c-0.4,0-0.8,0-1.1,0l-1.1-0.1l0.2,0l-1.1,0.2
				c-0.4,0-0.8,0-1.1,0c-0.4,0-0.8-0.1-1.1-0.1c-0.4-0.1-0.7-0.2-1.1-0.2c-0.4-0.1-0.7-0.3-1.1-0.4c-0.3-0.2-0.7-0.3-1-0.5
				c-0.3-0.2-0.6-0.4-1-0.6l-0.9-0.7l-0.8-0.8c-0.2-0.3-0.5-0.6-0.7-0.9c-0.2-0.3-0.4-0.7-0.6-1c-0.1-0.4-0.3-0.7-0.4-1.1
				c-0.1-0.4-0.2-0.7-0.3-1.1c-0.1-0.4-0.1-0.8-0.2-1.2c0-0.4,0-0.8,0-1.2l0.1-1.2l0,0.3l-0.2-1.2c0-0.4,0-0.8,0-1.2
				c0-0.4,0.1-0.8,0.1-1.2c0.1-0.4,0.2-0.8,0.3-1.2c0.1-0.4,0.3-0.7,0.4-1.1c0.2-0.4,0.3-0.7,0.5-1.1c0.2-0.3,0.4-0.7,0.6-1l0.8-0.9
				l0.9-0.8c0.3-0.2,0.6-0.5,1-0.7c0.3-0.2,0.7-0.4,1-0.6c0.4-0.1,0.7-0.3,1.1-0.4c0.4-0.1,0.8-0.2,1.2-0.3c0.4,0,0.8-0.1,1.2-0.1
				c0.4,0,0.8,0,1.2,0l1.2,0.2l-0.4,0l1.2-0.1c0.4,0,0.8,0,1.2,0c0.4,0,0.8,0.1,1.2,0.2c0.4,0.1,0.8,0.2,1.1,0.3
				c0.4,0.1,0.7,0.3,1.1,0.5c0.3,0.2,0.7,0.4,1,0.6c0.3,0.2,0.6,0.5,0.9,0.7l0.8,0.8l0.7,0.9c0.2,0.3,0.4,0.6,0.6,1
				c0.2,0.3,0.3,0.7,0.5,1c0.1,0.4,0.3,0.7,0.4,1.1c0.1,0.4,0.2,0.7,0.2,1.1c0,0.4,0.1,0.7,0,1.1c0,0.4,0,0.7-0.1,1.1L141.8,157.9z
				 M141.6,157.9l0-1.1c0-0.3-0.1-0.7-0.1-1c0-0.3-0.1-0.7-0.2-1c-0.1-0.3-0.2-0.6-0.3-1c-0.1-0.3-0.3-0.6-0.4-0.9
				c-0.2-0.3-0.4-0.6-0.5-0.9l-0.6-0.8l-0.7-0.7l-0.8-0.6l-0.8-0.5c-0.3-0.1-0.6-0.3-0.9-0.4c-0.3-0.1-0.6-0.2-0.9-0.3
				c-0.3-0.1-0.6-0.1-0.9-0.2c-0.3,0-0.6-0.1-0.9-0.1l-0.9,0l-0.9,0.2l-0.2,0l-0.2,0l-0.9-0.1c-0.3,0-0.6,0-0.9,0
				c-0.3,0-0.6,0.1-0.9,0.1c-0.3,0.1-0.6,0.2-0.9,0.2l-0.9,0.3c-0.3,0.1-0.6,0.3-0.8,0.4l-0.8,0.5l-0.7,0.6l-0.6,0.7l-0.6,0.8
				c-0.2,0.3-0.3,0.6-0.5,0.8c-0.1,0.3-0.3,0.6-0.4,0.9c-0.1,0.3-0.2,0.6-0.2,0.9c0,0.3-0.1,0.6-0.1,1l0,1l0.1,1l0,0.2l0,0.1l-0.1,1
				c0,0.3,0,0.6,0,1c0,0.3,0.1,0.6,0.1,1c0.1,0.3,0.1,0.6,0.2,1c0.1,0.3,0.2,0.6,0.3,0.9c0.1,0.3,0.3,0.6,0.4,0.9l0.6,0.8l0.6,0.7
				l0.7,0.7l0.8,0.6c0.3,0.2,0.6,0.3,0.9,0.5c0.3,0.1,0.6,0.3,0.9,0.4c0.3,0.1,0.6,0.2,1,0.3c0.3,0,0.7,0.1,1,0.1c0.3,0,0.7,0,1,0
				l1-0.1l0.1,0l0.1,0l1,0.2c0.3,0,0.7,0,1,0c0.3,0,0.7-0.1,1-0.1c0.3-0.1,0.7-0.2,1-0.2c0.3-0.1,0.6-0.2,1-0.3
				c0.3-0.1,0.6-0.3,0.9-0.5l0.9-0.6l0.8-0.7l0.7-0.8l0.6-0.8c0.2-0.3,0.3-0.6,0.5-0.9c0.1-0.3,0.3-0.6,0.4-1c0.1-0.3,0.2-0.7,0.3-1
				c0-0.3,0.1-0.7,0.1-1c0-0.3,0-0.7,0-1L141.6,157.9z"/>
		</g>
		<g>
			<path fill="#00983A" d="M92.4,155.8l0.3,1.6c0,0.6,0.1,1.1,0.1,1.7c0,0.6-0.1,1.1-0.1,1.7c-0.1,0.6-0.2,1.1-0.3,1.7
				c-0.2,0.5-0.4,1.1-0.6,1.6c-0.2,0.5-0.5,1-0.7,1.5c-0.3,0.5-0.6,1-0.9,1.4l-1.1,1.3l-1.2,1.2c-0.5,0.3-0.9,0.7-1.4,1
				c-0.5,0.3-1,0.6-1.5,0.9c-0.5,0.2-1.1,0.5-1.6,0.7c-0.6,0.2-1.1,0.3-1.7,0.5c-0.6,0.1-1.2,0.2-1.7,0.3c-0.6,0-1.2,0-1.8,0
				l-1.8-0.2l0.4,0l-1.7,0.3c-0.6,0-1.2,0-1.8,0.1c-0.6,0-1.2-0.1-1.8-0.2c-0.6-0.1-1.2-0.3-1.7-0.4c-0.6-0.2-1.1-0.4-1.7-0.6
				c-0.5-0.2-1.1-0.5-1.6-0.8c-0.5-0.3-1-0.7-1.5-1l-1.4-1.2l-1.2-1.3c-0.4-0.5-0.7-1-1.1-1.5c-0.3-0.5-0.6-1-0.9-1.6
				c-0.2-0.6-0.5-1.1-0.7-1.7c-0.2-0.6-0.4-1.2-0.5-1.8c-0.1-0.6-0.2-1.2-0.3-1.8c0-0.6,0-1.2,0-1.8l0.2-1.8l0,0.6l-0.3-1.8
				c0-0.6,0-1.2-0.1-1.9c0-0.6,0.1-1.2,0.2-1.9c0.1-0.6,0.3-1.2,0.4-1.8c0.2-0.6,0.4-1.2,0.6-1.8c0.3-0.6,0.5-1.1,0.8-1.7
				c0.3-0.5,0.7-1,1-1.6l1.2-1.4c0.5-0.4,0.9-0.9,1.4-1.3c0.5-0.4,1-0.8,1.5-1.1c0.6-0.3,1.1-0.6,1.7-0.9c0.6-0.2,1.2-0.5,1.8-0.7
				c0.6-0.2,1.2-0.3,1.9-0.5c0.6-0.1,1.3-0.2,1.9-0.2c0.6,0,1.3,0,1.9,0l1.9,0.3l-0.8,0l1.9-0.2c0.6,0,1.3,0,1.9,0
				c0.6,0.1,1.2,0.2,1.9,0.3c0.6,0.1,1.2,0.3,1.8,0.5c0.6,0.2,1.1,0.5,1.7,0.7c0.5,0.3,1.1,0.6,1.6,0.9c0.5,0.4,1,0.7,1.5,1.1
				l1.3,1.3l1.1,1.4c0.3,0.5,0.6,1,0.9,1.5c0.2,0.5,0.5,1.1,0.7,1.6c0.2,0.6,0.4,1.1,0.5,1.7c0.1,0.6,0.2,1.2,0.3,1.7
				c0,0.6,0.1,1.2,0,1.7c-0.1,0.6-0.1,1.1-0.2,1.7L92.4,155.8z M92,155.9L92,155.9l0-1.7c0-0.5-0.1-1.1-0.2-1.6
				c-0.1-0.5-0.2-1-0.3-1.5c-0.1-0.5-0.4-1-0.5-1.5c-0.2-0.5-0.5-0.9-0.7-1.4c-0.3-0.4-0.6-0.8-0.8-1.3l-1-1.2l-1.1-1l-1.2-0.9
				l-1.3-0.8c-0.4-0.2-0.9-0.4-1.3-0.6c-0.5-0.1-0.9-0.3-1.4-0.4c-0.5-0.1-0.9-0.2-1.4-0.3c-0.5,0-0.9-0.1-1.4-0.1
				c-0.5,0-0.9,0-1.4,0.1l-1.4,0.2l-0.3,0.1l-0.5-0.1l-1.4-0.2c-0.5,0-0.9,0-1.4,0c-0.5,0-0.9,0.1-1.4,0.2c-0.5,0.1-0.9,0.2-1.3,0.3
				c-0.4,0.1-0.9,0.3-1.3,0.5c-0.4,0.2-0.8,0.4-1.2,0.6l-1.2,0.8l-1.1,0.9l-1,1l-0.8,1.1c-0.2,0.4-0.5,0.8-0.7,1.2
				c-0.2,0.4-0.4,0.9-0.5,1.3c-0.1,0.5-0.3,0.9-0.4,1.4c-0.1,0.5-0.2,0.9-0.2,1.4c0,0.5,0,1,0,1.4l0.2,1.4l0,0.4l0,0.3l-0.2,1.4
				c0,0.5,0,1,0,1.4c0,0.5,0.1,1,0.1,1.4c0.1,0.5,0.2,0.9,0.3,1.4c0.1,0.5,0.3,0.9,0.5,1.4c0.2,0.4,0.4,0.9,0.7,1.3l0.8,1.2l1,1.1
				l1.1,1l1.2,0.9c0.4,0.2,0.9,0.5,1.3,0.7c0.5,0.2,0.9,0.4,1.4,0.6c0.5,0.1,1,0.3,1.5,0.4c0.5,0.1,1,0.2,1.5,0.2c0.5,0,1,0,1.5,0
				l1.5-0.2l0.2,0l0.2,0l1.5,0.2c0.5,0,1,0,1.5,0.1c0.5,0,1-0.1,1.5-0.1c0.5-0.1,1-0.2,1.5-0.3c0.5-0.1,1-0.3,1.5-0.5
				c0.5-0.2,0.9-0.5,1.4-0.7c0.4-0.3,0.9-0.6,1.3-0.9l1.2-1l1.1-1.2c0.3-0.4,0.6-0.8,0.9-1.3c0.3-0.5,0.5-0.9,0.8-1.4
				c0.2-0.5,0.4-1,0.6-1.5c0.1-0.5,0.3-1,0.4-1.5c0.1-0.5,0.2-1.1,0.2-1.6c0-0.5,0-1.1,0-1.6L92,155.9z"/>
		</g>
		<g>
			<path fill="#00983A" d="M126.8,147.7c0.1,1.6,0,3.3-0.1,4.9c-0.1,0.8-0.2,1.6-0.3,2.5c-0.1,0.8-0.3,1.6-0.5,2.4l-0.3,1.2
				l-0.4,1.2l-0.4,1.2l-0.5,1.2l-0.6,1.1l-0.7,1.1l-0.8,1l-0.9,1l0,0l-0.9,1l-1,0.9l-1,0.8l-1.1,0.7l-1.1,0.6l-1.2,0.5l-1.2,0.5
				l-1.2,0.4c-1.6,0.5-3.3,0.8-5,1c-1.7,0.2-3.4,0.3-5.1,0.2l0.2,0c-3.4,0.3-6.9,0.1-10.3-0.6l-1.3-0.3l-1.3-0.4l-1.3-0.5l-1.2-0.5
				l-1.2-0.6l-1.2-0.7l-1.1-0.9l-1-1l0.1,0.1l-1-1l-0.9-1.1l-0.8-1.1l-0.7-1.2l-0.6-1.2l-0.5-1.3l-0.5-1.3l-0.4-1.3
				c-0.9-3.4-1.3-6.9-1.1-10.5l0,0.3c-0.3-3.5-0.1-7,0.6-10.5l0.3-1.3l0.4-1.3l0.5-1.3l0.6-1.3l0.7-1.3l0.8-1.2l0.9-1.2l1-1.1
				l-0.2,0.2l1.1-1.1l1.2-1l1.2-0.9c0.4-0.3,0.8-0.5,1.3-0.7l1.3-0.6l1.3-0.5l1.3-0.5l1.3-0.4c1.8-0.4,3.6-0.7,5.4-0.9
				c1.8-0.1,3.6-0.1,5.4,0l-0.4,0c1.8,0,3.5,0,5.3,0.3c1.8,0.2,3.5,0.6,5.2,1.1c0.4,0.1,0.9,0.3,1.3,0.4l1.3,0.5l1.2,0.6l1.2,0.7
				c0.4,0.2,0.8,0.5,1.2,0.8l1.1,0.9l1,1l0.9,1.1l-0.1-0.1l0.9,1.1l0.8,1.1l0.7,1.2l0.6,1.2l0.5,1.2l0.4,1.2l0.3,1.2l0.3,1.2
				c0.2,0.8,0.3,1.7,0.4,2.5c0.1,0.8,0.1,1.7,0.2,2.5c0,0.8,0,1.7,0,2.5C126.9,146,126.9,146.9,126.8,147.7z M126.2,147.7
				c0.1-1.6,0-3.3-0.2-4.9c-0.2-1.6-0.6-3.2-1.1-4.7c-0.1-0.4-0.3-0.8-0.4-1.1l-0.5-1.1l-0.5-1.1l-0.6-1c-0.2-0.3-0.4-0.6-0.7-0.9
				l-0.7-0.9l-0.8-0.8l-0.8-0.7l-0.1-0.1l-0.9-0.7l-0.9-0.6l-1-0.5l-1-0.4l-1-0.4l-1.1-0.3l-1.1-0.2l-1.1-0.2
				c-0.7-0.1-1.5-0.2-2.2-0.3c-0.8-0.1-1.5-0.1-2.3-0.1c-0.8,0-1.5,0-2.3,0c-0.8,0-1.5,0.1-2.3,0.1l-0.1,0l-0.3,0
				c-1.5-0.1-3,0-4.5,0.2c-0.7,0.1-1.5,0.2-2.2,0.3c-0.7,0.1-1.4,0.3-2.1,0.5l-1,0.3l-1,0.3l-1,0.4l-0.9,0.4l-0.9,0.5l-0.8,0.5
				l-0.8,0.6l-0.7,0.6l-0.2,0.2l-0.7,0.7l-0.6,0.7l-0.6,0.8l-0.5,0.9l-0.5,0.9l-0.4,1l-0.4,1l-0.3,1.1c-0.8,2.9-1.1,6-1,9l0,0.2
				l0,0.1c-0.2,3-0.1,6.2,0.6,9.1l0.3,1.1l0.3,1.1l0.4,1l0.4,1l0.5,1l0.6,0.9l0.6,0.8l0.7,0.8l0.1,0.1l0.7,0.7l0.8,0.7l0.9,0.6
				l0.9,0.6l1,0.5l1,0.4l1.1,0.4l1.1,0.3c3,0.8,6.2,1.1,9.3,1l0.1,0l0,0c1.6,0.1,3.1,0.2,4.7,0.1c0.8,0,1.6-0.1,2.4-0.2
				c0.8-0.1,1.6-0.2,2.3-0.4l1.2-0.3l1.1-0.3l1.1-0.4l1.1-0.5l1-0.5l1-0.6l0.9-0.7l0.9-0.8l0,0l0.8-0.8l0.8-0.9l0.7-1
				c0.2-0.3,0.4-0.7,0.6-1l0.5-1.1l0.5-1.1c0.3-0.8,0.5-1.5,0.7-2.3c0.4-1.6,0.7-3.2,0.8-4.8C126.3,151,126.3,149.3,126.2,147.7
				L126.2,147.7L126.2,147.7z"/>
		</g>
	</g>
	<path fill="#00983A" d="M128.4,29.7c0,0-16.1,33.2-37.5,30.5C78,58.5,72.5,43.9,72.5,43.9s-1.8,11.7,2.1,27.9c5.2,21.3,31,44,31,44
		S90.4,91.5,96.9,89c6.7-2.6,14.1,26.1,14.1,26.1s-2-23.1,1.1-38.5C117,52.7,128.4,29.7,128.4,29.7z"/>
	<path fill="#00983A" d="M83.2,39.3c0.7,5.9,6.1,10.1,12,9.4c5.9-0.7,10.1-6.1,9.4-12c-0.7-5.9-6.1-10.1-12-9.4
		C86.7,28,82.5,33.3,83.2,39.3z"/>
</g>
</svg>
