<?xml version="1.0" encoding="utf-8"?>
<!-- Generator: Adobe Illustrator 18.0.0, SVG Export Plug-In . SVG Version: 6.00 Build 0)  -->
<!DOCTYPE svg PUBLIC "-//W3C//DTD SVG 1.1//EN" "http://www.w3.org/Graphics/SVG/1.1/DTD/svg11.dtd">
<svg version="1.1" id="Слой_6" xmlns="http://www.w3.org/2000/svg" xmlns:xlink="http://www.w3.org/1999/xlink" x="0px" y="0px"
	 viewBox="0 0 85.5 109.1" enable-background="new 0 0 85.5 109.1" xml:space="preserve">
<g>
	<path fill="#00983A" d="M80.5,106.3L42.3,107l-37.9,0.6l-1.8,0l0-1.8L1.9,55.5L1.6,30.3L1.3,5.2l0-3.1L4.5,2
		c3.2-0.1,6.3-0.3,9.5-0.4c3.2-0.1,6.3-0.2,9.5-0.3c3.2-0.1,6.3-0.1,9.5-0.2c3.2,0,6.3-0.1,9.5-0.1L51.9,1c3.2,0,6.3,0,9.5,0l9.5,0
		l9.5,0.1l4.2,0l-0.1,4.1l-0.2,12.6L84,30.4c-0.1,4.2-0.2,8.4-0.3,12.6l-0.4,12.6l-0.5,12.6c-0.2,4.2-0.4,8.4-0.6,12.6
		c-0.2,4.2-0.5,8.4-0.7,12.6c-0.3,4.2-0.6,8.4-0.9,12.6L80.5,106.3z M79.7,105.5c-0.3-4.1-0.6-8.1-0.8-12.2
		c-0.2-4.2-0.5-8.4-0.7-12.6c-0.2-4.2-0.4-8.4-0.6-12.6l-0.5-12.6L76.8,43c-0.1-4.2-0.2-8.4-0.3-12.6l-0.2-12.6L76.1,5.3l4.1,4.1
		l-9.5,0.1l-9.5,0c-3.2,0-6.3,0-9.5,0l-9.5-0.1c-3.2,0-6.3-0.1-9.5-0.1c-3.2-0.1-6.3-0.1-9.5-0.2C20.3,9,17.1,8.9,14,8.8
		c-3.2-0.1-6.3-0.2-9.5-0.4l3.2-3.2L7.4,30.4L7,55.5l-0.8,50.3L4.4,104l37.9,0.7L79.7,105.5z"/>
</g>
<g>
	<g>
		<path fill="#00983A" d="M67,89.1l0.1,0.6c0,0.2,0,0.4,0,0.6c0,0.4-0.1,0.9-0.2,1.3c-0.1,0.4-0.3,0.8-0.5,1.2l-0.4,0.6l-0.4,0.5
			l-0.5,0.5l-0.5,0.4c-0.4,0.2-0.8,0.4-1.2,0.6c-0.4,0.1-0.9,0.2-1.3,0.3c-0.2,0-0.5,0-0.7,0l-0.7-0.1l0.2,0l-0.7,0.1
			c-0.2,0-0.5,0-0.7,0c-0.5,0-0.9-0.1-1.4-0.2c-0.4-0.1-0.9-0.3-1.3-0.5l-0.6-0.4l-0.5-0.4l-0.5-0.5L55,93.1
			c-0.3-0.4-0.5-0.8-0.6-1.3c-0.2-0.5-0.3-0.9-0.3-1.4c0-0.2,0-0.5,0-0.7l0.1-0.7l0,0.3L54,88.6c0-0.2,0-0.5,0-0.7
			c0-0.5,0.1-1,0.2-1.5c0.1-0.5,0.3-0.9,0.6-1.4l0.4-0.6l0.5-0.6l0.5-0.5c0.2-0.1,0.4-0.3,0.6-0.4c0.4-0.3,0.9-0.5,1.4-0.7
			c0.5-0.1,1-0.2,1.5-0.3c0.3,0,0.5,0,0.8,0l0.7,0.1l-0.4,0l0.7-0.1c0.2,0,0.5,0,0.7,0c0.5,0.1,1,0.2,1.4,0.3
			c0.5,0.2,0.9,0.4,1.3,0.7c0.2,0.1,0.4,0.3,0.6,0.4L66,84c0.3,0.4,0.6,0.7,0.8,1.2c0.2,0.4,0.4,0.9,0.5,1.3
			c0.1,0.5,0.1,0.9,0.1,1.4c0,0.2-0.1,0.4-0.1,0.7L67,89.1z M66.8,89.1L66.8,89.1c0-0.5,0-0.9-0.1-1.3c-0.1-0.4-0.2-0.8-0.4-1.1
			c-0.2-0.3-0.4-0.7-0.6-1l-0.4-0.4L65,85c-0.3-0.2-0.6-0.4-0.9-0.6c-0.3-0.2-0.7-0.3-1-0.4c-0.3-0.1-0.7-0.1-1-0.1l-0.5,0l-0.5,0.1
			l-0.1,0l-0.3,0l-0.5,0l-0.5,0c-0.3,0-0.7,0.1-1,0.2c-0.3,0.1-0.6,0.2-0.9,0.4l-0.4,0.3L57,85.3l-0.4,0.4L56.3,86
			c-0.2,0.3-0.3,0.6-0.5,0.9c-0.1,0.3-0.2,0.7-0.2,1l0,0.5l0.1,0.5l0,0.2l0,0.1l-0.1,0.5l0,0.5c0,0.4,0.1,0.7,0.2,1
			c0.1,0.3,0.2,0.7,0.4,1l0.3,0.5l0.4,0.4l0.4,0.4l0.4,0.3c0.3,0.2,0.6,0.4,1,0.5c0.4,0.1,0.7,0.2,1.1,0.2l0.6,0l0.6-0.1l0.1,0
			l0.1,0l0.6,0.1l0.6,0c0.4,0,0.8-0.1,1.1-0.2c0.4-0.1,0.7-0.3,1.1-0.4l0.5-0.3l0.5-0.4l0.4-0.4l0.4-0.5c0.2-0.3,0.4-0.7,0.5-1.1
			c0.1-0.4,0.2-0.8,0.3-1.2l0-0.6L66.8,89.1z"/>
	</g>
	<g>
		<path fill="#00983A" d="M38.1,87.9l0.2,0.9c0,0.3,0,0.7,0.1,1c0,0.3,0,0.7-0.1,1c0,0.3-0.1,0.7-0.2,1c-0.1,0.3-0.2,0.6-0.3,1
			c-0.1,0.3-0.3,0.6-0.4,0.9c-0.2,0.3-0.4,0.6-0.5,0.9l-0.6,0.8l-0.7,0.7c-0.3,0.2-0.5,0.4-0.8,0.6c-0.3,0.2-0.6,0.4-0.9,0.5
			c-0.3,0.1-0.6,0.3-1,0.4c-0.3,0.1-0.7,0.2-1,0.3c-0.4,0.1-0.7,0.1-1.1,0.2c-0.4,0-0.7,0-1.1,0l-1.1-0.1l0.4,0l-1.1,0.2
			c-0.4,0-0.7,0-1.1,0.1c-0.4,0-0.7-0.1-1.1-0.1c-0.4-0.1-0.7-0.1-1.1-0.2c-0.4-0.1-0.7-0.2-1.1-0.4c-0.3-0.1-0.7-0.3-1-0.5
			c-0.3-0.2-0.6-0.4-0.9-0.6L20.7,96L20,95.2c-0.2-0.3-0.5-0.6-0.7-0.9c-0.2-0.3-0.4-0.6-0.6-1c-0.2-0.3-0.3-0.7-0.4-1.1
			c-0.1-0.4-0.2-0.7-0.3-1.1c-0.1-0.4-0.1-0.8-0.2-1.1c0-0.4,0-0.8,0-1.2l0.1-1.2l0,0.6l-0.2-1.1c0-0.4,0-0.8-0.1-1.2
			c0-0.4,0.1-0.8,0.1-1.2c0.1-0.4,0.2-0.8,0.2-1.2c0.1-0.4,0.2-0.7,0.4-1.1c0.2-0.4,0.3-0.7,0.5-1.1c0.2-0.3,0.4-0.7,0.6-1l0.7-0.9
			c0.3-0.3,0.6-0.6,0.9-0.8c0.3-0.2,0.6-0.5,1-0.7c0.4-0.2,0.7-0.4,1.1-0.6c0.4-0.2,0.7-0.3,1.1-0.5c0.4-0.1,0.8-0.2,1.2-0.3
			c0.4,0,0.8-0.1,1.2-0.1c0.4,0,0.8,0,1.2,0l1.2,0.2l-0.8,0l1.2-0.1c0.4,0,0.8,0,1.2,0c0.4,0,0.8,0.1,1.2,0.2
			c0.4,0.1,0.8,0.2,1.1,0.3c0.4,0.1,0.7,0.3,1.1,0.5c0.3,0.2,0.7,0.4,1,0.6c0.3,0.2,0.6,0.5,0.9,0.7l0.8,0.8l0.7,0.9
			c0.2,0.3,0.4,0.6,0.5,1c0.1,0.3,0.3,0.7,0.4,1c0.1,0.4,0.2,0.7,0.3,1.1c0,0.4,0.1,0.7,0.1,1.1c0,0.4,0,0.7,0,1.1
			c-0.1,0.3-0.1,0.7-0.2,1L38.1,87.9z M37.7,87.1l0-0.2c0-0.3-0.1-0.6-0.2-0.9l-0.3-0.8c-0.1-0.3-0.2-0.5-0.4-0.8
			c-0.1-0.3-0.3-0.5-0.4-0.7c-0.2-0.2-0.3-0.4-0.5-0.7l-0.6-0.6l-0.6-0.5l-0.7-0.4l-0.7-0.4l-0.7-0.3c-0.2-0.1-0.5-0.1-0.7-0.2
			c-0.3,0-0.5-0.1-0.7-0.1c-0.2,0-0.5,0-0.7,0l-0.7,0.1l-0.7,0.2l-0.2,0.1l-0.6,0l-0.7-0.1l-0.7,0l-0.7,0.1c-0.2,0-0.4,0.1-0.7,0.2
			l-0.7,0.2l-0.6,0.3l-0.6,0.4L23,82.3l-0.5,0.5L22,83.4L21.6,84c-0.1,0.2-0.2,0.4-0.3,0.7c-0.1,0.2-0.2,0.5-0.2,0.7
			c0,0.2-0.1,0.5-0.1,0.7l0,0.8l0.1,0.8l0,0.4l0,0.2l-0.1,0.8l0,0.8c0,0.3,0,0.5,0.1,0.8c0,0.3,0.1,0.5,0.2,0.8
			c0.1,0.2,0.2,0.5,0.3,0.7c0.1,0.2,0.2,0.5,0.3,0.7l0.4,0.7l0.5,0.6l0.6,0.6l0.6,0.5l0.7,0.4c0.2,0.1,0.5,0.2,0.7,0.3
			c0.3,0.1,0.5,0.2,0.8,0.2c0.3,0,0.5,0.1,0.8,0.1l0.8,0l0.8-0.1l0.3,0l0.1,0l0.8,0.2c0.3,0,0.6,0,0.8,0.1c0.3,0,0.6,0,0.8-0.1
			c0.3,0,0.6-0.1,0.8-0.2c0.3-0.1,0.5-0.2,0.8-0.3c0.3-0.1,0.5-0.2,0.8-0.4l0.7-0.5l0.7-0.6l0.6-0.6l0.5-0.7
			c0.2-0.3,0.3-0.5,0.5-0.8c0.1-0.3,0.3-0.5,0.4-0.8c0.1-0.3,0.2-0.6,0.3-0.9c0.1-0.3,0.1-0.6,0.2-0.9c0-0.3,0-0.6,0-0.9l-0.1-1
			L37.7,87.1z"/>
	</g>
	<g>
		<path fill="#00983A" d="M58.4,83.2l0.3,1.4c0.1,0.5,0.1,1,0.1,1.5c0,0.5-0.1,1-0.1,1.5c-0.1,0.5-0.2,1-0.3,1.5
			c-0.1,0.5-0.3,1-0.5,1.5c-0.2,0.5-0.4,0.9-0.7,1.4c-0.3,0.4-0.5,0.9-0.8,1.3l-1,1.2l-1.1,1.1c-0.4,0.3-0.8,0.7-1.2,1
			c-0.4,0.3-0.9,0.6-1.4,0.8c-0.5,0.2-1,0.5-1.5,0.6c-0.5,0.2-1,0.3-1.5,0.5c-0.5,0.1-1.1,0.2-1.6,0.3c-0.5,0-1.1,0.1-1.6,0.1
			l-1.6-0.1l0.6,0l-1.6,0.3c-0.5,0-1.1,0.1-1.6,0.1c-0.6,0-1.1-0.1-1.7-0.1c-0.5-0.1-1.1-0.2-1.6-0.3c-0.5-0.2-1.1-0.4-1.6-0.5
			c-0.5-0.2-1-0.5-1.5-0.7c-0.5-0.3-0.9-0.6-1.4-0.9l-1.3-1.1c-0.4-0.4-0.8-0.8-1.2-1.2c-0.3-0.4-0.7-0.9-1-1.4
			c-0.3-0.5-0.6-1-0.9-1.5c-0.2-0.5-0.5-1-0.7-1.6c-0.2-0.6-0.3-1.1-0.5-1.7c-0.1-0.6-0.2-1.1-0.3-1.7c0-0.6,0-1.2,0-1.7l0.2-1.7
			l0,1L27.5,82c0-0.6-0.1-1.2-0.1-1.8c0-0.6,0.1-1.2,0.1-1.8c0.1-0.6,0.2-1.2,0.3-1.7c0.2-0.6,0.4-1.1,0.6-1.7
			c0.2-0.5,0.5-1.1,0.8-1.6c0.3-0.5,0.6-1,0.9-1.5c0.4-0.5,0.7-0.9,1.1-1.4c0.4-0.4,0.9-0.8,1.3-1.2c0.5-0.4,0.9-0.7,1.5-1.1
			c0.5-0.3,1-0.6,1.6-0.9c0.6-0.2,1.1-0.5,1.7-0.7c0.6-0.2,1.2-0.3,1.8-0.4c0.6-0.1,1.2-0.2,1.8-0.2c0.6,0,1.2,0,1.8,0.1l1.8,0.3
			l-1.2,0l1.8-0.2c0.6,0,1.2,0,1.8,0.1c0.6,0.1,1.2,0.2,1.8,0.3c0.6,0.1,1.1,0.3,1.7,0.5c0.6,0.2,1.1,0.5,1.6,0.7
			c0.5,0.3,1,0.6,1.5,0.9c0.5,0.4,0.9,0.7,1.3,1.1c0.4,0.4,0.8,0.8,1.2,1.2c0.3,0.5,0.7,0.9,1,1.4c0.3,0.5,0.6,1,0.8,1.5
			c0.2,0.5,0.4,1,0.6,1.5c0.1,0.5,0.3,1.1,0.4,1.6c0.1,0.5,0.1,1.1,0.2,1.6c0,0.5,0,1.1-0.1,1.6c-0.1,0.5-0.2,1-0.3,1.5
			C58.7,82.2,58.5,82.7,58.4,83.2z M57.6,81.8l0-0.1c-0.1-0.5-0.2-0.9-0.3-1.4c-0.1-0.4-0.3-0.9-0.4-1.3c-0.2-0.4-0.4-0.8-0.5-1.2
			c-0.2-0.4-0.4-0.7-0.6-1.1c-0.2-0.3-0.5-0.7-0.8-1l-0.9-0.9L53.2,74l-1-0.7l-1-0.6l-1.1-0.4c-0.4-0.1-0.7-0.2-1.1-0.3
			c-0.4,0-0.7-0.1-1.1-0.2c-0.4,0-0.7,0-1.1,0L45.7,72c-0.4,0.1-0.7,0.2-1.1,0.2l-0.3,0.1l-0.9-0.1c-0.4,0-0.7-0.1-1.1-0.1l-1.1,0
			l-1,0.1c-0.3,0.1-0.7,0.2-1,0.3l-1,0.4c-0.3,0.1-0.6,0.3-1,0.5L36.4,74l-0.9,0.7l-0.8,0.8l-0.7,0.9l-0.6,1c-0.1,0.3-0.3,0.7-0.5,1
			c-0.1,0.4-0.2,0.7-0.3,1.1c-0.1,0.4-0.2,0.7-0.2,1.1l0,1.1l0.1,1.1l0.1,0.7l-0.1,0.3l-0.2,1.1c0,0.4,0,0.8-0.1,1.2
			c0,0.4,0.1,0.8,0.1,1.2c0.1,0.4,0.2,0.8,0.2,1.1c0.1,0.4,0.3,0.7,0.4,1.1c0.2,0.4,0.4,0.7,0.5,1.1l0.7,1l0.8,0.9l0.9,0.8l1,0.7
			c0.4,0.2,0.7,0.4,1.1,0.6c0.4,0.2,0.7,0.3,1.1,0.5c0.4,0.1,0.8,0.3,1.2,0.4c0.4,0.1,0.8,0.2,1.2,0.2c0.4,0,0.8,0,1.2,0l1.3-0.1
			l0.4,0l0.2,0l1.2,0.2c0.4,0,0.8,0.1,1.3,0.1c0.4,0,0.8-0.1,1.3-0.1c0.4-0.1,0.8-0.2,1.3-0.2c0.4-0.1,0.8-0.3,1.2-0.4
			c0.4-0.2,0.8-0.4,1.2-0.6l1.1-0.7l1-0.8l0.9-1l0.8-1.1c0.2-0.4,0.5-0.8,0.7-1.2c0.2-0.4,0.4-0.8,0.6-1.3c0.1-0.4,0.3-0.9,0.4-1.3
			c0.1-0.5,0.2-0.9,0.2-1.4c0-0.5,0.1-0.9,0.1-1.4l-0.1-1.4L57.6,81.8z"/>
	</g>
</g>
<path fill="#00983A" d="M59.2,14.1c0,0-9.4,19.5-22,17.9c-7.6-1-10.8-9.6-10.8-9.6s-1.1,6.9,1.2,16.3c3,12.4,18.1,25.8,18.1,25.8
	s-8.9-14.2-5.1-15.7c3.9-1.5,8.2,15.3,8.2,15.3s-1.2-13.5,0.7-22.5C52.5,27.6,59.2,14.1,59.2,14.1z"/>
<path fill="#00983A" d="M32.7,19.7c0.4,3.5,3.6,5.9,7,5.5c3.5-0.4,5.9-3.6,5.5-7c-0.4-3.5-3.6-5.9-7-5.5
	C34.8,13.1,32.3,16.2,32.7,19.7z"/>
</svg>
