<?xml version="1.0" encoding="utf-8"?>
<!-- Generator: Adobe Illustrator 18.0.0, SVG Export Plug-In . SVG Version: 6.00 Build 0)  -->
<!DOCTYPE svg PUBLIC "-//W3C//DTD SVG 1.1//EN" "http://www.w3.org/Graphics/SVG/1.1/DTD/svg11.dtd">
<svg version="1.1" id="Слой_1" xmlns="http://www.w3.org/2000/svg" xmlns:xlink="http://www.w3.org/1999/xlink" x="0px" y="0px"
	 viewBox="0 0 757.1 433.1" enable-background="new 0 0 757.1 433.1" xml:space="preserve">
<g>
	<rect x="7.2" y="9" fill="#27348B" width="740.7" height="416.6"/>
	<g>
		<path fill="#FFFFFF" d="M748.4,426.2L7.2,428.8l-3.2,0l0-3.2L2.8,9l0-4.4l4.4,0l46.3-0.4l46.3-0.3l92.6-0.4L285,3.2l92.6-0.1
			l92.6,0.1l92.6,0.2l92.6,0.4l92.6,0.5l4.8,0l0,4.7L752,113.2l-0.9,104.1l-1.1,104.1l-0.7,52.1L748.4,426.2z M747.3,425.1
			l-0.8-51.5l-0.7-52.1l-1.1-104.1l-0.9-104.1L743.1,9l4.7,4.7l-92.6,0.5l-92.6,0.4l-92.6,0.2l-92.6,0.1L285,14.8l-92.6-0.2
			l-92.6-0.4l-46.3-0.3L7.2,13.4L11.6,9l-1.2,416.6l-3.2-3.2L747.3,425.1z"/>
	</g>
</g>
<g>
	<path fill="#FFFFFF" d="M117.3,80.4v77.5H98v-41.5c0-6-0.1-9.6-0.4-10.8c-0.3-1.2-1.1-2.1-2.4-2.8c-1.3-0.6-4.2-0.9-8.6-0.9h-1.9
		v-9c9.3-2,16.4-6.1,21.3-12.4H117.3z"/>
	<path fill="#FFFFFF" d="M173,124.9v12.4c0,4.6-0.2,7.9-0.7,10c-0.5,2.1-1.4,4.1-2.9,6s-3.4,3.2-5.8,4.1s-5.1,1.3-8.1,1.3
		c-3.4,0-6.3-0.4-8.7-1.1c-2.4-0.8-4.2-1.9-5.5-3.4c-1.3-1.5-2.3-3.4-2.8-5.5c-0.6-2.2-0.8-5.4-0.8-9.7v-13c0-4.7,0.5-8.4,1.5-11.1
		c1-2.7,2.9-4.8,5.5-6.4c2.7-1.6,6-2.4,10.2-2.4c3.5,0,6.4,0.5,8.9,1.6c2.5,1,4.4,2.4,5.8,4c1.4,1.7,2.3,3.4,2.8,5.1
		C172.7,118.6,173,121.3,173,124.9z M157.5,121.1c0-2.6-0.1-4.2-0.4-4.9c-0.3-0.7-0.9-1-1.8-1c-0.9,0-1.5,0.3-1.8,1
		c-0.3,0.7-0.5,2.3-0.5,4.9V144c0,2.4,0.2,4,0.5,4.7c0.3,0.7,0.9,1.1,1.8,1.1c0.9,0,1.5-0.3,1.8-1c0.3-0.7,0.4-2.1,0.4-4.3V121.1z"
		/>
	<path fill="#FFFFFF" d="M193.3,107.1v19.7c3.2,0,4.9-1.7,4.9-5.2V113c0-3.5,0.6-5.5,1.7-6h14.9c-1.1,1.7-1.7,4.1-1.7,7.3v7.1
		c0,2.5-1,4.5-3,6.2c-0.7,0.6-2.3,1.5-4.7,2.6c-1.5,0.7-3.3,1.1-5.2,1.2c0.9,0.2,2.6,0.6,5,1.3c5.3,1.7,7.9,4.6,7.9,8.8v8.9
		c0,3.3,0.6,5.7,1.7,7.4H200c-1.1-1.6-1.7-3.5-1.7-6v-10.7c0-3.4-1.6-5.2-4.9-5.2v21.8H178v-50.8H193.3z"/>
	<path fill="#FFFFFF" d="M248.7,107.1v10.6h-8.8v40.2h-15.4v-40.2h-8.9v-10.6H248.7z"/>
	<path fill="#FFFFFF" d="M286.4,157.9H271v-20c-2,0-3.4,0.4-4.1,1.3c-0.8,0.8-1.1,2.4-1.1,4.7v14h-14.2V146c0-3,0.2-5.2,0.5-6.6
		c0.3-1.3,1.1-2.4,2.3-3.2c1.2-0.8,3.2-1.5,6.1-2.3c-3.7-0.3-6.1-1.4-7.2-3.2c-1.1-1.8-1.6-4.9-1.6-9.5c0-5.1,1.5-8.7,4.4-10.9
		c2.9-2.2,9.2-3.3,19-3.3h11.4V157.9z M271,129.1v-12.1h-1.6c-1.1,0-2,0.3-2.7,1c-0.7,0.7-1,2.2-1,4.6v0.7c0,2.5,0.4,4.1,1.1,4.8
		C267.7,128.7,269,129.1,271,129.1z"/>
	<path fill="#FFFFFF" d="M315.6,107.1c7.3,0,11.2,3,11.5,8.9c0.2,2.8,0.2,5.9,0.2,9.3v12.4c0,5.7-0.4,9.7-1.1,11.8
		c-2.2,5.9-7.8,8.8-16.7,8.8c-3.3,0-5.5-0.1-6.5-0.2c-2.1-0.3-4-0.9-5.5-2c-2.4-1.7-4-3.9-4.8-6.8c-0.6-2.1-0.8-5.4-0.8-10v-29.8
		c0-4.2,1.4-7.6,4.2-10.3c2.8-2.6,6.5-4,11-4c1.9,0,4.6,0.1,8.1,0.4c3.5,0.3,5.8,0.4,6.9,0.4c1.4,0,2.5-0.2,3.4-0.5v8
		c-1.3,0.4-2.2,0.5-3,0.5c-1.4,0-3.3-0.1-5.9-0.3c-2.5-0.2-4.4-0.3-5.5-0.3c-2.1,0-3.4,1-3.9,3c-0.2,0.6-0.2,2.2-0.2,4.9
		C309.6,108.6,312.4,107.1,315.6,107.1z M311.9,147.4v-26c0-2.3-0.1-3.7-0.2-4.2c-0.3-1.2-1-1.8-2.1-1.8c-1.1,0-1.8,0.6-2.1,1.8
		c-0.1,0.6-0.2,2-0.2,4.2v24.3c0,2.9,0.8,4.4,2.3,4.4C311.2,150.2,311.9,149.3,311.9,147.4z"/>
	<path fill="#FFFFFF" d="M348.6,107.1l-0.3,4.5c1.4-1.8,2.9-3.2,4.6-4.1c1.7-0.9,3.5-1.3,5.4-1.3c2.4,0,4.5,0.6,6.2,1.9
		c1.7,1.3,2.8,2.8,3.3,4.5c0.4,1.7,0.7,4.5,0.7,8.6v21.4c0,4.6-0.3,7.9-0.8,9.9c-0.5,2-1.7,3.5-3.4,4.7c-1.7,1.2-3.7,1.7-6.1,1.7
		c-1.9,0-3.7-0.4-5.3-1.3c-1.6-0.9-3.1-2.2-4.5-4v11.6h-15.5v-58H348.6z M353,121.8c0-3.1-0.1-5-0.3-5.7c-0.2-0.7-0.9-1-1.9-1
		c-1,0-1.7,0.4-2,1.1c-0.3,0.8-0.4,2.6-0.4,5.6v21.1c0,3.1,0.2,5,0.5,5.7s1,1.1,2,1.1c1,0,1.6-0.4,1.9-1.1c0.2-0.7,0.4-2.4,0.4-5.1
		V121.8z"/>
	<path fill="#FFFFFF" d="M408.1,157.9h-15.4v-20c-2,0-3.4,0.4-4.1,1.3c-0.8,0.8-1.1,2.4-1.1,4.7v14h-14.2V146c0-3,0.2-5.2,0.5-6.6
		c0.3-1.3,1.1-2.4,2.3-3.2c1.2-0.8,3.2-1.5,6.1-2.3c-3.7-0.3-6.1-1.4-7.2-3.2c-1.1-1.8-1.6-4.9-1.6-9.5c0-5.1,1.5-8.7,4.4-10.9
		c2.9-2.2,9.2-3.3,19-3.3h11.4V157.9z M392.7,129.1v-12.1h-1.6c-1.1,0-2,0.3-2.7,1c-0.7,0.7-1,2.2-1,4.6v0.7c0,2.5,0.4,4.1,1.1,4.8
		C389.3,128.7,390.7,129.1,392.7,129.1z"/>
	<path fill="#FFFFFF" d="M489,80.4v77.5h-19.3v-41.5c0-6-0.1-9.6-0.4-10.8c-0.3-1.2-1.1-2.1-2.4-2.8c-1.3-0.6-4.2-0.9-8.6-0.9h-1.9
		v-9c9.3-2,16.4-6.1,21.3-12.4H489z"/>
	<path fill="#FFFFFF" d="M542.9,101h-19.3c0-3.6,0-5.9-0.1-6.8c-0.1-0.9-0.5-1.7-1.1-2.4c-0.7-0.6-1.6-1-2.8-1c-1,0-1.8,0.3-2.4,0.9
		c-0.6,0.6-1,1.4-1.1,2.3c-0.1,1-0.1,2.9-0.1,5.8v12.3c1-2.1,2.4-3.6,4.4-4.7c1.9-1,4.3-1.6,7.1-1.6c3.5,0,6.7,1,9.4,2.9
		s4.4,4.2,5.2,6.9c0.7,2.7,1.1,6.3,1.1,10.9v6.2c0,5.4-0.2,9.5-0.6,12.1c-0.4,2.6-1.5,5.1-3.3,7.3c-1.8,2.2-4.3,4-7.4,5.2
		c-3.1,1.2-6.8,1.9-11,1.9c-5.2,0-9.5-0.7-12.8-2.2c-3.3-1.4-5.9-3.5-7.7-6.2c-1.8-2.7-2.9-5.5-3.2-8.5c-0.3-3-0.5-8.7-0.5-17.3
		v-10.7c0-9.2,0.1-15.4,0.4-18.5c0.3-3.1,1.4-6.1,3.3-8.8c1.9-2.8,4.6-4.9,8-6.2c3.4-1.4,7.2-2.1,11.7-2.1c5.4,0,9.9,0.9,13.4,2.6
		c3.5,1.8,6,4.2,7.5,7.4C542.2,92.1,542.9,96.1,542.9,101z M523.6,125.1c0-2.7-0.3-4.6-0.9-5.6c-0.6-1-1.6-1.5-3-1.5
		c-1.3,0-2.3,0.5-2.9,1.5s-0.9,2.9-0.9,5.7v14c0,3.4,0.3,5.6,0.9,6.7c0.6,1.1,1.6,1.6,2.9,1.6c0.8,0,1.7-0.4,2.6-1.2
		c0.9-0.8,1.3-3,1.3-6.6V125.1z"/>
	<path fill="#FFFFFF" d="M564.2,107.4v15.7h-14.6v-15.7H564.2z M564.2,142.1v15.8h-14.6v-15.8H564.2z"/>
	<path fill="#FFFFFF" d="M615,106.6v25.8c0,5.9-0.3,10.1-1,12.8c-0.6,2.7-2,5.2-4,7.5c-2,2.3-4.4,4-7.3,5c-2.8,1-6,1.5-9.5,1.5
		c-4.6,0-8.5-0.5-11.5-1.6s-5.5-2.7-7.3-5c-1.8-2.3-3.1-4.6-3.9-7.2c-0.8-2.5-1.1-6.5-1.1-11.9v-27c0-7.1,0.6-12.4,1.8-16
		c1.2-3.5,3.7-6.4,7.3-8.5c3.7-2.1,8.1-3.2,13.3-3.2c4.2,0,8,0.7,11.4,2.2s5.9,3.3,7.5,5.4c1.7,2.1,2.8,4.5,3.4,7.2
		C614.7,96.5,615,100.7,615,106.6z M595.7,100.1c0-4.1-0.2-6.7-0.6-7.7c-0.4-1-1.3-1.6-2.8-1.6c-1.4,0-2.4,0.6-2.8,1.7
		c-0.5,1.1-0.7,3.6-0.7,7.6v37.8c0,4.5,0.2,7.2,0.6,8.1c0.4,0.9,1.4,1.4,2.8,1.4c1.4,0,2.4-0.5,2.8-1.6c0.4-1.1,0.7-3.5,0.7-7.3
		V100.1z"/>
	<path fill="#FFFFFF" d="M667.5,106.6v25.8c0,5.9-0.3,10.1-1,12.8c-0.6,2.7-2,5.2-4,7.5c-2,2.3-4.4,4-7.3,5c-2.8,1-6,1.5-9.5,1.5
		c-4.6,0-8.5-0.5-11.5-1.6s-5.5-2.7-7.3-5c-1.8-2.3-3.1-4.6-3.9-7.2c-0.8-2.5-1.1-6.5-1.1-11.9v-27c0-7.1,0.6-12.4,1.8-16
		c1.2-3.5,3.7-6.4,7.3-8.5c3.7-2.1,8.1-3.2,13.3-3.2c4.2,0,8,0.7,11.4,2.2s5.9,3.3,7.5,5.4c1.7,2.1,2.8,4.5,3.4,7.2
		C667.3,96.5,667.5,100.7,667.5,106.6z M648.2,100.1c0-4.1-0.2-6.7-0.6-7.7c-0.4-1-1.3-1.6-2.8-1.6c-1.4,0-2.4,0.6-2.8,1.7
		c-0.5,1.1-0.7,3.6-0.7,7.6v37.8c0,4.5,0.2,7.2,0.6,8.1c0.4,0.9,1.4,1.4,2.8,1.4c1.4,0,2.4-0.5,2.8-1.6c0.4-1.1,0.7-3.5,0.7-7.3
		V100.1z"/>
	<path fill="#FFFFFF" d="M39,236.3c0,0,2.1-1.1,4.4-1.1c3.4,0,5.2,1.6,5.2,4.1c0,2-1.3,3.1-2.5,3.7c1.7,0.4,3,1.4,3,3.7
		c0,2.8-2.4,4.7-6,4.7c-4.2,0-5.2-2.5-5.2-2.5l1-1.3c0,0,1.2,2,3.8,2c1.5,0,2.6-0.7,2.6-2.9c0-2.2-0.8-2.8-2.1-2.8l-2.3,0.2v-1.9
		l2.5,0.2c0.8,0,1.6-0.8,1.6-3c0-1.9-0.7-2.6-2.3-2.6c-1.5,0-3.4,1-3.4,1L39,236.3z"/>
	<path fill="#FFFFFF" d="M52,239.8c0,0,1.9-1,3.7-1c2.8,0,4.7,1,4.7,4.2v5.5c0,1,0.3,1.3,0.5,1.3c0.3,0,0.8-0.2,0.8-0.2l0.1,1.3
		c0,0-1.7,0.5-2.7,0.5c-0.9,0-1.4-0.4-1.6-1.5h-0.1c0,0-0.7,1.5-3.2,1.5c-2.2,0-3.7-1.2-3.7-3.2c0-3.2,4.1-4,6.6-4.3v-0.7
		c0-2.2-0.6-2.9-2-2.9c-1.1,0-2.9,0.9-2.9,0.9L52,239.8z M57.2,245.3c-2,0.2-3.3,0.9-3.3,2.6c0,1.3,0.6,2,1.4,2
		c1.3,0,1.9-1.3,1.9-1.3V245.3z"/>
	<path fill="#FFFFFF" d="M72.9,251.2h-3.2v-10.3h-2.2c-0.1,6-1.4,10.6-4.4,10.6c-0.2,0-0.4,0-0.6-0.1l0.1-1.9c0.1,0,0.2,0,0.3,0
		c2.1,0,2.8-4.1,2.8-10.4h7.2V251.2z"/>
	<path fill="#FFFFFF" d="M81.6,239.7c0,0,1.9-0.9,3.6-0.9c3.3,0,4.7,1.3,4.7,3.3c0,1.5-0.9,2.3-2,2.7c1.2,0.3,2.4,1.1,2.4,2.9
		c0,2.5-2,3.7-5.2,3.7c-3.6,0-4.4-1.9-4.4-1.9l0.9-1.2c0,0,0.9,1.5,3,1.5c1.5,0,2.4-0.8,2.4-2.3c0-1.4-0.8-1.8-1.9-1.8l-2,0.1v-1.6
		l2.2,0.1h0.1c0.5-0.1,1.3-0.5,1.3-2c0-1.4-0.7-1.9-2-1.9c-1.2,0-2.9,0.9-2.9,0.9L81.6,239.7z"/>
	<path fill="#FFFFFF" d="M93.2,239.8c0,0,1.9-1,3.7-1c2.8,0,4.7,1,4.7,4.2v5.5c0,1,0.3,1.3,0.5,1.3c0.3,0,0.8-0.2,0.8-0.2l0.1,1.3
		c0,0-1.7,0.5-2.7,0.5c-0.9,0-1.4-0.4-1.6-1.5h-0.1c0,0-0.7,1.5-3.2,1.5c-2.2,0-3.7-1.2-3.7-3.2c0-3.2,4.1-4,6.6-4.3v-0.7
		c0-2.2-0.6-2.9-2-2.9c-1.1,0-2.9,0.9-2.9,0.9L93.2,239.8z M98.4,245.3c-2,0.2-3.3,0.9-3.3,2.6c0,1.3,0.6,2,1.4,2
		c1.3,0,1.9-1.3,1.9-1.3V245.3z"/>
	<path fill="#FFFFFF" d="M110.4,240.4c-1.7,0-2.7,0.8-2.7,4.7c0,3.9,1.1,4.7,2.6,4.7c1.9,0,2.8-1.7,2.8-1.7l1.1,0.7
		c0,0-0.9,2.6-4.2,2.6c-3.7,0-5.8-2.2-5.8-6.2c0-3.9,2.2-6.4,5.8-6.4c1.7,0,3.5,0.9,3.5,0.9l-0.3,1.5
		C113.3,241.3,111.5,240.4,110.4,240.4z"/>
	<path fill="#FFFFFF" d="M124.9,249c0,0-1.2,2.4-4.3,2.4c-3.4,0-5.7-1.8-5.7-6.1c0-4.3,2.2-6.5,5.4-6.5c3,0,4.7,1.9,4.7,5.5
		c0,1-0.2,1.5-0.2,1.5h-6.5c0,2.9,0.8,4,2.6,4c1.9,0,2.8-1.6,2.8-1.6L124.9,249z M118.4,244.2h3.7v-0.6c0-2.5-0.5-3.3-1.7-3.3
		C119.1,240.4,118.5,241.2,118.4,244.2z"/>
	<path fill="#FFFFFF" d="M138,254.7h-1.5l-0.6-3.6h-7.4l-0.7,3.6h-1.5l-0.2-5.3h1.6c1.1-2.8,1.2-5.9,1.2-10.4h7.9v10.4h1.7
		L138,254.7z M129.6,249.4h3.8v-8.7h-2.9C130.5,244,130.4,246.8,129.6,249.4z"/>
	<path fill="#FFFFFF" d="M140.7,239.8c0,0,1.9-1,3.7-1c2.8,0,4.7,1,4.7,4.2v5.5c0,1,0.3,1.3,0.5,1.3c0.3,0,0.8-0.2,0.8-0.2l0.1,1.3
		c0,0-1.7,0.5-2.7,0.5c-0.9,0-1.4-0.4-1.6-1.5h-0.1c0,0-0.7,1.5-3.2,1.5c-2.2,0-3.7-1.2-3.7-3.2c0-3.2,4.1-4,6.6-4.3v-0.7
		c0-2.2-0.6-2.9-2-2.9c-1.1,0-2.9,0.9-2.9,0.9L140.7,239.8z M145.9,245.3c-2,0.2-3.3,0.9-3.3,2.6c0,1.3,0.6,2,1.4,2
		c1.3,0,1.9-1.3,1.9-1.3V245.3z"/>
	<path fill="#FFFFFF" d="M152.4,239.1h3.2v5.1h3.7v-5.1h3.2v12.1h-3.2v-5.4h-3.7v5.4h-3.2V239.1z"/>
	<path fill="#FFFFFF" d="M176,239.1v12.1h-3.2v-8.4l-4.7,8.4h-2.5v-12.1h3.2v8l4.4-8H176z"/>
	<path fill="#FFFFFF" d="M189.3,239.1v12.1h-3.2v-8.4l-4.7,8.4h-2.5v-12.1h3.2v8l4.4-8H189.3z M185.8,235.1c0-0.3-0.1-0.5-0.1-0.5
		v-0.3l2.5,0.2c0,0,0.2,3-3.8,3c-4,0-3.8-3-3.8-3l2.5-0.2v0.3c0,0-0.1,0.2-0.1,0.5c0,0.4,0.2,0.9,1.4,0.9
		C185.5,236.1,185.8,235.5,185.8,235.1z"/>
	<path fill="#FFFFFF" d="M209.1,237.2h-4.2v14h-3.4v-14h-4.2v-1.7h11.8V237.2z"/>
	<path fill="#FFFFFF" d="M224.8,245.1c0,4.1-1.8,6.3-5.5,6.3c-3,0-4.9-2-5.1-5.7h-1.4v5.4h-3.2v-12.1h3.2v5.1h1.5
		c0.3-3.4,2-5.3,5-5.3C223,238.8,224.8,241.1,224.8,245.1z M217.3,245.1c0,3.2,0.5,4.8,2.1,4.8c1.6,0,2.1-1.5,2.1-4.8
		c0-3.4-0.5-4.8-2.1-4.8C217.8,240.3,217.3,241.7,217.3,245.1z"/>
	<path fill="#FFFFFF" d="M240.6,251.2h-3l-0.2-7.9v-1.3h-0.1l-3.1,9.2H232l-2.9-9.2h0l0,0.7l-0.4,8.6h-1.8l0.7-12.1h3.9l2.3,8.7h0
		l2.7-8.7h3.8L240.6,251.2z"/>
	<path fill="#FFFFFF" d="M252.6,249c0,0-1.2,2.4-4.3,2.4c-3.4,0-5.7-1.8-5.7-6.1c0-4.3,2.2-6.5,5.4-6.5c3,0,4.7,1.9,4.7,5.5
		c0,1-0.2,1.5-0.2,1.5H246c0,2.9,0.8,4,2.6,4c1.9,0,2.8-1.6,2.8-1.6L252.6,249z M246,244.2h3.7v-0.6c0-2.5-0.5-3.3-1.7-3.3
		C246.7,240.4,246.2,241.2,246,244.2z"/>
	<path fill="#FFFFFF" d="M254.8,239.1h3.2v5.1h3.7v-5.1h3.2v12.1h-3.2v-5.4H258v5.4h-3.2V239.1z"/>
	<path fill="#FFFFFF" d="M273.3,240.4c-1.7,0-2.7,0.8-2.7,4.7c0,3.9,1.1,4.7,2.6,4.7c1.9,0,2.8-1.7,2.8-1.7l1.1,0.7
		c0,0-0.9,2.6-4.2,2.6c-3.7,0-5.8-2.2-5.8-6.2c0-3.9,2.2-6.4,5.8-6.4c1.7,0,3.5,0.9,3.5,0.9l-0.3,1.5
		C276.2,241.3,274.5,240.4,273.3,240.4z"/>
	<path fill="#FFFFFF" d="M278.7,239.1h3.2v5.1l1.5-0.8l2.7-4.3h1.9l-2.9,4.5l3.8,7.6h-3.6l-2.6-5.7l-0.8,0.3v5.4h-3.2V239.1z"/>
	<path fill="#FFFFFF" d="M295.5,251.4c-3.6,0-5.6-2.3-5.6-6.3s2-6.3,5.6-6.3c3.6,0,5.7,2.3,5.7,6.3S299,251.4,295.5,251.4z
		 M293.3,245.1c0,3.5,0.6,4.7,2.2,4.7s2.2-1.2,2.2-4.7s-0.6-4.7-2.2-4.7S293.3,241.6,293.3,245.1z"/>
	<path fill="#FFFFFF" d="M313.7,239.1v12.1h-3.2v-8.4l-4.7,8.4h-2.5v-12.1h3.2v8l4.4-8H313.7z M310.2,235.1c0-0.3-0.1-0.5-0.1-0.5
		v-0.3l2.5,0.2c0,0,0.2,3-3.8,3c-4,0-3.8-3-3.8-3l2.5-0.2v0.3c0,0-0.1,0.2-0.1,0.5c0,0.4,0.2,0.9,1.4,0.9
		C310,236.1,310.2,235.5,310.2,235.1z"/>
	<path fill="#FFFFFF" d="M327.7,251.4c-3.6,0-5.6-2.3-5.6-6.3s2-6.3,5.6-6.3c3.6,0,5.7,2.3,5.7,6.3S331.2,251.4,327.7,251.4z
		 M325.5,245.1c0,3.5,0.6,4.7,2.2,4.7s2.2-1.2,2.2-4.7s-0.6-4.7-2.2-4.7S325.5,241.6,325.5,245.1z"/>
	<path fill="#FFFFFF" d="M336.5,242.3h0.2c0.2-1,1.4-3.5,4.2-3.5c3.2,0,5.1,2.2,5.1,6.2c0,4-2.2,6.4-5.6,6.4c-3.9,0-5.6-2.8-5.6-6.9
		c0-4.8,0.4-10.4,6.5-11.2l3.4-0.4l0.1,3.2l-2.6,0.2C338,236.6,336.5,238.6,336.5,242.3z M338.2,244.6c0,3.7,0.6,5.2,2.2,5.2
		c1.6,0,2.2-1.3,2.2-4.8c0-3.5-0.6-4.6-2.2-4.6C338.9,240.4,338.2,241.9,338.2,244.6z"/>
	<path fill="#FFFFFF" d="M357.4,251.2h-3.2v-10.3H352c-0.1,6-1.4,10.6-4.4,10.6c-0.2,0-0.4,0-0.6-0.1l0.1-1.9c0.1,0,0.2,0,0.3,0
		c2.1,0,2.8-4.1,2.8-10.4h7.2V251.2z"/>
	<path fill="#FFFFFF" d="M360.9,239.8c0,0,1.9-1,3.7-1c2.8,0,4.7,1,4.7,4.2v5.5c0,1,0.3,1.3,0.5,1.3c0.3,0,0.8-0.2,0.8-0.2l0.1,1.3
		c0,0-1.7,0.5-2.7,0.5c-0.9,0-1.4-0.4-1.6-1.5h-0.1c0,0-0.7,1.5-3.2,1.5c-2.2,0-3.7-1.2-3.7-3.2c0-3.2,4.1-4,6.6-4.3v-0.7
		c0-2.2-0.6-2.9-2-2.9c-1.1,0-2.9,0.9-2.9,0.9L360.9,239.8z M366.1,245.3c-2,0.2-3.3,0.9-3.3,2.6c0,1.3,0.6,2,1.4,2
		c1.3,0,1.9-1.3,1.9-1.3V245.3z"/>
	<path fill="#FFFFFF" d="M378.1,240.4c-1.7,0-2.7,0.8-2.7,4.7c0,3.9,1.1,4.7,2.6,4.7c1.9,0,2.8-1.7,2.8-1.7l1.1,0.7
		c0,0-0.9,2.6-4.2,2.6c-3.7,0-5.8-2.2-5.8-6.2c0-3.9,2.2-6.4,5.8-6.4c1.7,0,3.5,0.9,3.5,0.9l-0.3,1.5
		C381,241.3,379.3,240.4,378.1,240.4z"/>
	<path fill="#FFFFFF" d="M389,240.8v10.3h-3.2v-10.3h-3.5l0-1.8h10.2v1.8H389z"/>
	<path fill="#FFFFFF" d="M394.2,239.1h3.2v5.1h3.7v-5.1h3.2v12.1h-3.2v-5.4h-3.7v5.4h-3.2V239.1z"/>
	<path fill="#FFFFFF" d="M412.1,251.4c-3.6,0-5.6-2.3-5.6-6.3s2-6.3,5.6-6.3c3.6,0,5.7,2.3,5.7,6.3S415.6,251.4,412.1,251.4z
		 M409.9,245.1c0,3.5,0.6,4.7,2.2,4.7c1.6,0,2.2-1.2,2.2-4.7s-0.6-4.7-2.2-4.7C410.5,240.4,409.9,241.6,409.9,245.1z"/>
	<path fill="#FFFFFF" d="M430.4,239.1v12.1h-3.2v-8.4l-4.7,8.4h-2.5v-12.1h3.2v8l4.4-8H430.4z M426.8,235.1c0-0.3-0.1-0.5-0.1-0.5
		v-0.3l2.5,0.2c0,0,0.2,3-3.8,3c-4,0-3.8-3-3.8-3l2.5-0.2v0.3c0,0-0.1,0.2-0.1,0.5c0,0.4,0.2,0.9,1.4,0.9
		C426.6,236.1,426.8,235.5,426.8,235.1z"/>
	<path fill="#FFFFFF" d="M451.1,235.4v14h2l-0.6,6h-1.9l-0.5-4.2h-8.6l-1,4.2h-1.7l-0.3-6h1.6c1.3-2.8,1.9-6.3,1.9-14H451.1z
		 M444,237.2c-0.1,6.5-0.7,9.6-1.8,12.2h5.6v-12.2H444z"/>
	<path fill="#FFFFFF" d="M455.2,255.5c1.5,0,2.2-1.2,3.3-3.8l-5.1-12.6h3.9l2.9,8.6l2.5-8.6h2l-4.2,12.4c-1.3,3.7-2.5,6-4.9,6
		c-1.3,0-1.9-0.4-1.9-0.4l0.3-1.9C453.9,255.2,454.5,255.5,455.2,255.5z"/>
	<path fill="#FFFFFF" d="M479.8,251.2h-3l-0.2-7.9v-1.3h-0.1l-3.1,9.2h-2.2l-2.9-9.2h0l0,0.7l-0.4,8.6h-1.8l0.7-12.1h3.9l2.3,8.7h0
		l2.7-8.7h3.8L479.8,251.2z"/>
	<path fill="#FFFFFF" d="M485.8,243.2h1.1c3.3,0,5.3,1.1,5.3,3.8c0,2.8-1.7,4.1-5.3,4.1h-4.4v-12.1h3.2V243.2z M485.8,244.6v5.1h1
		c1.2,0,2.1-0.5,2.1-2.7c0-2-1-2.4-2.1-2.4H485.8z M497.1,251.2h-3.2v-12.1h3.2V251.2z"/>
	<path fill="#FFFFFF" d="M512.5,234.3c0,0-2.9,2.8-2.9,10.3c0,7.6,2.9,10.2,2.9,10.2l-1.3,0.8c0,0-4.7-3-4.7-11s4.6-11.1,4.6-11.1
		L512.5,234.3z"/>
	<path fill="#FFFFFF" d="M515.4,255.5c1.5,0,2.2-1.2,3.3-3.8l-5.1-12.6h3.9l2.9,8.6l2.5-8.6h2l-4.2,12.4c-1.3,3.7-2.5,6-4.9,6
		c-1.3,0-1.9-0.4-1.9-0.4l0.3-1.9C514.2,255.2,514.8,255.5,515.4,255.5z"/>
	<path fill="#FFFFFF" d="M534.9,251.2h-3.2v-10.3h-2.2c-0.1,6-1.4,10.6-4.4,10.6c-0.2,0-0.4,0-0.6-0.1l0.1-1.9c0.1,0,0.2,0,0.3,0
		c2.1,0,2.8-4.1,2.8-10.4h7.2V251.2z"/>
	<path fill="#FFFFFF" d="M539.9,247.6c0.5,0,1,0.2,1.3,0.5c0.4,0.4,0.6,0.9,0.6,1.5s-0.2,1-0.6,1.4c-0.4,0.3-0.8,0.5-1.3,0.5
		s-1-0.2-1.4-0.5c-0.4-0.4-0.6-0.9-0.6-1.4s0.2-1,0.6-1.5C538.9,247.8,539.5,247.6,539.9,247.6z"/>
	<path fill="#FFFFFF" d="M551.6,235.4h4.8c3.5,0,5.7,1.7,5.7,5.3c0,4-3,5.5-5.6,5.5h-1.5v4.9h-3.3V235.4z M554.9,237v7.7h1.2
		c1.5,0,2.4-0.8,2.4-3.8c0-3-0.8-3.9-2.4-3.9H554.9z"/>
	<path fill="#FFFFFF" d="M573.2,249c0,0-1.2,2.4-4.3,2.4c-3.4,0-5.7-1.8-5.7-6.1c0-4.3,2.2-6.5,5.4-6.5c3,0,4.7,1.9,4.7,5.5
		c0,1-0.2,1.5-0.2,1.5h-6.5c0,2.9,0.8,4,2.6,4c1.9,0,2.8-1.6,2.8-1.6L573.2,249z M566.7,244.2h3.7v-0.6c0-2.5-0.5-3.3-1.7-3.3
		C567.4,240.4,566.8,241.2,566.7,244.2z"/>
	<path fill="#FFFFFF" d="M580.9,240.4c-1.7,0-2.7,0.8-2.7,4.7c0,3.9,1.1,4.7,2.6,4.7c1.9,0,2.8-1.7,2.8-1.7l1.1,0.7
		c0,0-0.9,2.6-4.2,2.6c-3.7,0-5.8-2.2-5.8-6.2c0-3.9,2.2-6.4,5.8-6.4c1.7,0,3.5,0.9,3.5,0.9l-0.3,1.5
		C583.8,241.3,582.1,240.4,580.9,240.4z"/>
	<path fill="#FFFFFF" d="M596.3,251.2h-3.2v-10.3h-3.6v10.3h-3.2v-12.1h10V251.2z"/>
	<path fill="#FFFFFF" d="M599.8,255.5c1.5,0,2.2-1.2,3.3-3.8l-5.1-12.6h3.9l2.9,8.6l2.5-8.6h2l-4.2,12.4c-1.3,3.7-2.5,6-4.9,6
		c-1.3,0-1.9-0.4-1.9-0.4l0.3-1.9C598.6,255.2,599.2,255.5,599.8,255.5z"/>
	<path fill="#FFFFFF" d="M611.8,242.3h0.2c0.2-1,1.4-3.5,4.2-3.5c3.2,0,5.1,2.2,5.1,6.2c0,4-2.2,6.4-5.6,6.4c-3.9,0-5.6-2.8-5.6-6.9
		c0-4.8,0.4-10.4,6.5-11.2l3.4-0.4l0.1,3.2l-2.6,0.2C613.3,236.6,611.8,238.6,611.8,242.3z M613.6,244.6c0,3.7,0.6,5.2,2.2,5.2
		c1.6,0,2.2-1.3,2.2-4.8c0-3.5-0.6-4.6-2.2-4.6C614.2,240.4,613.6,241.9,613.6,244.6z"/>
	<path fill="#FFFFFF" d="M632.7,251.2h-3.2v-10.3h-2.2c-0.1,6-1.4,10.6-4.4,10.6c-0.2,0-0.4,0-0.6-0.1l0.1-1.9c0.1,0,0.2,0,0.3,0
		c2.1,0,2.8-4.1,2.8-10.4h7.2V251.2z"/>
	<path fill="#FFFFFF" d="M646.1,239.1v12.1h-3.2v-8.4l-4.7,8.4h-2.5v-12.1h3.2v8l4.4-8H646.1z"/>
	<path fill="#FFFFFF" d="M649,239.1h3.2v5.1l1.5-0.8l2.7-4.3h1.9l-2.9,4.5l3.8,7.6h-3.6l-2.6-5.7l-0.8,0.3v5.4H649V239.1z"/>
	<path fill="#FFFFFF" d="M671.3,239.1v12.1h-3.2v-8.4l-4.7,8.4h-2.5v-12.1h3.2v8l4.4-8H671.3z"/>
	<path fill="#FFFFFF" d="M675.9,247.3c0.4,0,0.9,0.2,1.2,0.5c0.1,0.2,0.3,0.3,0.4,0.5c0.2,0.4,0.3,0.9,0.3,1.4
		c0,1.9-1.2,4.3-2.7,5.5l-0.8-0.9c1-0.9,1.8-2.3,1.9-3.5c-0.1,0-0.2,0-0.3,0c-0.4,0-0.8-0.2-1.2-0.5c-0.4-0.3-0.5-0.8-0.5-1.3
		s0.2-0.9,0.5-1.3C675,247.5,675.4,247.3,675.9,247.3z"/>
	<path fill="#FFFFFF" d="M695.2,238.6h-5.7l-0.3,2.9c0.4-0.1,0.9-0.2,1.4-0.2c3.3,0,5.6,1.6,5.6,4.8c0,3.8-3.2,5.4-6.1,5.4
		c-2.9,0-4.3-1.7-4.3-1.7l1-1.4c0,0,1.1,1.4,3,1.4c1.8,0,2.9-0.9,2.9-3.6c0-2.5-1-3.3-2.5-3.3c-0.9,0-1.5,0.4-1.8,0.7l-0.1,0.2
		l-1.1-0.2l0.9-8.2h7.2L695.2,238.6z"/>
	<path fill="#FFFFFF" d="M708,251.2h-10v-2.5c1.9-0.7,6.3-4.1,6.3-8.6c0-2.4-0.8-3-2.3-3c-1.3,0-3.1,1.2-3.1,1.2l-0.3-1.7
		c0,0,2-1.3,4-1.3c3.6,0,5.3,2,5.3,4.6c0,3.5-3.4,6.5-6.1,8.3h6.3V251.2z"/>
	<path fill="#FFFFFF" d="M709.7,254.8c0,0,2.9-2.9,2.9-10.3c0-7.4-2.9-10.2-2.9-10.2l1.3-0.8c0,0,4.7,3,4.7,11
		c0,8-4.7,11.1-4.7,11.1L709.7,254.8z"/>
	<path fill="#FFFFFF" d="M208.6,299.8h3.1v-8.9h2.8v8.9h1.4l-0.3,4.6h-1.5l-0.4-3.1h-7.9v-10.5h2.8V299.8z"/>
	<path fill="#FFFFFF" d="M225.4,299.5c0,0-1,2-3.7,2c-2.9,0-4.9-1.5-4.9-5.3c0-3.7,1.9-5.6,4.6-5.6c2.6,0,4.1,1.7,4.1,4.7
		c0,0.8-0.2,1.3-0.2,1.3h-5.6c0,2.5,0.7,3.4,2.3,3.4c1.6,0,2.4-1.4,2.4-1.4L225.4,299.5z M219.8,295.3h3.2v-0.5
		c0-2.1-0.4-2.9-1.5-2.9S219.9,292.7,219.8,295.3z"/>
	<path fill="#FFFFFF" d="M227.4,290.9h2.2l0.4,0.9h0.1c0,0,0.9-1.2,2.8-1.2c2.5,0,4,2.1,4,5.2c0,3.4-1.6,5.7-4.1,5.7
		c-1.8,0-2.5-0.8-2.5-0.8h-0.1v5.8l-2.8,0.1V290.9z M230.2,293.2v6.1c0,0,0.5,0.7,1.5,0.7c1.5,0,2.2-1,2.2-4c0-2.9-0.7-3.7-2-3.7
		C230.8,292.3,230.2,293.1,230.2,293.2z"/>
	<path fill="#FFFFFF" d="M246.7,299.5c0,0-1,2-3.7,2c-2.9,0-4.9-1.5-4.9-5.3c0-3.7,1.9-5.6,4.6-5.6c2.6,0,4.1,1.7,4.1,4.7
		c0,0.8-0.2,1.3-0.2,1.3h-5.6c0,2.5,0.7,3.4,2.3,3.4c1.6,0,2.4-1.4,2.4-1.4L246.7,299.5z M241.1,295.3h3.2v-0.5
		c0-2.1-0.4-2.9-1.5-2.9S241.2,292.7,241.1,295.3z"/>
	<path fill="#FFFFFF" d="M260.5,301.3h-2.6l-0.2-6.9v-1.1h-0.1l-2.7,8h-1.9l-2.5-8h0l0,0.6l-0.3,7.4h-1.5l0.6-10.5h3.3l2,7.5h0
		l2.4-7.5h3.3L260.5,301.3z"/>
	<path fill="#FFFFFF" d="M267.1,301.6c-3.1,0-4.9-2-4.9-5.5s1.7-5.5,4.9-5.5c3.2,0,4.9,2,4.9,5.5S270.1,301.6,267.1,301.6z
		 M265.2,296.1c0,3,0.5,4.1,1.9,4.1c1.4,0,1.9-1.1,1.9-4.1s-0.5-4.1-1.9-4.1C265.7,292,265.2,293.1,265.2,296.1z"/>
	<path fill="#FFFFFF" d="M273.9,290.9h2.8v4.4h3.2v-4.4h2.8v10.5h-2.8v-4.7h-3.2v4.7h-2.8V290.9z"/>
	<path fill="#FFFFFF" d="M294.2,290.9v10.5h-2.8V294l-4.1,7.3h-2.2v-10.5h2.8v6.9l3.8-6.9H294.2z"/>
	<path fill="#FFFFFF" d="M304.5,301.3h-2.8v-4.1h-1.1l-1.7,4.1h-2.8l2.2-4.6c-1.1-0.5-2-1.4-2-2.6c0-2.3,1.7-3.2,4.4-3.2h3.8V301.3z
		 M300.9,296h0.8v-3.9h-0.8c-1.2,0-1.9,0.5-1.9,2C299,295.5,299.9,296,300.9,296z"/>
	<path fill="#FFFFFF" d="M312.3,301.3v-10.5h4c3.1,0,4.2,1.2,4.2,2.8c0,1.3-0.9,1.9-1.8,2.3c1,0.3,2.2,1,2.2,2.3
		c0,1.8-1.1,3.1-4.5,3.1H312.3z M316.6,295.5c0,0,1.1-0.1,1.1-1.7c0-1-0.4-1.7-1.5-1.7h-1.2v3.4H316.6z M315.1,296.5v3.6h1.2
		c1.3,0,1.8-0.8,1.8-1.9c0-1-0.5-1.6-1.6-1.6H315.1z"/>
	<path fill="#FFFFFF" d="M322.8,290.9h2.2l0.4,0.9h0.1c0,0,0.9-1.2,2.8-1.2c2.5,0,4,2.1,4,5.2c0,3.4-1.6,5.7-4.1,5.7
		c-1.8,0-2.5-0.8-2.5-0.8h-0.1v5.8l-2.8,0.1V290.9z M325.6,293.2v6.1c0,0,0.5,0.7,1.5,0.7c1.5,0,2.2-1,2.2-4c0-2.9-0.7-3.7-2-3.7
		C326.2,292.3,325.6,293.1,325.6,293.2z"/>
	<path fill="#FFFFFF" d="M334.7,305.1c1.3,0,1.9-1,2.8-3.3l-4.5-10.9h3.4l2.6,7.4l2.2-7.4h1.7l-3.6,10.7c-1.1,3.2-2.2,5.2-4.2,5.2
		c-1.1,0-1.6-0.3-1.6-0.3l0.2-1.6C333.6,304.8,334.1,305.1,334.7,305.1z"/>
	<path fill="#FFFFFF" d="M349.3,290.9h2.8v10.5h-2.8V297h0c0,0-0.8,0.5-2.6,0.5c-1.8,0-2.9-0.8-2.9-3v-3.7h2.8v3.8
		c0,1.1,0.4,1.6,1.2,1.6c0.9,0,1.5-0.4,1.5-0.4V290.9z"/>
	<path fill="#FFFFFF" d="M362.5,299.5c0,0-1,2-3.7,2c-2.9,0-4.9-1.5-4.9-5.3c0-3.7,1.9-5.6,4.6-5.6c2.6,0,4.1,1.7,4.1,4.7
		c0,0.8-0.2,1.3-0.2,1.3h-5.6c0,2.5,0.7,3.4,2.3,3.4c1.6,0,2.4-1.4,2.4-1.4L362.5,299.5z M356.9,295.3h3.2v-0.5
		c0-2.1-0.4-2.9-1.5-2.9S357,292.7,356.9,295.3z"/>
	<path fill="#FFFFFF" d="M364.5,290.9h2.8v4.4h3.2v-4.4h2.8v10.5h-2.8v-4.7h-3.2v4.7h-2.8V290.9z"/>
	<path fill="#FFFFFF" d="M384.8,290.9v10.5H382V294l-4.1,7.3h-2.2v-10.5h2.8v6.9l3.8-6.9H384.8z"/>
	<path fill="#FFFFFF" d="M395.1,301.3h-2.8v-4.1h-1.1l-1.7,4.1h-2.8l2.2-4.6c-1.1-0.5-2-1.4-2-2.6c0-2.3,1.7-3.2,4.4-3.2h3.8V301.3z
		 M391.5,296h0.8v-3.9h-0.8c-1.2,0-1.9,0.5-1.9,2C389.6,295.5,390.5,296,391.5,296z"/>
	<path fill="#FFFFFF" d="M411.6,301.3h-2.8v-8.9h-3.1v8.9h-2.8v-10.5h8.7V301.3z"/>
	<path fill="#FFFFFF" d="M422.1,299.5c0,0-1,2-3.7,2c-2.9,0-4.9-1.5-4.9-5.3c0-3.7,1.9-5.6,4.6-5.6c2.6,0,4.1,1.7,4.1,4.7
		c0,0.8-0.2,1.3-0.2,1.3h-5.6c0,2.5,0.7,3.4,2.3,3.4c1.6,0,2.4-1.4,2.4-1.4L422.1,299.5z M416.4,295.3h3.2v-0.5
		c0-2.1-0.4-2.9-1.5-2.9S416.5,292.7,416.4,295.3z"/>
	<path fill="#FFFFFF" d="M424,290.9h2.2l0.4,0.9h0.1c0,0,0.9-1.2,2.8-1.2c2.5,0,4,2.1,4,5.2c0,3.4-1.6,5.7-4.1,5.7
		c-1.8,0-2.5-0.8-2.5-0.8h-0.1v5.8l-2.8,0.1V290.9z M426.8,293.2v6.1c0,0,0.5,0.7,1.5,0.7c1.5,0,2.2-1,2.2-4c0-2.9-0.7-3.7-2-3.7
		C427.5,292.3,426.9,293.1,426.8,293.2z"/>
	<path fill="#FFFFFF" d="M435.4,301.3v-10.5h4c3.1,0,4.2,1.2,4.2,2.8c0,1.3-0.9,1.9-1.8,2.3c1,0.3,2.2,1,2.2,2.3
		c0,1.8-1.1,3.1-4.5,3.1H435.4z M439.7,295.5c0,0,1.1-0.1,1.1-1.7c0-1-0.4-1.7-1.5-1.7h-1.2v3.4H439.7z M438.2,296.5v3.6h1.2
		c1.3,0,1.8-0.8,1.8-1.9c0-1-0.5-1.6-1.6-1.6H438.2z"/>
	<path fill="#FFFFFF" d="M450.1,301.6c-3.1,0-4.9-2-4.9-5.5s1.7-5.5,4.9-5.5c3.2,0,4.9,2,4.9,5.5S453.1,301.6,450.1,301.6z
		 M448.2,296.1c0,3,0.5,4.1,1.9,4.1c1.4,0,1.9-1.1,1.9-4.1s-0.5-4.1-1.9-4.1C448.7,292,448.2,293.1,448.2,296.1z"/>
	<path fill="#FFFFFF" d="M465.9,290.9v10.5h-2.8V294l-4.1,7.3h-2.2v-10.5h2.8v6.9l3.8-6.9H465.9z M462.8,287.5
		c0-0.2-0.1-0.4-0.1-0.4v-0.3l2.2,0.2c0,0,0.2,2.6-3.3,2.6c-3.5,0-3.3-2.6-3.3-2.6l2.2-0.2v0.3c0,0-0.1,0.2-0.1,0.4
		c0,0.4,0.2,0.8,1.2,0.8C462.6,288.3,462.8,287.8,462.8,287.5z"/>
	<path fill="#FFFFFF" d="M473.7,290.9h2.8v4.4h3.2v-4.4h2.8v10.5h-2.8v-4.7h-3.2v4.7h-2.8V290.9z"/>
	<path fill="#FFFFFF" d="M485.6,291.5c0,0,1.6-0.8,3.2-0.8c2.4,0,4,0.8,4,3.7v4.7c0,0.9,0.2,1.1,0.4,1.1c0.3,0,0.7-0.1,0.7-0.1
		l0.1,1.1c0,0-1.4,0.5-2.3,0.5c-0.8,0-1.2-0.4-1.4-1.3h-0.1c0,0-0.6,1.3-2.7,1.3c-1.9,0-3.2-1-3.2-2.7c0-2.8,3.5-3.5,5.7-3.7v-0.6
		c0-1.9-0.5-2.5-1.7-2.5c-1,0-2.5,0.8-2.5,0.8L485.6,291.5z M490.1,296.2c-1.7,0.2-2.8,0.8-2.8,2.2c0,1.1,0.5,1.7,1.2,1.7
		c1.2,0,1.6-1.1,1.6-1.1V296.2z"/>
	<path fill="#FFFFFF" d="M498.5,292.4v8.9h-2.8v-10.5h6.3v1.5H498.5z"/>
	<path fill="#FFFFFF" d="M503.5,290.9h2.2l0.4,0.9h0.1c0,0,0.9-1.2,2.8-1.2c2.5,0,4,2.1,4,5.2c0,3.4-1.6,5.7-4.1,5.7
		c-1.8,0-2.5-0.8-2.5-0.8h-0.1v5.8l-2.8,0.1V290.9z M506.3,293.2v6.1c0,0,0.5,0.7,1.5,0.7c1.5,0,2.2-1,2.2-4c0-2.9-0.7-3.7-2-3.7
		C506.9,292.3,506.3,293.1,506.3,293.2z"/>
	<path fill="#FFFFFF" d="M515.5,291.5c0,0,1.6-0.8,3.2-0.8c2.4,0,4,0.8,4,3.7v4.7c0,0.9,0.2,1.1,0.4,1.1c0.3,0,0.7-0.1,0.7-0.1
		l0.1,1.1c0,0-1.4,0.5-2.3,0.5c-0.8,0-1.2-0.4-1.4-1.3h-0.1c0,0-0.6,1.3-2.7,1.3c-1.9,0-3.2-1-3.2-2.7c0-2.8,3.5-3.5,5.7-3.7v-0.6
		c0-1.9-0.5-2.5-1.7-2.5c-1,0-2.5,0.8-2.5,0.8L515.5,291.5z M520,296.2c-1.7,0.2-2.8,0.8-2.8,2.2c0,1.1,0.5,1.7,1.2,1.7
		c1.2,0,1.6-1.1,1.6-1.1V296.2z"/>
	<path fill="#FFFFFF" d="M534.9,304.4h-1.3l-0.5-3.1h-6.4l-0.6,3.1h-1.3l-0.2-4.6h1.4c0.9-2.4,1.1-5.1,1.1-9h6.8v9h1.5L534.9,304.4z
		 M527.7,299.8h3.3v-7.5h-2.5C528.5,295.1,528.4,297.6,527.7,299.8z"/>
	<path fill="#FFFFFF" d="M539.5,294.5h1c2.8,0,4.6,0.9,4.6,3.3c0,2.4-1.5,3.6-4.6,3.6h-3.8v-10.5h2.8V294.5z M539.5,295.7v4.4h0.9
		c1.1,0,1.8-0.4,1.8-2.3c0-1.8-0.9-2.1-1.8-2.1H539.5z M549.3,301.3h-2.8v-10.5h2.8V301.3z"/>
	<path fill="#FFFFFF" d="M146.2,316.5c0,0,1.7-0.8,3.1-0.8c2.9,0,4.1,1.1,4.1,2.8c0,1.3-0.8,2-1.7,2.4c1.1,0.3,2,1,2,2.5
		c0,2.2-1.7,3.2-4.5,3.2c-3.2,0-3.8-1.7-3.8-1.7l0.8-1c0,0,0.8,1.3,2.6,1.3c1.3,0,2-0.7,2-2c0-1.2-0.7-1.6-1.6-1.6l-1.8,0.1v-1.4
		l1.9,0.1h0.1c0.4-0.1,1.1-0.4,1.1-1.7c0-1.2-0.6-1.7-1.7-1.7c-1.1,0-2.5,0.8-2.5,0.8L146.2,316.5z"/>
	<path fill="#FFFFFF" d="M156.2,316.6c0,0,1.6-0.8,3.2-0.8c2.4,0,4,0.8,4,3.7v4.7c0,0.9,0.2,1.1,0.4,1.1c0.3,0,0.7-0.1,0.7-0.1
		l0.1,1.1c0,0-1.4,0.5-2.3,0.5c-0.8,0-1.2-0.4-1.4-1.3h-0.1c0,0-0.6,1.3-2.7,1.3c-1.9,0-3.2-1-3.2-2.7c0-2.8,3.5-3.5,5.7-3.7v-0.6
		c0-1.9-0.5-2.5-1.7-2.5c-1,0-2.5,0.8-2.5,0.8L156.2,316.6z M160.7,321.3c-1.7,0.2-2.8,0.8-2.8,2.2c0,1.1,0.5,1.7,1.2,1.7
		c1.1,0,1.6-1.2,1.6-1.2V321.3z"/>
	<path fill="#FFFFFF" d="M181,329.5h-1.3l-0.5-3.1h-6.4l-0.6,3.1h-1.3l-0.2-4.6h1.4c0.9-2.4,1.1-5.1,1.1-9h6.8v9h1.5L181,329.5z
		 M173.7,324.9h3.3v-7.5h-2.5C174.5,320.2,174.4,322.7,173.7,324.9z"/>
	<path fill="#FFFFFF" d="M187,326.6c-3.1,0-4.9-2-4.9-5.5c0-3.5,1.7-5.5,4.9-5.5c3.2,0,4.9,2,4.9,5.5
		C191.9,324.7,190,326.6,187,326.6z M185.1,321.2c0,3,0.5,4.1,1.9,4.1c1.4,0,1.9-1.1,1.9-4.1c0-3-0.5-4.1-1.9-4.1
		C185.6,317.1,185.1,318.2,185.1,321.2z"/>
	<path fill="#FFFFFF" d="M198.5,317.1c-1.5,0-2.3,0.7-2.3,4.1c0,3.3,1,4,2.3,4c1.7,0,2.4-1.4,2.4-1.4l1,0.6c0,0-0.8,2.2-3.7,2.2
		c-3.2,0-5-1.9-5-5.4c0-3.4,1.9-5.5,5-5.5c1.4,0,3.1,0.8,3.1,0.8l-0.3,1.3C200.9,317.9,199.4,317.1,198.5,317.1z"/>
	<path fill="#FFFFFF" d="M207.8,317.5v8.9h-2.8v-8.9h-3l0-1.5h8.8v1.5H207.8z"/>
	<path fill="#FFFFFF" d="M221.3,316v10.5h-2.8v-7.3l-4.1,7.3h-2.2V316h2.8v6.9l3.8-6.9H221.3z"/>
	<path fill="#FFFFFF" d="M231.5,320l1.5,0l2.2-4h1.8l-2.6,4.6l3,5.9h-3l-2.2-5l-0.6,0v5h-2.8v-5l-0.6,0l-2.3,5.1h-3l3-5.9l-2.5-4.5
		h1.9l2,4l1.5,0v-4h2.8V320z"/>
	<path fill="#FFFFFF" d="M246.8,324.6c0,0-1,2-3.7,2c-2.9,0-4.9-1.5-4.9-5.3c0-3.7,1.9-5.6,4.6-5.6c2.6,0,4.1,1.7,4.1,4.7
		c0,0.8-0.2,1.3-0.2,1.3h-5.6c0,2.5,0.7,3.5,2.3,3.5c1.6,0,2.4-1.4,2.4-1.4L246.8,324.6z M241.2,320.4h3.2V320
		c0-2.1-0.4-2.9-1.5-2.9S241.3,317.8,241.2,320.4z"/>
	<path fill="#FFFFFF" d="M248.8,316h2.8v4.4h3.2V316h2.8v10.5h-2.8v-4.7h-3.2v4.7h-2.8V316z"/>
	<path fill="#FFFFFF" d="M269.1,316v10.5h-2.8v-7.3l-4.1,7.3h-2.2V316h2.8v6.9l3.8-6.9H269.1z"/>
	<path fill="#FFFFFF" d="M279.4,326.4h-2.8v-4.1h-1.1l-1.7,4.1H271l2.2-4.6c-1.1-0.5-2-1.4-2-2.6c0-2.3,1.7-3.2,4.4-3.2h3.8V326.4z
		 M275.8,321.1h0.8v-3.9h-0.8c-1.2,0-1.9,0.5-1.9,2C273.9,320.6,274.8,321.1,275.8,321.1z"/>
	<path fill="#FFFFFF" d="M287.3,326.4V316h4c3.1,0,4.2,1.2,4.2,2.8c0,1.3-0.9,1.9-1.8,2.3c1,0.3,2.2,1,2.2,2.3
		c0,1.8-1.1,3.1-4.5,3.1H287.3z M291.6,320.6c0,0,1.1-0.1,1.1-1.7c0-1-0.4-1.7-1.5-1.7H290v3.4H291.6z M290,321.6v3.6h1.2
		c1.3,0,1.8-0.8,1.8-1.9c0-1-0.5-1.6-1.6-1.6H290z"/>
	<path fill="#FFFFFF" d="M307.7,317.1c-1.5,0-2.3,0.7-2.3,4.1c0,3.3,1,4,2.3,4c1.7,0,2.4-1.4,2.4-1.4l1,0.6c0,0-0.8,2.2-3.7,2.2
		c-3.2,0-5-1.9-5-5.4c0-3.4,1.9-5.5,5-5.5c1.4,0,3.1,0.8,3.1,0.8l-0.3,1.3C310.2,317.9,308.7,317.1,307.7,317.1z"/>
	<path fill="#FFFFFF" d="M319.7,315.7h0.1c3.1,0,5.1,1.9,5.1,5.5c0,3.5-2.1,5.5-5.1,5.5l-0.1,0v5l-2.8,0.1v-5.1h-0.1
		c-3.1,0-5.1-1.9-5.1-5.4c0-3.5,2-5.5,5.1-5.5l0.1,0v-4.9l2.8-0.2V315.7z M317,325.3v-8.1c-1.5,0-2.4,0.8-2.4,4.1
		C314.5,324.4,315.4,325.2,317,325.3z M319.7,317.1v8.1c1.5,0,2.4-0.8,2.4-4.1C322.2,318,321.3,317.1,319.7,317.1z"/>
	<path fill="#FFFFFF" d="M334.8,324.6c0,0-1,2-3.7,2c-2.9,0-4.9-1.5-4.9-5.3c0-3.7,1.9-5.6,4.6-5.6c2.6,0,4.1,1.7,4.1,4.7
		c0,0.8-0.2,1.3-0.2,1.3h-5.6c0,2.5,0.7,3.5,2.3,3.5c1.6,0,2.4-1.4,2.4-1.4L334.8,324.6z M329.2,320.4h3.2V320
		c0-2.1-0.4-2.9-1.5-2.9S329.3,317.8,329.2,320.4z"/>
	<path fill="#FFFFFF" d="M336.8,316h2.2l0.4,0.9h0.1c0,0,0.9-1.2,2.8-1.2c2.5,0,4,2.1,4,5.2c0,3.4-1.6,5.7-4.1,5.7
		c-1.8,0-2.5-0.8-2.5-0.8h-0.1v5.8l-2.8,0.1V316z M339.6,318.3v6.1c0,0,0.5,0.7,1.5,0.7c1.5,0,2.2-1,2.2-4c0-2.9-0.7-3.7-2-3.7
		C340.2,317.4,339.6,318.2,339.6,318.3z"/>
	<path fill="#FFFFFF" d="M356.1,324.6c0,0-1,2-3.7,2c-2.9,0-4.9-1.5-4.9-5.3c0-3.7,1.9-5.6,4.6-5.6c2.6,0,4.1,1.7,4.1,4.7
		c0,0.8-0.2,1.3-0.2,1.3h-5.6c0,2.5,0.7,3.5,2.3,3.5c1.6,0,2.4-1.4,2.4-1.4L356.1,324.6z M350.5,320.4h3.2V320
		c0-2.1-0.4-2.9-1.5-2.9S350.6,317.8,350.5,320.4z"/>
	<path fill="#FFFFFF" d="M372.7,329.5h-1.3l-0.5-3.1h-6.4l-0.6,3.1h-1.3l-0.2-4.6h1.4c0.9-2.4,1.1-5.1,1.1-9h6.8v9h1.5L372.7,329.5z
		 M365.5,324.9h3.3v-7.5h-2.5C366.3,320.2,366.2,322.7,365.5,324.9z"/>
	<path fill="#FFFFFF" d="M382.5,324.6c0,0-1,2-3.7,2c-2.9,0-4.9-1.5-4.9-5.3c0-3.7,1.9-5.6,4.6-5.6c2.6,0,4.1,1.7,4.1,4.7
		c0,0.8-0.2,1.3-0.2,1.3h-5.6c0,2.5,0.7,3.5,2.3,3.5c1.6,0,2.4-1.4,2.4-1.4L382.5,324.6z M376.8,320.4h3.2V320
		c0-2.1-0.4-2.9-1.5-2.9S376.9,317.8,376.8,320.4z"/>
	<path fill="#FFFFFF" d="M389.2,317.5v8.9h-2.8v-8.9h-3l0-1.5h8.8v1.5H389.2z"/>
	<path fill="#FFFFFF" d="M398.4,317.1c-1.5,0-2.3,0.7-2.3,4.1c0,3.3,1,4,2.3,4c1.7,0,2.4-1.4,2.4-1.4l1,0.6c0,0-0.8,2.2-3.7,2.2
		c-3.2,0-5-1.9-5-5.4c0-3.4,1.9-5.5,5-5.5c1.4,0,3.1,0.8,3.1,0.8l-0.3,1.3C400.9,317.9,399.4,317.1,398.4,317.1z"/>
	<path fill="#FFFFFF" d="M403,316h2.8v4.4l1.3-0.7l2.3-3.7h1.6l-2.5,3.9l3.3,6.5h-3.2l-2.2-5l-0.7,0.3v4.7H403V316z"/>
	<path fill="#FFFFFF" d="M417.5,326.6c-3.1,0-4.9-2-4.9-5.5c0-3.5,1.7-5.5,4.9-5.5c3.2,0,4.9,2,4.9,5.5
		C422.4,324.7,420.6,326.6,417.5,326.6z M415.7,321.2c0,3,0.5,4.1,1.9,4.1c1.4,0,1.9-1.1,1.9-4.1c0-3-0.5-4.1-1.9-4.1
		C416.2,317.1,415.7,318.2,415.7,321.2z"/>
	<path fill="#FFFFFF" d="M429.4,321.4h-5.7v-1.5h5.7V321.4z"/>
	<path fill="#FFFFFF" d="M444.4,321.2c0,3.5-1.6,5.5-4.7,5.5c-2.6,0-4.2-1.7-4.4-4.9H434v4.7h-2.8V316h2.8v4.4h1.3
		c0.3-3,1.7-4.6,4.3-4.6C442.8,315.7,444.4,317.7,444.4,321.2z M437.9,321.2c0,2.8,0.4,4.1,1.8,4.1c1.4,0,1.8-1.3,1.8-4.1
		c0-2.9-0.4-4.1-1.8-4.1C438.3,317.1,437.9,318.2,437.9,321.2z"/>
	<path fill="#FFFFFF" d="M446.2,316h2.8v4.4h3.2V316h2.8v10.5h-2.8v-4.7H449v4.7h-2.8V316z"/>
	<path fill="#FFFFFF" d="M461.8,326.6c-3.1,0-4.9-2-4.9-5.5c0-3.5,1.7-5.5,4.9-5.5c3.2,0,4.9,2,4.9,5.5
		C466.7,324.7,464.8,326.6,461.8,326.6z M459.9,321.2c0,3,0.5,4.1,1.9,4.1c1.4,0,1.9-1.1,1.9-4.1c0-3-0.5-4.1-1.9-4.1
		C460.4,317.1,459.9,318.2,459.9,321.2z"/>
	<path fill="#FFFFFF" d="M481.8,326.4h-13.3V316h2.8v8.9h2.5V316h2.8v8.9h2.4V316h2.8V326.4z"/>
	<path fill="#FFFFFF" d="M492.3,324.6c0,0-1,2-3.7,2c-2.9,0-4.9-1.5-4.9-5.3c0-3.7,1.9-5.6,4.6-5.6c2.6,0,4.1,1.7,4.1,4.7
		c0,0.8-0.2,1.3-0.2,1.3h-5.6c0,2.5,0.7,3.5,2.3,3.5c1.6,0,2.4-1.4,2.4-1.4L492.3,324.6z M486.6,320.4h3.2V320
		c0-2.1-0.4-2.9-1.5-2.9C487.2,317.1,486.7,317.8,486.6,320.4z"/>
	<path fill="#FFFFFF" d="M498.9,317.1c-1.5,0-2.3,0.7-2.3,4.1c0,3.3,1,4,2.3,4c1.7,0,2.4-1.4,2.4-1.4l1,0.6c0,0-0.8,2.2-3.7,2.2
		c-3.2,0-5-1.9-5-5.4c0-3.4,1.9-5.5,5-5.5c1.4,0,3.1,0.8,3.1,0.8l-0.3,1.3C501.4,317.9,499.9,317.1,498.9,317.1z"/>
	<path fill="#FFFFFF" d="M503.5,316h2.8v4.4l1.3-0.7l2.3-3.7h1.6l-2.5,3.9l3.3,6.5h-3.2l-2.2-5l-0.7,0.3v4.7h-2.8V316z"/>
	<path fill="#FFFFFF" d="M518.1,326.6c-3.1,0-4.9-2-4.9-5.5c0-3.5,1.7-5.5,4.9-5.5c3.2,0,4.9,2,4.9,5.5
		C523,324.7,521.1,326.6,518.1,326.6z M516.2,321.2c0,3,0.5,4.1,1.9,4.1c1.4,0,1.9-1.1,1.9-4.1c0-3-0.5-4.1-1.9-4.1
		C516.7,317.1,516.2,318.2,516.2,321.2z"/>
	<path fill="#FFFFFF" d="M527.6,317.5v8.9h-2.8V316h6.3v1.5H527.6z"/>
	<path fill="#FFFFFF" d="M536.8,326.6c-3.1,0-4.9-2-4.9-5.5c0-3.5,1.7-5.5,4.9-5.5c3.2,0,4.9,2,4.9,5.5
		C541.7,324.7,539.8,326.6,536.8,326.6z M534.9,321.2c0,3,0.5,4.1,1.9,4.1c1.4,0,1.9-1.1,1.9-4.1c0-3-0.5-4.1-1.9-4.1
		C535.4,317.1,534.9,318.2,534.9,321.2z"/>
	<path fill="#FFFFFF" d="M553.6,317.1c-1.5,0-2.3,0.7-2.3,4.1c0,3.3,1,4,2.3,4c1.7,0,2.4-1.4,2.4-1.4l1,0.6c0,0-0.8,2.2-3.7,2.2
		c-3.2,0-5-1.9-5-5.4c0-3.4,1.9-5.5,5-5.5c1.4,0,3.1,0.8,3.1,0.8l-0.3,1.3C556.1,317.9,554.6,317.1,553.6,317.1z"/>
	<path fill="#FFFFFF" d="M566.9,326.4h-2.8v-8.9H561v8.9h-2.8V316h8.7V326.4z"/>
	<path fill="#FFFFFF" d="M573.6,326.6c-3.1,0-4.9-2-4.9-5.5c0-3.5,1.7-5.5,4.9-5.5c3.2,0,4.9,2,4.9,5.5
		C578.5,324.7,576.7,326.6,573.6,326.6z M571.8,321.2c0,3,0.5,4.1,1.9,4.1c1.4,0,1.9-1.1,1.9-4.1c0-3-0.5-4.1-1.9-4.1
		C572.3,317.1,571.8,318.2,571.8,321.2z"/>
	<path fill="#FFFFFF" d="M580.4,316h2.2l0.4,0.9h0.1c0,0,0.9-1.2,2.8-1.2c2.5,0,4,2.1,4,5.2c0,3.4-1.6,5.7-4.1,5.7
		c-1.8,0-2.5-0.8-2.5-0.8h-0.1v5.8l-2.8,0.1V316z M583.2,318.3v6.1c0,0,0.5,0.7,1.5,0.7c1.5,0,2.2-1,2.2-4c0-2.9-0.7-3.7-2-3.7
		C583.8,317.4,583.2,318.2,583.2,318.3z"/>
	<path fill="#FFFFFF" d="M596.3,317.5v8.9h-2.8v-8.9h-3l0-1.5h8.8v1.5H596.3z"/>
	<path fill="#FFFFFF" d="M601,316.6c0,0,1.6-0.8,3.2-0.8c2.4,0,4,0.8,4,3.7v4.7c0,0.9,0.2,1.1,0.4,1.1c0.3,0,0.7-0.1,0.7-0.1
		l0.1,1.1c0,0-1.4,0.5-2.3,0.5c-0.8,0-1.2-0.4-1.4-1.3h-0.1c0,0-0.6,1.3-2.7,1.3c-1.9,0-3.2-1-3.2-2.7c0-2.8,3.5-3.5,5.7-3.7v-0.6
		c0-1.9-0.5-2.5-1.7-2.5c-1,0-2.5,0.8-2.5,0.8L601,316.6z M605.5,321.3c-1.7,0.2-2.8,0.8-2.8,2.2c0,1.1,0.5,1.7,1.2,1.7
		c1.2,0,1.6-1.2,1.6-1.2V321.3z"/>
	<path fill="#FFFFFF" d="M217.9,341h2.8v4.4h3.2V341h2.8v10.5H224v-4.7h-3.2v4.7h-2.8V341z"/>
	<path fill="#FFFFFF" d="M229.8,341.7c0,0,1.6-0.8,3.2-0.8c2.4,0,4,0.8,4,3.7v4.7c0,0.9,0.2,1.1,0.4,1.1c0.3,0,0.7-0.1,0.7-0.1
		l0.1,1.1c0,0-1.4,0.5-2.3,0.5c-0.8,0-1.2-0.4-1.4-1.3h-0.1c0,0-0.6,1.3-2.7,1.3c-1.9,0-3.2-1-3.2-2.7c0-2.8,3.5-3.5,5.7-3.7v-0.6
		c0-1.9-0.5-2.5-1.7-2.5c-1,0-2.5,0.8-2.5,0.8L229.8,341.7z M234.3,346.4c-1.7,0.2-2.8,0.8-2.8,2.2c0,1.1,0.5,1.7,1.2,1.7
		c1.1,0,1.6-1.1,1.6-1.1V346.4z"/>
	<path fill="#FFFFFF" d="M250.1,342.6v8.9h-2.8v-8.9h-3l0-1.5h8.8v1.5H250.1z"/>
	<path fill="#FFFFFF" d="M262.5,349.7c0,0-1,2-3.7,2c-2.9,0-4.9-1.5-4.9-5.3c0-3.7,1.9-5.6,4.6-5.6c2.6,0,4.1,1.7,4.1,4.7
		c0,0.8-0.2,1.3-0.2,1.3h-5.6c0,2.5,0.7,3.4,2.3,3.4c1.6,0,2.4-1.4,2.4-1.4L262.5,349.7z M256.8,345.5h3.2V345
		c0-2.1-0.4-2.9-1.5-2.9S256.9,342.9,256.8,345.5z"/>
	<path fill="#FFFFFF" d="M264.5,341h2.2l0.4,0.9h0.1c0,0,0.9-1.2,2.8-1.2c2.5,0,4,2.1,4,5.2c0,3.4-1.6,5.7-4.1,5.7
		c-1.8,0-2.5-0.8-2.5-0.8h-0.1v5.8l-2.8,0.1V341z M267.2,343.3v6.1c0,0,0.5,0.7,1.5,0.7c1.5,0,2.2-1,2.2-4c0-2.9-0.7-3.7-2-3.7
		C267.9,342.4,267.3,343.3,267.2,343.3z"/>
	<path fill="#FFFFFF" d="M275.8,341h2.2l0.4,0.9h0.1c0,0,0.9-1.2,2.8-1.2c2.5,0,4,2.1,4,5.2c0,3.4-1.6,5.7-4.1,5.7
		c-1.8,0-2.5-0.8-2.5-0.8h-0.1v5.8l-2.8,0.1V341z M278.6,343.3v6.1c0,0,0.5,0.7,1.5,0.7c1.5,0,2.2-1,2.2-4c0-2.9-0.7-3.7-2-3.7
		C279.3,342.4,278.7,343.3,278.6,343.3z"/>
	<path fill="#FFFFFF" d="M296.3,341v10.5h-2.8v-7.3l-4.1,7.3h-2.2V341h2.8v6.9l3.8-6.9H296.3z"/>
	<path fill="#FFFFFF" d="M303.5,342.6v8.9h-2.8v-8.9h-3l0-1.5h8.8v1.5H303.5z"/>
	<path fill="#FFFFFF" d="M312.2,351.7c-3.1,0-4.9-2-4.9-5.5c0-3.5,1.7-5.5,4.9-5.5c3.2,0,4.9,2,4.9,5.5
		C317.1,349.7,315.3,351.7,312.2,351.7z M310.4,346.3c0,3,0.5,4.1,1.9,4.1s1.9-1.1,1.9-4.1c0-3-0.5-4.1-1.9-4.1
		S310.4,343.3,310.4,346.3z"/>
	<path fill="#FFFFFF" d="M319,341h2.2l0.4,0.9h0.1c0,0,0.9-1.2,2.8-1.2c2.5,0,4,2.1,4,5.2c0,3.4-1.6,5.7-4.1,5.7
		c-1.8,0-2.5-0.8-2.5-0.8h-0.1v5.8l-2.8,0.1V341z M321.8,343.3v6.1c0,0,0.5,0.7,1.5,0.7c1.5,0,2.2-1,2.2-4c0-2.9-0.7-3.7-2-3.7
		C322.4,342.4,321.8,343.3,321.8,343.3z"/>
	<path fill="#FFFFFF" d="M339.4,341v10.5h-2.8v-7.3l-4.1,7.3h-2.2V341h2.8v6.9l3.8-6.9H339.4z"/>
	<path fill="#FFFFFF" d="M351,341v10.5h-2.8v-7.3l-4.1,7.3h-2.2V341h2.8v6.9l3.8-6.9H351z"/>
	<path fill="#FFFFFF" d="M368,339.4h-3.6v12.1h-2.9v-12.1h-3.7v-1.5H368V339.4z"/>
	<path fill="#FFFFFF" d="M381.6,346.3c0,3.5-1.6,5.5-4.7,5.5c-2.6,0-4.2-1.7-4.4-4.9h-1.2v4.7h-2.8V341h2.8v4.4h1.3
		c0.3-3,1.7-4.6,4.3-4.6C380.1,340.8,381.6,342.8,381.6,346.3z M375.2,346.3c0,2.8,0.4,4.1,1.8,4.1c1.4,0,1.8-1.3,1.8-4.1
		c0-2.9-0.4-4.1-1.8-4.1C375.6,342.2,375.2,343.3,375.2,346.3z"/>
	<path fill="#FFFFFF" d="M395.3,351.5h-2.6l-0.2-6.9v-1.1h-0.1l-2.7,8h-1.9l-2.5-8h0l0,0.6l-0.3,7.4h-1.5L384,341h3.3l2,7.5h0
		l2.4-7.5h3.3L395.3,351.5z"/>
	<path fill="#FFFFFF" d="M405.7,349.7c0,0-1,2-3.7,2c-2.9,0-4.9-1.5-4.9-5.3c0-3.7,1.9-5.6,4.6-5.6c2.6,0,4.1,1.7,4.1,4.7
		c0,0.8-0.2,1.3-0.2,1.3H400c0,2.5,0.7,3.4,2.3,3.4c1.6,0,2.4-1.4,2.4-1.4L405.7,349.7z M400,345.5h3.2V345c0-2.1-0.4-2.9-1.5-2.9
		S400.1,342.9,400,345.5z"/>
	<path fill="#FFFFFF" d="M407.6,341h2.8v4.4h3.2V341h2.8v10.5h-2.8v-4.7h-3.2v4.7h-2.8V341z"/>
	<path fill="#FFFFFF" d="M423.6,342.2c-1.5,0-2.3,0.7-2.3,4.1c0,3.3,1,4,2.3,4c1.7,0,2.4-1.4,2.4-1.4l1,0.6c0,0-0.8,2.2-3.7,2.2
		c-3.2,0-5-1.9-5-5.4c0-3.4,1.9-5.5,5-5.5c1.4,0,3.1,0.8,3.1,0.8l-0.3,1.3C426.1,343,424.6,342.2,423.6,342.2z"/>
	<path fill="#FFFFFF" d="M428.3,341h2.8v4.4l1.3-0.7l2.3-3.7h1.6l-2.5,3.9l3.3,6.5h-3.2l-2.2-5l-0.7,0.3v4.7h-2.8V341z"/>
	<path fill="#FFFFFF" d="M442.8,351.7c-3.1,0-4.9-2-4.9-5.5c0-3.5,1.7-5.5,4.9-5.5c3.2,0,4.9,2,4.9,5.5
		C447.7,349.7,445.8,351.7,442.8,351.7z M440.9,346.3c0,3,0.5,4.1,1.9,4.1c1.4,0,1.9-1.1,1.9-4.1c0-3-0.5-4.1-1.9-4.1
		C441.4,342.2,440.9,343.3,440.9,346.3z"/>
	<path fill="#FFFFFF" d="M458.6,341v10.5h-2.8v-7.3l-4.1,7.3h-2.2V341h2.8v6.9l3.8-6.9H458.6z M455.5,337.6c0-0.2-0.1-0.4-0.1-0.4
		V337l2.2,0.2c0,0,0.2,2.6-3.3,2.6c-3.5,0-3.3-2.6-3.3-2.6l2.2-0.2v0.3c0,0-0.1,0.2-0.1,0.4c0,0.4,0.2,0.8,1.2,0.8
		C455.3,338.5,455.5,338,455.5,337.6z"/>
	<path fill="#FFFFFF" d="M470.6,351.7c-3.1,0-4.9-2-4.9-5.5c0-3.5,1.7-5.5,4.9-5.5c3.2,0,4.9,2,4.9,5.5
		C475.5,349.7,473.7,351.7,470.6,351.7z M468.8,346.3c0,3,0.5,4.1,1.9,4.1c1.4,0,1.9-1.1,1.9-4.1c0-3-0.5-4.1-1.9-4.1
		C469.3,342.2,468.8,343.3,468.8,346.3z"/>
	<path fill="#FFFFFF" d="M478.3,343.8h0.2c0.2-0.8,1.2-3,3.7-3c2.8,0,4.4,1.9,4.4,5.4s-1.9,5.5-4.9,5.5c-3.4,0-4.8-2.4-4.8-6
		c0-4.2,0.3-9,5.6-9.7l2.9-0.4l0.1,2.7l-2.3,0.2C479.5,338.9,478.2,340.6,478.3,343.8z M479.8,345.9c0,3.2,0.5,4.5,1.9,4.5
		c1.4,0,1.9-1.1,1.9-4.1s-0.5-4-1.9-4C480.3,342.2,479.8,343.5,479.8,345.9z"/>
	<path fill="#FFFFFF" d="M496.3,351.5h-2.8v-8.9h-1.9c-0.1,5.2-1.2,9.2-3.8,9.2c-0.2,0-0.4,0-0.5-0.1l0.1-1.7c0.1,0,0.2,0,0.3,0
		c1.8,0,2.4-3.5,2.4-9h6.2V351.5z"/>
	<path fill="#FFFFFF" d="M499.4,341.7c0,0,1.6-0.8,3.2-0.8c2.4,0,4,0.8,4,3.7v4.7c0,0.9,0.2,1.1,0.4,1.1c0.3,0,0.7-0.1,0.7-0.1
		l0.1,1.1c0,0-1.4,0.5-2.3,0.5c-0.8,0-1.2-0.4-1.4-1.3h-0.1c0,0-0.6,1.3-2.7,1.3c-1.9,0-3.2-1-3.2-2.7c0-2.8,3.5-3.5,5.7-3.7v-0.6
		c0-1.9-0.5-2.5-1.7-2.5c-1,0-2.5,0.8-2.5,0.8L499.4,341.7z M503.9,346.4c-1.7,0.2-2.8,0.8-2.8,2.2c0,1.1,0.5,1.7,1.2,1.7
		c1.2,0,1.6-1.1,1.6-1.1V346.4z"/>
	<path fill="#FFFFFF" d="M514.3,342.2c-1.5,0-2.3,0.7-2.3,4.1c0,3.3,1,4,2.3,4c1.7,0,2.4-1.4,2.4-1.4l1,0.6c0,0-0.8,2.2-3.7,2.2
		c-3.2,0-5-1.9-5-5.4c0-3.4,1.9-5.5,5-5.5c1.4,0,3.1,0.8,3.1,0.8l-0.3,1.3C516.7,343,515.3,342.2,514.3,342.2z"/>
	<path fill="#FFFFFF" d="M523.6,342.6v8.9h-2.8v-8.9h-3l0-1.5h8.8v1.5H523.6z"/>
	<path fill="#FFFFFF" d="M537.2,341v10.5h-2.8v-7.3l-4.1,7.3h-2.2V341h2.8v6.9l3.8-6.9H537.2z"/>
</g>
</svg>
