<?xml version="1.0" encoding="utf-8"?>
<!-- Generator: Adobe Illustrator 18.0.0, SVG Export Plug-In . SVG Version: 6.00 Build 0)  -->
<!DOCTYPE svg PUBLIC "-//W3C//DTD SVG 1.1//EN" "http://www.w3.org/Graphics/SVG/1.1/DTD/svg11.dtd">
<svg version="1.1" id="Слой_1" xmlns="http://www.w3.org/2000/svg" xmlns:xlink="http://www.w3.org/1999/xlink" x="0px" y="0px"
	 viewBox="0 0 1142.9 646.8" enable-background="new 0 0 1142.9 646.8" xml:space="preserve">
<g>
	<rect x="4.4" y="5.8" fill="#27348B" width="1133.8" height="637.7"/>
	<g>
		<path fill="#FFFFFF" d="M1138.7,644.1L4.4,646.8l-3.2,0l0-3.2L0,5.8l0-4.4l4.4,0l141.7-0.7l141.7-0.4l141.7-0.2L571.3,0L713,0.1
			l141.7,0.2l283.4,0.8l4.8,0l0,4.7l-0.7,159.4l-0.9,159.4l-1.1,159.4l-0.7,79.7L1138.7,644.1z M1137.6,643l-0.8-79.2l-0.7-79.7
			l-1.1-159.4l-0.9-159.4l-0.7-159.4l4.7,4.7l-283.4,0.8L713,11.6l-141.7,0.1l-141.7-0.1l-141.7-0.2L146.1,11L4.4,10.2l4.4-4.4
			L7.6,643.5l-3.2-3.2L1137.6,643z"/>
	</g>
</g>
<g>
	<path fill="#FFFFFF" d="M293.8,231.5c0,11.9-0.3,20.4-0.8,25.3c-0.6,5-2.3,9.5-5.3,13.6c-3,4.1-6.9,7.3-12,9.4
		c-5,2.2-10.9,3.3-17.6,3.3c-6.3,0-12-1-17.1-3.1s-9.1-5.2-12.2-9.3c-3.1-4.1-4.9-8.7-5.5-13.5c-0.6-4.9-0.9-13.4-0.9-25.6v-20.3
		c0-11.9,0.3-20.3,0.8-25.3c0.6-5,2.3-9.5,5.3-13.6c3-4.1,6.9-7.3,12-9.4c5-2.2,10.9-3.3,17.6-3.3c6.3,0,12,1,17.1,3.1
		c5.1,2.1,9.1,5.2,12.2,9.3c3.1,4.2,4.9,8.7,5.5,13.5c0.6,4.9,0.9,13.4,0.9,25.6V231.5z M263,192.5c0-5.5-0.3-9-0.9-10.6
		c-0.6-1.5-1.9-2.3-3.8-2.3c-1.6,0-2.8,0.6-3.7,1.9c-0.9,1.2-1.3,4.9-1.3,11v55.4c0,6.9,0.3,11.1,0.8,12.7c0.6,1.6,1.9,2.4,3.9,2.4
		c2.1,0,3.4-0.9,4-2.8c0.6-1.9,0.9-6.3,0.9-13.3V192.5z"/>
	<path fill="#FFFFFF" d="M377.3,213.7h-30.8v-20.6c0-6-0.3-9.7-1-11.2c-0.7-1.5-2.1-2.2-4.4-2.2c-2.5,0-4.2,0.9-4.8,2.7
		c-0.7,1.8-1,5.7-1,11.7v55.1c0,5.8,0.3,9.5,1,11.3c0.7,1.8,2.2,2.6,4.6,2.6c2.3,0,3.8-0.9,4.5-2.6c0.7-1.8,1.1-5.9,1.1-12.4v-14.9
		h30.8v4.6c0,12.3-0.9,21-2.6,26.1c-1.7,5.1-5.6,9.6-11.5,13.5c-5.9,3.9-13.2,5.8-21.9,5.8c-9,0-16.5-1.6-22.3-4.9
		s-9.7-7.8-11.6-13.6s-2.9-14.5-2.9-26.1v-34.6c0-8.5,0.3-15,0.9-19.2c0.6-4.3,2.3-8.4,5.2-12.3c2.9-4,6.9-7.1,12.1-9.3
		c5.2-2.3,11.1-3.4,17.8-3.4c9.1,0,16.6,1.8,22.5,5.3c5.9,3.5,9.8,7.9,11.6,13.1c1.9,5.2,2.8,13.4,2.8,24.5V213.7z"/>
	<path fill="#FFFFFF" d="M388.4,162.1h51.4v23.7h-20.6v22.5h19.3v22.6h-19.3v26.1h22.6v23.7h-53.5V162.1z"/>
	<path fill="#FFFFFF" d="M521.6,162.1v118.6h-30.8v-49.8h-9.2v49.8h-30.8V162.1h30.8v42.4h9.2v-42.4H521.6z"/>
	<path fill="#FFFFFF" d="M605.8,252.9c0,8.8-1.1,15.2-3.4,19c-2.3,3.9-5.8,6.3-10.4,7.3c-4.7,1-12.1,1.5-22.3,1.5H534V162h30.9v40.6
		h4.8c9.5,0,16.7,0.6,21.6,1.7c4.9,1.1,8.5,3.6,10.9,7.4c2.4,3.8,3.6,9.9,3.6,18.1V252.9z M574.9,249.3v-17.1c0-5-0.5-8-1.5-9.1
		c-1-1.1-3.8-1.7-8.5-1.8v39c3.9,0,6.6-0.5,7.9-1.5C574.2,257.7,574.9,254.6,574.9,249.3z"/>
	<path fill="#FFFFFF" d="M706.1,260.4v20.2H641l0-16.9c19.3-31.5,30.7-51.1,34.4-58.6c3.6-7.5,5.5-13.3,5.5-17.5
		c0-3.2-0.6-5.6-1.7-7.2c-1.1-1.6-2.8-2.4-5-2.4c-2.3,0-3.9,0.9-5,2.6c-1.1,1.8-1.7,5.2-1.7,10.5v11.3H641v-4.3
		c0-6.6,0.3-11.9,1-15.7c0.7-3.8,2.4-7.6,5.1-11.3c2.7-3.7,6.2-6.5,10.5-8.4s9.4-2.9,15.5-2.9c11.8,0,20.7,2.9,26.7,8.8
		c6,5.8,9,13.2,9,22.2c0,6.8-1.7,14-5.1,21.5c-3.4,7.6-13.4,23.6-30,48.2H706.1z"/>
	<path fill="#FFFFFF" d="M787.4,202.2v39.6c0,9-0.5,15.5-1.5,19.6c-1,4.1-3,7.9-6.1,11.5c-3.1,3.6-6.8,6.1-11.1,7.7
		s-9.2,2.3-14.6,2.3c-7.1,0-13-0.8-17.7-2.5s-8.4-4.2-11.2-7.7c-2.8-3.5-4.8-7.1-5.9-10.9c-1.2-3.8-1.8-9.9-1.8-18.3v-41.4
		c0-10.9,0.9-19,2.8-24.5c1.9-5.4,5.6-9.8,11.2-13c5.6-3.3,12.4-4.9,20.3-4.9c6.5,0,12.3,1.1,17.4,3.4s9,5,11.5,8.3
		c2.5,3.3,4.3,7,5.2,11.1C786.9,186.7,787.4,193.2,787.4,202.2z M757.8,192.2c0-6.3-0.3-10.2-0.9-11.8c-0.6-1.6-2-2.4-4.3-2.4
		c-2.2,0-3.7,0.8-4.4,2.5c-0.7,1.7-1.1,5.6-1.1,11.7v57.9c0,6.9,0.3,11,1,12.5c0.7,1.4,2.1,2.1,4.3,2.1s3.6-0.8,4.3-2.5
		c0.7-1.7,1-5.4,1-11.2V192.2z"/>
	<path fill="#FFFFFF" d="M843.6,162.1v118.6h-29.6v-63.6c0-9.2-0.2-14.7-0.7-16.6c-0.4-1.9-1.6-3.3-3.6-4.2s-6.4-1.4-13.2-1.4h-2.9
		v-13.8c14.3-3.1,25.2-9.4,32.6-19H843.6z"/>
	<path fill="#FFFFFF" d="M919.7,162.1v19h-36.7v20.1c4.6-5.4,10.5-8.1,17.7-8.1c8.2,0,14.3,2.3,18.5,6.8c4.2,4.6,6.3,13.3,6.3,26.3
		v16.9c0,8.4-0.4,14.6-1.2,18.5c-0.8,3.9-2.5,7.6-5.2,10.9c-2.6,3.3-6.3,5.9-11,7.7c-4.7,1.8-10.5,2.7-17.2,2.7
		c-7.6,0-14.3-1.3-20.1-4c-5.8-2.7-9.9-6.6-12.4-11.9s-3.7-13.4-3.7-24.5v-6.4h29.6v7.4c0,7.7,0.3,13.1,0.8,16.3
		c0.5,3.2,2.4,4.8,5.6,4.8c1.5,0,2.6-0.5,3.6-1.4c0.9-0.9,1.4-1.9,1.5-3c0.1-1.1,0.2-5.7,0.3-14v-23.5c0-4.4-0.5-7.5-1.4-9.1
		s-2.5-2.4-4.6-2.4c-1.4,0-2.5,0.4-3.4,1.2c-0.9,0.8-1.5,1.7-1.8,2.7c-0.3,1-0.4,3.2-0.4,6.6H855l1.2-59.8H919.7z"/>
	<path fill="#FFFFFF" d="M315.2,415.1h4.7v-13.7h4.3v13.7h2.1l-0.5,7.1h-2.2l-0.5-4.7H311v-16h4.3V415.1z"/>
	<path fill="#FFFFFF" d="M340.9,414.7c0,0-1.5,3.1-5.7,3.1c-4.5,0-7.5-2.3-7.5-8.1c0-5.7,2.8-8.6,7.1-8.6c4,0,6.3,2.6,6.3,7.2
		c0,1.3-0.3,2-0.3,2h-8.6c0.1,3.9,1.1,5.3,3.5,5.3c2.5,0,3.7-2.1,3.7-2.1L340.9,414.7z M332.3,408.3h4.9v-0.7c0-3.3-0.6-4.4-2.3-4.4
		C333.2,403.2,332.5,404.3,332.3,408.3z"/>
	<path fill="#FFFFFF" d="M343.9,401.5h3.4l0.6,1.4h0.1c0,0,1.3-1.8,4.4-1.8c3.8,0,6.1,3.2,6.1,8c0,5.2-2.4,8.7-6.3,8.7
		c-2.8,0-3.9-1.2-3.9-1.2h-0.1v8.9l-4.3,0.1V401.5z M348.2,405v9.3c0,0,0.7,1.1,2.4,1.1c2.3,0,3.4-1.5,3.4-6.1c0-4.5-1.1-5.6-3-5.6
		C349.2,403.6,348.3,404.8,348.2,405z"/>
	<path fill="#FFFFFF" d="M373.5,414.7c0,0-1.5,3.1-5.7,3.1c-4.5,0-7.5-2.3-7.5-8.1c0-5.7,2.8-8.6,7.1-8.6c4,0,6.3,2.6,6.3,7.2
		c0,1.3-0.3,2-0.3,2h-8.6c0.1,3.9,1.1,5.3,3.5,5.3c2.5,0,3.7-2.1,3.7-2.1L373.5,414.7z M364.9,408.3h4.9v-0.7c0-3.3-0.6-4.4-2.3-4.4
		S365.1,404.3,364.9,408.3z"/>
	<path fill="#FFFFFF" d="M394.6,417.5h-4l-0.3-10.5v-1.7h-0.1l-4.1,12.2h-2.9l-3.9-12.2h-0.1l0,0.9l-0.5,11.3h-2.4l0.9-16h5.1
		l3.1,11.5h0l3.6-11.5h5L394.6,417.5z"/>
	<path fill="#FFFFFF" d="M404.7,417.8c-4.8,0-7.5-3-7.5-8.4s2.7-8.4,7.5-8.4c4.8,0,7.5,3,7.5,8.4S409.4,417.8,404.7,417.8z
		 M401.9,409.4c0,4.6,0.8,6.3,2.9,6.3s2.9-1.6,2.9-6.2s-0.8-6.2-2.9-6.2S401.9,404.8,401.9,409.4z"/>
	<path fill="#FFFFFF" d="M415.1,401.5h4.3v6.7h5v-6.7h4.3v16h-4.3v-7.1h-5v7.1h-4.3V401.5z"/>
	<path fill="#FFFFFF" d="M446.2,401.5v16H442v-11.2l-6.2,11.2h-3.3v-16h4.3V412l5.9-10.5H446.2z"/>
	<path fill="#FFFFFF" d="M461.9,417.5h-4.3v-6.2H456l-2.6,6.2h-4.3l3.4-7c-1.7-0.8-3.1-2.1-3.1-4c0-3.5,2.6-5,6.8-5h5.8V417.5z
		 M456.5,409.3h1.2v-6h-1.2c-1.8,0-2.9,0.8-2.9,3.1C453.5,408.5,454.9,409.3,456.5,409.3z"/>
	<path fill="#FFFFFF" d="M474,417.5v-16h6.1c4.8,0,6.5,1.9,6.5,4.3c0,1.9-1.4,2.9-2.8,3.5c1.6,0.4,3.4,1.5,3.4,3.5
		c0,2.8-1.7,4.7-6.9,4.7H474z M480.6,408.6c0,0,1.7-0.2,1.7-2.6c0-1.6-0.6-2.6-2.3-2.6h-1.8v5.2H480.6z M478.2,410.1v5.4h1.8
		c2,0,2.7-1.2,2.7-2.9c0-1.5-0.7-2.5-2.5-2.5H478.2z"/>
	<path fill="#FFFFFF" d="M489.9,401.5h3.4l0.6,1.4h0.1c0,0,1.3-1.8,4.4-1.8c3.8,0,6.1,3.2,6.1,8c0,5.2-2.4,8.7-6.3,8.7
		c-2.8,0-3.9-1.2-3.9-1.2h-0.1v8.9l-4.3,0.1V401.5z M494.2,405v9.3c0,0,0.7,1.1,2.4,1.1c2.3,0,3.4-1.5,3.4-6.1c0-4.5-1.1-5.6-3-5.6
		C495.2,403.6,494.3,404.8,494.2,405z"/>
	<path fill="#FFFFFF" d="M508.2,423.2c2,0,3-1.6,4.3-5.1l-6.8-16.6h5.2l3.9,11.4l3.3-11.4h2.7l-5.5,16.4c-1.8,4.9-3.4,8-6.5,8
		c-1.7,0-2.5-0.5-2.5-0.5l0.4-2.5C506.5,422.8,507.3,423.2,508.2,423.2z"/>
	<path fill="#FFFFFF" d="M530.5,401.5h4.3v16h-4.3v-6.6h0c0,0-1.2,0.8-3.9,0.8c-2.8,0-4.5-1.2-4.5-4.5v-5.7h4.3v5.8
		c0,1.7,0.5,2.5,1.8,2.5c1.4,0,2.4-0.6,2.4-0.6V401.5z"/>
	<path fill="#FFFFFF" d="M550.8,414.7c0,0-1.5,3.1-5.7,3.1c-4.5,0-7.5-2.3-7.5-8.1c0-5.7,2.8-8.6,7.1-8.6c4,0,6.3,2.6,6.3,7.2
		c0,1.3-0.3,2-0.3,2h-8.6c0.1,3.9,1.1,5.3,3.5,5.3c2.5,0,3.7-2.1,3.7-2.1L550.8,414.7z M542.1,408.3h4.9v-0.7c0-3.3-0.6-4.4-2.3-4.4
		S542.3,404.3,542.1,408.3z"/>
	<path fill="#FFFFFF" d="M553.8,401.5h4.3v6.7h5v-6.7h4.3v16H563v-7.1h-5v7.1h-4.3V401.5z"/>
	<path fill="#FFFFFF" d="M584.9,401.5v16h-4.3v-11.2l-6.2,11.2h-3.3v-16h4.3V412l5.9-10.5H584.9z"/>
	<path fill="#FFFFFF" d="M600.6,417.5h-4.3v-6.2h-1.7l-2.6,6.2h-4.3l3.4-7c-1.7-0.8-3.1-2.1-3.1-4c0-3.5,2.6-5,6.8-5h5.8V417.5z
		 M595.1,409.3h1.2v-6h-1.2c-1.8,0-2.9,0.8-2.9,3.1C592.2,408.5,593.5,409.3,595.1,409.3z"/>
	<path fill="#FFFFFF" d="M625.9,417.5h-4.3v-13.7h-4.7v13.7h-4.3v-16h13.2V417.5z"/>
	<path fill="#FFFFFF" d="M641.9,414.7c0,0-1.5,3.1-5.7,3.1c-4.5,0-7.5-2.3-7.5-8.1c0-5.7,2.8-8.6,7.1-8.6c4,0,6.3,2.6,6.3,7.2
		c0,1.3-0.3,2-0.3,2h-8.6c0.1,3.9,1.1,5.3,3.5,5.3c2.5,0,3.7-2.1,3.7-2.1L641.9,414.7z M633.3,408.3h4.9v-0.7c0-3.3-0.6-4.4-2.3-4.4
		C634.2,403.2,633.4,404.3,633.3,408.3z"/>
	<path fill="#FFFFFF" d="M644.9,401.5h3.4l0.6,1.4h0.1c0,0,1.3-1.8,4.4-1.8c3.8,0,6.1,3.2,6.1,8c0,5.2-2.4,8.7-6.3,8.7
		c-2.8,0-3.9-1.2-3.9-1.2h-0.1v8.9l-4.3,0.1V401.5z M649.2,405v9.3c0,0,0.7,1.1,2.4,1.1c2.3,0,3.4-1.5,3.4-6.1c0-4.5-1.1-5.6-3-5.6
		C650.2,403.6,649.3,404.8,649.2,405z"/>
	<path fill="#FFFFFF" d="M662.4,417.5v-16h6.1c4.8,0,6.5,1.9,6.5,4.3c0,1.9-1.4,2.9-2.8,3.5c1.6,0.4,3.4,1.5,3.4,3.5
		c0,2.8-1.7,4.7-6.9,4.7H662.4z M669,408.6c0,0,1.7-0.2,1.7-2.6c0-1.6-0.6-2.6-2.3-2.6h-1.8v5.2H669z M666.6,410.1v5.4h1.8
		c2,0,2.7-1.2,2.7-2.9c0-1.5-0.7-2.5-2.5-2.5H666.6z"/>
	<path fill="#FFFFFF" d="M684.8,417.8c-4.8,0-7.5-3-7.5-8.4s2.7-8.4,7.5-8.4c4.8,0,7.5,3,7.5,8.4S689.4,417.8,684.8,417.8z
		 M681.9,409.4c0,4.6,0.8,6.3,2.9,6.3c2.1,0,2.9-1.6,2.9-6.2s-0.8-6.2-2.9-6.2C682.7,403.2,681.9,404.8,681.9,409.4z"/>
	<path fill="#FFFFFF" d="M709,401.5v16h-4.3v-11.2l-6.2,11.2h-3.3v-16h4.3V412l5.9-10.5H709z M704.3,396.2c0-0.4-0.1-0.6-0.1-0.6
		v-0.4l3.3,0.3c0,0,0.3,3.9-5.1,3.9c-5.3,0-5.1-3.9-5.1-3.9l3.3-0.3v0.4c0,0-0.1,0.3-0.1,0.6c0,0.5,0.3,1.2,1.9,1.2
		C704,397.5,704.3,396.8,704.3,396.2z"/>
	<path fill="#FFFFFF" d="M721,401.5h4.3v6.7h5v-6.7h4.3v16h-4.3v-7.1h-5v7.1H721V401.5z"/>
	<path fill="#FFFFFF" d="M739.1,402.4c0,0,2.5-1.3,5-1.3c3.7,0,6.2,1.3,6.2,5.6v7.3c0,1.3,0.4,1.7,0.7,1.7c0.4,0,1.1-0.2,1.1-0.2
		l0.1,1.7c0,0-2.2,0.7-3.6,0.7c-1.2,0-1.9-0.6-2.1-2h-0.2c0,0-0.9,2-4.2,2c-2.9,0-4.9-1.6-4.9-4.2c0-4.3,5.4-5.3,8.8-5.6v-0.9
		c0-3-0.8-3.8-2.7-3.8c-1.5,0-3.8,1.2-3.8,1.2L739.1,402.4z M746,409.7c-2.7,0.3-4.4,1.2-4.4,3.4c0,1.8,0.8,2.6,1.9,2.6
		c1.8,0,2.5-1.8,2.5-1.8V409.7z"/>
	<path fill="#FFFFFF" d="M758.9,403.8v13.7h-4.3v-16h9.6v2.3H758.9z"/>
	<path fill="#FFFFFF" d="M766.6,401.5h3.4l0.6,1.4h0.1c0,0,1.3-1.8,4.4-1.8c3.8,0,6.1,3.2,6.1,8c0,5.2-2.4,8.7-6.3,8.7
		c-2.8,0-3.9-1.2-3.9-1.2h-0.1v8.9l-4.3,0.1V401.5z M770.9,405v9.3c0,0,0.7,1.1,2.4,1.1c2.3,0,3.4-1.5,3.4-6.1c0-4.5-1.1-5.6-3-5.6
		C771.8,403.6,770.9,404.8,770.9,405z"/>
	<path fill="#FFFFFF" d="M784.9,402.4c0,0,2.5-1.3,5-1.3c3.7,0,6.2,1.3,6.2,5.6v7.3c0,1.3,0.4,1.7,0.7,1.7c0.4,0,1.1-0.2,1.1-0.2
		l0.1,1.7c0,0-2.2,0.7-3.6,0.7c-1.2,0-1.9-0.6-2.1-2h-0.2c0,0-0.9,2-4.2,2c-2.9,0-4.9-1.6-4.9-4.2c0-4.3,5.4-5.3,8.8-5.6v-0.9
		c0-3-0.8-3.8-2.7-3.8c-1.5,0-3.8,1.2-3.8,1.2L784.9,402.4z M791.8,409.7c-2.7,0.3-4.4,1.2-4.4,3.4c0,1.8,0.8,2.6,1.9,2.6
		c1.8,0,2.5-1.8,2.5-1.8V409.7z"/>
	<path fill="#FFFFFF" d="M814.7,422.2h-2l-0.7-4.7h-9.9l-1,4.7h-2l-0.3-7h2.1c1.4-3.7,1.6-7.8,1.6-13.7h10.4v13.7h2.3L814.7,422.2z
		 M803.6,415.2h5.1v-11.5h-3.8C804.8,408,804.7,411.8,803.6,415.2z"/>
	<path fill="#FFFFFF" d="M821.7,407h1.5c4.3,0,7.1,1.4,7.1,5.1c0,3.7-2.3,5.4-7.1,5.4h-5.8v-16h4.3V407z M821.7,408.8v6.7h1.3
		c1.6,0,2.7-0.6,2.7-3.5c0-2.7-1.3-3.2-2.7-3.2H821.7z M836.6,417.5h-4.3v-16h4.3V417.5z"/>
	<path fill="#FFFFFF" d="M219.6,440.7c0,0,2.6-1.2,4.8-1.2c4.4,0,6.3,1.7,6.3,4.3c0,2-1.2,3-2.6,3.6c1.6,0.4,3.1,1.5,3.1,3.8
		c0,3.3-2.7,5-6.9,5c-4.8,0-5.8-2.5-5.8-2.5l1.2-1.5c0,0,1.2,2,4,2c2,0,3.1-1.1,3.1-3.1c0-1.8-1.1-2.4-2.5-2.4l-2.7,0.2v-2.2
		l2.9,0.1h0.2c0.6-0.1,1.7-0.6,1.7-2.6c0-1.8-0.9-2.5-2.7-2.5c-1.6,0-3.8,1.2-3.8,1.2L219.6,440.7z"/>
	<path fill="#FFFFFF" d="M234.9,440.8c0,0,2.5-1.3,5-1.3c3.7,0,6.2,1.3,6.2,5.6v7.3c0,1.3,0.4,1.7,0.7,1.7c0.4,0,1.1-0.2,1.1-0.2
		l0.1,1.7c0,0-2.2,0.7-3.6,0.7c-1.2,0-1.9-0.6-2.1-2h-0.2c0,0-0.9,2-4.2,2c-2.9,0-4.9-1.6-4.9-4.2c0-4.3,5.4-5.3,8.8-5.6v-0.9
		c0-3-0.8-3.8-2.7-3.8c-1.5,0-3.8,1.2-3.8,1.2L234.9,440.8z M241.8,448.1c-2.7,0.3-4.4,1.2-4.4,3.4c0,1.8,0.8,2.6,1.9,2.6
		c1.8,0,2.5-1.8,2.5-1.8V448.1z"/>
	<path fill="#FFFFFF" d="M272.9,460.6h-2l-0.7-4.7h-9.9l-1,4.7h-2l-0.3-7h2.1c1.4-3.7,1.6-7.8,1.6-13.7h10.4v13.7h2.3L272.9,460.6z
		 M261.8,453.6h5.1v-11.5h-3.8C263,446.4,262.9,450.2,261.8,453.6z"/>
	<path fill="#FFFFFF" d="M282.1,456.2c-4.8,0-7.5-3-7.5-8.4c0-5.3,2.7-8.4,7.5-8.4c4.8,0,7.5,3,7.5,8.4
		C289.6,453.2,286.7,456.2,282.1,456.2z M279.2,447.8c0,4.6,0.8,6.3,2.9,6.3s2.9-1.6,2.9-6.2s-0.8-6.2-2.9-6.2
		S279.2,443.2,279.2,447.8z"/>
	<path fill="#FFFFFF" d="M299.6,441.6c-2.3,0-3.6,1.1-3.6,6.2c0,5.1,1.5,6.2,3.5,6.2c2.5,0,3.6-2.2,3.6-2.2l1.5,1
		c0,0-1.2,3.4-5.6,3.4c-4.9,0-7.6-2.8-7.6-8.3c0-5.2,2.9-8.4,7.7-8.4c2.2,0,4.7,1.2,4.7,1.2l-0.4,2
		C303.4,442.8,301.1,441.6,299.6,441.6z"/>
	<path fill="#FFFFFF" d="M314,442.2v13.7h-4.2v-13.7h-4.6l0-2.3h13.5v2.3H314z"/>
	<path fill="#FFFFFF" d="M334.7,439.9v16h-4.3v-11.2l-6.2,11.2h-3.3v-16h4.3v10.5l5.9-10.5H334.7z"/>
	<path fill="#FFFFFF" d="M350.2,446l2.2-0.1l3.4-6.1h2.8l-4,7l4.6,9h-4.6l-3.4-7.7l-1,0v7.6H346v-7.7l-1-0.1l-3.5,7.7H337l4.6-9.1
		l-3.9-6.9h2.9l3.1,6.1l2.3,0.1v-6.2h4.3V446z"/>
	<path fill="#FFFFFF" d="M373.7,453.1c0,0-1.5,3.1-5.7,3.1c-4.5,0-7.5-2.3-7.5-8.1c0-5.7,2.8-8.6,7.1-8.6c4,0,6.3,2.6,6.3,7.2
		c0,1.3-0.3,2-0.3,2h-8.6c0.1,3.9,1.1,5.3,3.5,5.3c2.5,0,3.7-2.1,3.7-2.1L373.7,453.1z M365.1,446.7h4.9V446c0-3.3-0.6-4.4-2.3-4.4
		C365.9,441.6,365.2,442.7,365.1,446.7z"/>
	<path fill="#FFFFFF" d="M376.7,439.9h4.3v6.7h5v-6.7h4.3v16h-4.3v-7.1h-5v7.1h-4.3V439.9z"/>
	<path fill="#FFFFFF" d="M407.8,439.9v16h-4.3v-11.2l-6.2,11.2H394v-16h4.3v10.5l5.9-10.5H407.8z"/>
	<path fill="#FFFFFF" d="M423.5,455.9h-4.3v-6.2h-1.7l-2.6,6.2h-4.3l3.4-7c-1.7-0.8-3.1-2.1-3.1-4c0-3.5,2.6-5,6.8-5h5.8V455.9z
		 M418.1,447.7h1.2v-6H418c-1.8,0-2.9,0.8-2.9,3.1C415.2,446.9,416.5,447.7,418.1,447.7z"/>
	<path fill="#FFFFFF" d="M435.6,455.9v-16h6.1c4.8,0,6.5,1.9,6.5,4.3c0,1.9-1.4,2.9-2.8,3.5c1.6,0.4,3.4,1.5,3.4,3.5
		c0,2.8-1.7,4.7-6.9,4.7H435.6z M442.2,447c0,0,1.7-0.2,1.7-2.6c0-1.6-0.6-2.6-2.3-2.6h-1.8v5.2H442.2z M439.8,448.5v5.4h1.8
		c2,0,2.7-1.2,2.7-2.9c0-1.5-0.7-2.5-2.5-2.5H439.8z"/>
	<path fill="#FFFFFF" d="M466.9,441.6c-2.3,0-3.6,1.1-3.6,6.2c0,5.1,1.5,6.2,3.5,6.2c2.5,0,3.6-2.2,3.6-2.2l1.5,1
		c0,0-1.2,3.4-5.6,3.4c-4.9,0-7.6-2.8-7.6-8.3c0-5.2,2.9-8.4,7.7-8.4c2.2,0,4.7,1.2,4.7,1.2l-0.4,2
		C470.7,442.8,468.4,441.6,466.9,441.6z"/>
	<path fill="#FFFFFF" d="M485.3,439.5h0.2c4.7,0,7.9,3,7.9,8.4c0,5.4-3.2,8.4-7.9,8.4l-0.2,0v7.7L481,464v-7.8h-0.2
		c-4.7,0-7.8-2.9-7.8-8.3c0-5.4,3.1-8.4,7.8-8.4l0.2,0V432l4.3-0.3V439.5z M481,454.1v-12.4c-2.4,0-3.7,1.3-3.7,6.2
		C477.3,452.8,478.7,454.1,481,454.1z M485.3,441.6v12.4c2.4,0,3.7-1.3,3.7-6.2S487.7,441.6,485.3,441.6z"/>
	<path fill="#FFFFFF" d="M508.4,453.1c0,0-1.5,3.1-5.7,3.1c-4.5,0-7.5-2.3-7.5-8.1c0-5.7,2.8-8.6,7.1-8.6c4,0,6.3,2.6,6.3,7.2
		c0,1.3-0.3,2-0.3,2h-8.6c0.1,3.9,1.1,5.3,3.5,5.3c2.5,0,3.7-2.1,3.7-2.1L508.4,453.1z M499.8,446.7h4.9V446c0-3.3-0.6-4.4-2.3-4.4
		C500.7,441.6,499.9,442.7,499.8,446.7z"/>
	<path fill="#FFFFFF" d="M511.4,439.9h3.4l0.6,1.4h0.1c0,0,1.3-1.8,4.4-1.8c3.8,0,6.1,3.2,6.1,8c0,5.2-2.4,8.7-6.3,8.7
		c-2.8,0-3.9-1.2-3.9-1.2h-0.1v8.9l-4.3,0.1V439.9z M515.7,443.4v9.3c0,0,0.7,1.1,2.4,1.1c2.3,0,3.4-1.5,3.4-6.1
		c0-4.5-1.1-5.6-3-5.6C516.7,442,515.7,443.2,515.7,443.4z"/>
	<path fill="#FFFFFF" d="M541,453.1c0,0-1.5,3.1-5.7,3.1c-4.5,0-7.5-2.3-7.5-8.1c0-5.7,2.8-8.6,7.1-8.6c4,0,6.3,2.6,6.3,7.2
		c0,1.3-0.3,2-0.3,2h-8.6c0.1,3.9,1.1,5.3,3.5,5.3c2.5,0,3.7-2.1,3.7-2.1L541,453.1z M532.4,446.7h4.9V446c0-3.3-0.6-4.4-2.3-4.4
		S532.5,442.7,532.4,446.7z"/>
	<path fill="#FFFFFF" d="M566.4,460.6h-2l-0.7-4.7h-9.9l-1,4.7h-2l-0.3-7h2.1c1.4-3.7,1.6-7.8,1.6-13.7h10.4v13.7h2.3L566.4,460.6z
		 M555.3,453.6h5.1v-11.5h-3.8C556.6,446.4,556.4,450.2,555.3,453.6z"/>
	<path fill="#FFFFFF" d="M581.3,453.1c0,0-1.5,3.1-5.7,3.1c-4.5,0-7.5-2.3-7.5-8.1c0-5.7,2.8-8.6,7.1-8.6c4,0,6.3,2.6,6.3,7.2
		c0,1.3-0.3,2-0.3,2h-8.6c0.1,3.9,1.1,5.3,3.5,5.3c2.5,0,3.7-2.1,3.7-2.1L581.3,453.1z M572.7,446.7h4.9V446c0-3.3-0.6-4.4-2.3-4.4
		S572.9,442.7,572.7,446.7z"/>
	<path fill="#FFFFFF" d="M591.6,442.2v13.7h-4.2v-13.7h-4.6l0-2.3h13.5v2.3H591.6z"/>
	<path fill="#FFFFFF" d="M605.7,441.6c-2.3,0-3.6,1.1-3.6,6.2c0,5.1,1.5,6.2,3.5,6.2c2.5,0,3.6-2.2,3.6-2.2l1.5,1
		c0,0-1.2,3.4-5.6,3.4c-4.9,0-7.6-2.8-7.6-8.3c0-5.2,2.9-8.4,7.7-8.4c2.2,0,4.7,1.2,4.7,1.2l-0.4,2
		C609.5,442.8,607.2,441.6,605.7,441.6z"/>
	<path fill="#FFFFFF" d="M612.8,439.9h4.3v6.7l2-1.1l3.6-5.6h2.5l-3.8,6l5,10h-4.8l-3.4-7.6l-1,0.4v7.1h-4.3V439.9z"/>
	<path fill="#FFFFFF" d="M635,456.2c-4.8,0-7.5-3-7.5-8.4c0-5.3,2.7-8.4,7.5-8.4c4.8,0,7.5,3,7.5,8.4
		C642.5,453.2,639.6,456.2,635,456.2z M632.1,447.8c0,4.6,0.8,6.3,2.9,6.3s2.9-1.6,2.9-6.2s-0.8-6.2-2.9-6.2
		S632.1,443.2,632.1,447.8z"/>
	<path fill="#FFFFFF" d="M653.1,448.2h-8.7v-2.4h8.7V448.2z"/>
	<path fill="#FFFFFF" d="M676.1,447.9c0,5.4-2.4,8.4-7.2,8.4c-4,0-6.4-2.6-6.7-7.5h-1.9v7.1H656v-16h4.3v6.7h1.9
		c0.4-4.5,2.7-7,6.7-7C673.7,439.5,676.1,442.5,676.1,447.9z M666.2,447.8c0,4.3,0.6,6.3,2.7,6.3c2.1,0,2.8-2,2.8-6.3
		c0-4.5-0.6-6.3-2.8-6.3C666.8,441.5,666.2,443.3,666.2,447.8z"/>
	<path fill="#FFFFFF" d="M678.9,439.9h4.3v6.7h5v-6.7h4.3v16h-4.3v-7.1h-5v7.1h-4.3V439.9z"/>
	<path fill="#FFFFFF" d="M702.7,456.2c-4.8,0-7.5-3-7.5-8.4c0-5.3,2.7-8.4,7.5-8.4c4.8,0,7.5,3,7.5,8.4
		C710.2,453.2,707.3,456.2,702.7,456.2z M699.8,447.8c0,4.6,0.8,6.3,2.9,6.3s2.9-1.6,2.9-6.2s-0.8-6.2-2.9-6.2
		S699.8,443.2,699.8,447.8z"/>
	<path fill="#FFFFFF" d="M733.3,455.9H713v-16h4.3v13.7h3.8v-13.7h4.3v13.7h3.7v-13.7h4.3V455.9z"/>
	<path fill="#FFFFFF" d="M749.4,453.1c0,0-1.5,3.1-5.7,3.1c-4.5,0-7.5-2.3-7.5-8.1c0-5.7,2.8-8.6,7.1-8.6c4,0,6.3,2.6,6.3,7.2
		c0,1.3-0.3,2-0.3,2h-8.6c0.1,3.9,1.1,5.3,3.5,5.3c2.5,0,3.7-2.1,3.7-2.1L749.4,453.1z M740.7,446.7h4.9V446c0-3.3-0.6-4.4-2.3-4.4
		S740.9,442.7,740.7,446.7z"/>
	<path fill="#FFFFFF" d="M759.6,441.6c-2.3,0-3.6,1.1-3.6,6.2c0,5.1,1.5,6.2,3.5,6.2c2.5,0,3.6-2.2,3.6-2.2l1.5,1
		c0,0-1.2,3.4-5.6,3.4c-4.9,0-7.6-2.8-7.6-8.3c0-5.2,2.9-8.4,7.7-8.4c2.2,0,4.7,1.2,4.7,1.2l-0.4,2
		C763.3,442.8,761.1,441.6,759.6,441.6z"/>
	<path fill="#FFFFFF" d="M766.6,439.9h4.3v6.7l2-1.1l3.6-5.6h2.5l-3.8,6l5,10h-4.8l-3.4-7.6l-1,0.4v7.1h-4.3V439.9z"/>
	<path fill="#FFFFFF" d="M788.9,456.2c-4.8,0-7.5-3-7.5-8.4c0-5.3,2.7-8.4,7.5-8.4c4.8,0,7.5,3,7.5,8.4
		C796.4,453.2,793.5,456.2,788.9,456.2z M786,447.8c0,4.6,0.8,6.3,2.9,6.3c2.1,0,2.9-1.6,2.9-6.2s-0.8-6.2-2.9-6.2
		C786.8,441.6,786,443.2,786,447.8z"/>
	<path fill="#FFFFFF" d="M803.5,442.2v13.7h-4.3v-16h9.6v2.3H803.5z"/>
	<path fill="#FFFFFF" d="M817.6,456.2c-4.8,0-7.5-3-7.5-8.4c0-5.3,2.7-8.4,7.5-8.4c4.8,0,7.5,3,7.5,8.4
		C825.1,453.2,822.2,456.2,817.6,456.2z M814.7,447.8c0,4.6,0.8,6.3,2.9,6.3s2.9-1.6,2.9-6.2s-0.8-6.2-2.9-6.2
		S814.7,443.2,814.7,447.8z"/>
	<path fill="#FFFFFF" d="M843.3,441.6c-2.3,0-3.6,1.1-3.6,6.2c0,5.1,1.5,6.2,3.5,6.2c2.5,0,3.6-2.2,3.6-2.2l1.5,1
		c0,0-1.2,3.4-5.6,3.4c-4.9,0-7.6-2.8-7.6-8.3c0-5.2,2.9-8.4,7.7-8.4c2.2,0,4.7,1.2,4.7,1.2l-0.4,2
		C847.1,442.8,844.8,441.6,843.3,441.6z"/>
	<path fill="#FFFFFF" d="M863.6,455.9h-4.3v-13.7h-4.7v13.7h-4.3v-16h13.2V455.9z"/>
	<path fill="#FFFFFF" d="M873.9,456.2c-4.8,0-7.5-3-7.5-8.4c0-5.3,2.7-8.4,7.5-8.4c4.8,0,7.5,3,7.5,8.4
		C881.4,453.2,878.5,456.2,873.9,456.2z M871.1,447.8c0,4.6,0.8,6.3,2.9,6.3c2.1,0,2.9-1.6,2.9-6.2s-0.8-6.2-2.9-6.2
		C871.8,441.6,871.1,443.2,871.1,447.8z"/>
	<path fill="#FFFFFF" d="M884.3,439.9h3.4l0.6,1.4h0.1c0,0,1.3-1.8,4.4-1.8c3.8,0,6.1,3.2,6.1,8c0,5.2-2.4,8.7-6.3,8.7
		c-2.8,0-3.9-1.2-3.9-1.2h-0.1v8.9l-4.3,0.1V439.9z M888.5,443.4v9.3c0,0,0.7,1.1,2.4,1.1c2.3,0,3.4-1.5,3.4-6.1
		c0-4.5-1.1-5.6-3-5.6C889.5,442,888.6,443.2,888.5,443.4z"/>
	<path fill="#FFFFFF" d="M908.7,442.2v13.7h-4.2v-13.7h-4.6l0-2.3h13.5v2.3H908.7z"/>
	<path fill="#FFFFFF" d="M915.8,440.8c0,0,2.5-1.3,5-1.3c3.7,0,6.2,1.3,6.2,5.6v7.3c0,1.3,0.4,1.7,0.7,1.7c0.4,0,1.1-0.2,1.1-0.2
		l0.1,1.7c0,0-2.2,0.7-3.6,0.7c-1.2,0-1.9-0.6-2.1-2H923c0,0-0.9,2-4.2,2c-2.9,0-4.9-1.6-4.9-4.2c0-4.3,5.4-5.3,8.8-5.6v-0.9
		c0-3-0.8-3.8-2.7-3.8c-1.5,0-3.8,1.2-3.8,1.2L915.8,440.8z M922.6,448.1c-2.7,0.3-4.4,1.2-4.4,3.4c0,1.8,0.8,2.6,1.9,2.6
		c1.8,0,2.5-1.8,2.5-1.8V448.1z"/>
	<path fill="#FFFFFF" d="M329.5,478.3h4.3v6.7h5v-6.7h4.3v16h-4.3v-7.1h-5v7.1h-4.3V478.3z"/>
	<path fill="#FFFFFF" d="M347.6,479.2c0,0,2.5-1.3,5-1.3c3.7,0,6.2,1.3,6.2,5.6v7.3c0,1.3,0.4,1.7,0.7,1.7c0.4,0,1.1-0.2,1.1-0.2
		l0.1,1.7c0,0-2.2,0.7-3.6,0.7c-1.2,0-1.9-0.6-2.1-2h-0.2c0,0-0.9,2-4.2,2c-2.9,0-4.9-1.6-4.9-4.2c0-4.3,5.4-5.3,8.8-5.6v-0.9
		c0-3-0.8-3.8-2.7-3.8c-1.5,0-3.8,1.2-3.8,1.2L347.6,479.2z M354.5,486.5c-2.7,0.3-4.4,1.2-4.4,3.4c0,1.8,0.8,2.6,1.9,2.6
		c1.8,0,2.5-1.8,2.5-1.8V486.5z"/>
	<path fill="#FFFFFF" d="M378.6,480.6v13.7h-4.2v-13.7h-4.6l0-2.3h13.5v2.3H378.6z"/>
	<path fill="#FFFFFF" d="M397.7,491.5c0,0-1.5,3.1-5.7,3.1c-4.5,0-7.5-2.3-7.5-8.1c0-5.7,2.8-8.6,7.1-8.6c4,0,6.3,2.6,6.3,7.2
		c0,1.3-0.3,2-0.3,2H389c0.1,3.9,1.1,5.3,3.5,5.3c2.5,0,3.7-2.1,3.7-2.1L397.7,491.5z M389,485.1h4.9v-0.7c0-3.3-0.6-4.4-2.3-4.4
		S389.2,481.1,389,485.1z"/>
	<path fill="#FFFFFF" d="M400.7,478.3h3.4l0.6,1.4h0.1c0,0,1.3-1.8,4.4-1.8c3.8,0,6.1,3.2,6.1,8c0,5.2-2.4,8.7-6.3,8.7
		c-2.8,0-3.9-1.2-3.9-1.2h-0.1v8.9l-4.3,0.1V478.3z M404.9,481.8v9.3c0,0,0.7,1.1,2.4,1.1c2.3,0,3.4-1.5,3.4-6.1
		c0-4.5-1.1-5.6-3-5.6C405.9,480.4,405,481.6,404.9,481.8z"/>
	<path fill="#FFFFFF" d="M418.1,478.3h3.4l0.6,1.4h0.1c0,0,1.3-1.8,4.4-1.8c3.8,0,6.1,3.2,6.1,8c0,5.2-2.4,8.7-6.3,8.7
		c-2.8,0-3.9-1.2-3.9-1.2h-0.1v8.9l-4.3,0.1V478.3z M422.4,481.8v9.3c0,0,0.7,1.1,2.4,1.1c2.3,0,3.4-1.5,3.4-6.1
		c0-4.5-1.1-5.6-3-5.6C423.4,480.4,422.4,481.6,422.4,481.8z"/>
	<path fill="#FFFFFF" d="M449.4,478.3v16h-4.3v-11.2l-6.2,11.2h-3.3v-16h4.3v10.5l5.9-10.5H449.4z"/>
	<path fill="#FFFFFF" d="M460.5,480.6v13.7h-4.2v-13.7h-4.6l0-2.3h13.5v2.3H460.5z"/>
	<path fill="#FFFFFF" d="M473.8,494.6c-4.8,0-7.5-3-7.5-8.4s2.7-8.4,7.5-8.4c4.8,0,7.5,3,7.5,8.4S478.4,494.6,473.8,494.6z
		 M470.9,486.2c0,4.6,0.8,6.3,2.9,6.3s2.9-1.6,2.9-6.2c0-4.6-0.8-6.2-2.9-6.2S470.9,481.6,470.9,486.2z"/>
	<path fill="#FFFFFF" d="M484.2,478.3h3.4l0.6,1.4h0.1c0,0,1.3-1.8,4.4-1.8c3.8,0,6.1,3.2,6.1,8c0,5.2-2.4,8.7-6.3,8.7
		c-2.8,0-3.9-1.2-3.9-1.2h-0.1v8.9l-4.3,0.1V478.3z M488.4,481.8v9.3c0,0,0.7,1.1,2.4,1.1c2.3,0,3.4-1.5,3.4-6.1
		c0-4.5-1.1-5.6-3-5.6C489.4,480.4,488.5,481.6,488.4,481.8z"/>
	<path fill="#FFFFFF" d="M515.4,478.3v16h-4.3v-11.2l-6.2,11.2h-3.3v-16h4.3v10.5l5.9-10.5H515.4z"/>
	<path fill="#FFFFFF" d="M533.1,478.3v16h-4.3v-11.2l-6.2,11.2h-3.3v-16h4.3v10.5l5.9-10.5H533.1z"/>
	<path fill="#FFFFFF" d="M559.2,475.8h-5.6v18.5h-4.4v-18.5h-5.6v-2.3h15.6V475.8z"/>
	<path fill="#FFFFFF" d="M580.1,486.3c0,5.4-2.4,8.4-7.2,8.4c-4,0-6.4-2.6-6.7-7.5h-1.9v7.1H560v-16h4.3v6.7h1.9
		c0.4-4.5,2.7-7,6.7-7C577.7,477.9,580.1,480.9,580.1,486.3z M570.2,486.2c0,4.3,0.6,6.3,2.7,6.3c2.1,0,2.8-2,2.8-6.3
		c0-4.5-0.6-6.3-2.8-6.3C570.8,479.9,570.2,481.7,570.2,486.2z"/>
	<path fill="#FFFFFF" d="M601,494.3h-4l-0.3-10.5V482h-0.1l-4.1,12.2h-2.9l-3.9-12.2h-0.1l0,0.9l-0.5,11.3h-2.4l0.9-16h5.1l3.1,11.5
		h0l3.6-11.5h5L601,494.3z"/>
	<path fill="#FFFFFF" d="M616.8,491.5c0,0-1.5,3.1-5.7,3.1c-4.5,0-7.5-2.3-7.5-8.1c0-5.7,2.8-8.6,7.1-8.6c4,0,6.3,2.6,6.3,7.2
		c0,1.3-0.3,2-0.3,2h-8.6c0.1,3.9,1.1,5.3,3.5,5.3c2.5,0,3.7-2.1,3.7-2.1L616.8,491.5z M608.2,485.1h4.9v-0.7c0-3.3-0.6-4.4-2.3-4.4
		C609.1,480,608.3,481.1,608.2,485.1z"/>
	<path fill="#FFFFFF" d="M619.8,478.3h4.3v6.7h5v-6.7h4.3v16H629v-7.1h-5v7.1h-4.3V478.3z"/>
	<path fill="#FFFFFF" d="M644.3,480c-2.3,0-3.6,1.1-3.6,6.2c0,5.1,1.5,6.2,3.5,6.2c2.5,0,3.6-2.2,3.6-2.2l1.5,1c0,0-1.2,3.4-5.6,3.4
		c-4.9,0-7.6-2.8-7.6-8.3c0-5.2,2.9-8.4,7.7-8.4c2.2,0,4.7,1.2,4.7,1.2l-0.4,2C648.1,481.2,645.8,480,644.3,480z"/>
	<path fill="#FFFFFF" d="M651.4,478.3h4.3v6.7l2-1.1l3.6-5.6h2.5l-3.8,6l5,10h-4.8l-3.4-7.6l-1,0.4v7.1h-4.3V478.3z"/>
	<path fill="#FFFFFF" d="M673.7,494.6c-4.8,0-7.5-3-7.5-8.4s2.7-8.4,7.5-8.4c4.8,0,7.5,3,7.5,8.4S678.3,494.6,673.7,494.6z
		 M670.8,486.2c0,4.6,0.8,6.3,2.9,6.3s2.9-1.6,2.9-6.2c0-4.6-0.8-6.2-2.9-6.2S670.8,481.6,670.8,486.2z"/>
	<path fill="#FFFFFF" d="M697.8,478.3v16h-4.3v-11.2l-6.2,11.2H684v-16h4.3v10.5l5.9-10.5H697.8z M693.1,473c0-0.4-0.1-0.6-0.1-0.6
		V472l3.3,0.3c0,0,0.3,3.9-5.1,3.9c-5.3,0-5.1-3.9-5.1-3.9l3.3-0.3v0.4c0,0-0.1,0.3-0.1,0.6c0,0.5,0.3,1.2,1.9,1.2
		C692.8,474.3,693.1,473.6,693.1,473z"/>
	<path fill="#FFFFFF" d="M716.3,494.6c-4.8,0-7.5-3-7.5-8.4s2.7-8.4,7.5-8.4c4.8,0,7.5,3,7.5,8.4S720.9,494.6,716.3,494.6z
		 M713.4,486.2c0,4.6,0.8,6.3,2.9,6.3s2.9-1.6,2.9-6.2c0-4.6-0.8-6.2-2.9-6.2S713.4,481.6,713.4,486.2z"/>
	<path fill="#FFFFFF" d="M727.9,482.5h0.3c0.3-1.3,1.8-4.6,5.6-4.6c4.3,0,6.8,2.9,6.8,8.3s-2.8,8.4-7.5,8.4c-5.2,0-7.4-3.7-7.4-9.2
		c0-6.4,0.5-13.8,8.5-14.8l4.5-0.6l0.2,4.2l-3.5,0.3C729.9,474.9,727.9,477.6,727.9,482.5z M730.3,485.6c0,5,0.8,6.8,2.8,6.8
		c2.1,0,2.9-1.8,2.9-6.3s-0.8-6.1-2.9-6.1C731.1,480,730.3,482,730.3,485.6z"/>
	<path fill="#FFFFFF" d="M755.6,494.3h-4.3v-13.7h-2.9c-0.2,8-1.8,14-5.8,14c-0.3,0-0.5,0-0.8-0.1l0.2-2.6c0.1,0,0.3,0,0.4,0
		c2.8,0,3.7-5.4,3.7-13.7h9.5V494.3z"/>
	<path fill="#FFFFFF" d="M760.3,479.2c0,0,2.5-1.3,5-1.3c3.7,0,6.2,1.3,6.2,5.6v7.3c0,1.3,0.4,1.7,0.7,1.7c0.4,0,1.1-0.2,1.1-0.2
		l0.1,1.7c0,0-2.2,0.7-3.6,0.7c-1.2,0-1.9-0.6-2.1-2h-0.2c0,0-0.9,2-4.2,2c-2.9,0-4.9-1.6-4.9-4.2c0-4.3,5.4-5.3,8.8-5.6v-0.9
		c0-3-0.8-3.8-2.7-3.8c-1.5,0-3.8,1.2-3.8,1.2L760.3,479.2z M767.2,486.5c-2.7,0.3-4.4,1.2-4.4,3.4c0,1.8,0.8,2.6,1.9,2.6
		c1.8,0,2.5-1.8,2.5-1.8V486.5z"/>
	<path fill="#FFFFFF" d="M783.1,480c-2.3,0-3.6,1.1-3.6,6.2c0,5.1,1.5,6.2,3.5,6.2c2.5,0,3.6-2.2,3.6-2.2l1.5,1c0,0-1.2,3.4-5.6,3.4
		c-4.9,0-7.6-2.8-7.6-8.3c0-5.2,2.9-8.4,7.7-8.4c2.2,0,4.7,1.2,4.7,1.2l-0.4,2C786.8,481.2,784.6,480,783.1,480z"/>
	<path fill="#FFFFFF" d="M797.4,480.6v13.7h-4.2v-13.7h-4.6l0-2.3H802v2.3H797.4z"/>
	<path fill="#FFFFFF" d="M818.1,478.3v16h-4.3v-11.2l-6.2,11.2h-3.3v-16h4.3v10.5l5.9-10.5H818.1z"/>
</g>
</svg>
