<?xml version="1.0" encoding="utf-8"?>
<!-- Generator: Adobe Illustrator 18.0.0, SVG Export Plug-In . SVG Version: 6.00 Build 0)  -->
<!DOCTYPE svg PUBLIC "-//W3C//DTD SVG 1.1//EN" "http://www.w3.org/Graphics/SVG/1.1/DTD/svg11.dtd">
<svg version="1.1" id="Слой_1" xmlns="http://www.w3.org/2000/svg" xmlns:xlink="http://www.w3.org/1999/xlink" x="0px" y="0px"
	 viewBox="0 0 70.9 70.9" enable-background="new 0 0 70.9 70.9" xml:space="preserve">
<path fill="#E52629" d="M22.7,20.1c2.2,0,3.9,1.7,3.9,3.7c0,2.1-1.8,3.7-3.9,3.7c-2.2,0-3.9-1.7-3.9-3.7
	C18.8,21.8,20.5,20.1,22.7,20.1"/>
<path fill="#1B94D2" d="M62.1,2.7c-9,0.5-15.5,4-21.1,10.6C31.1,25,34.6,39.9,10.6,47.8C20.4,45,29.4,42.2,35,34.6
	C45,21,43.3,7.9,62.1,2.7"/>
<path fill="#E52629" d="M60,26.8c-3.7,5.4-6.1,10.6-10.7,15.2c-12,12-33.8,10.8-41.6,27.9C11,60.6,17,53.5,25.1,48.6
	C39.2,40.1,47.4,42.3,60,26.8"/>
</svg>
