<?xml version="1.0" encoding="utf-8"?>
<!DOCTYPE svg PUBLIC "-//W3C//DTD SVG 1.1//EN" "http://www.w3.org/Graphics/SVG/1.1/DTD/svg11.dtd">
<svg version="1.1" xmlns="http://www.w3.org/2000/svg" xmlns:xlink="http://www.w3.org/1999/xlink" x="0px" y="0px"
	 viewBox="0 0 27.1 27.1" enable-background="new 0 0 27.1 27.1" xml:space="preserve">
<g>
	<g>
		<path fill="#FFFFFF" d="M25.7,25.8c-1,0.1-2,0.2-3,0.2c-1,0.1-2,0.1-3,0.2c-2,0.1-4.1,0.2-6.1,0.2c-2,0.1-4.1,0.1-6.1,0.1
			c-2,0-4.1,0-6.1-0.1l-0.9,0l0-0.8c0.1-2,0.2-4.1,0.3-6.1c0.1-2,0.2-4.1,0.2-6.1c0-2,0-4.1,0-6.1c0-2-0.1-4.1-0.2-6.1l0-0.5l0.6,0
			c2-0.1,4.1-0.2,6.1-0.2c2-0.1,4.1-0.1,6.1-0.1l6.1-0.1c2,0,4.1,0,6.1,0l1.1,0l0,1.1c0,2,0,4.1-0.1,6.1c0,2-0.1,4.1-0.2,6.1
			c-0.1,2-0.2,4.1-0.3,6.1c0,1-0.1,2-0.2,3c-0.1,1-0.1,2-0.2,3L25.7,25.8L25.7,25.8z M25.6,25.6c-0.1-1-0.2-2-0.2-2.9
			c-0.1-1-0.1-2-0.2-3c-0.1-2-0.2-4.1-0.3-6.1c-0.1-2-0.1-4.1-0.2-6.1c-0.1-2-0.1-4.1-0.1-6.1l1.1,1.1c-2,0-4.1,0-6.1,0l-6.1-0.1
			c-2,0-4.1-0.1-6.1-0.1c-2,0-4.1-0.2-6.1-0.2L2,1.4c-0.1,2-0.2,4.1-0.2,6.1c0,2,0,4.1,0,6.1c0,2,0.1,4.1,0.2,6.1
			c0.1,2,0.2,4.1,0.3,6.1l-0.8-0.8c2-0.1,4.1-0.1,6.1-0.1c2,0,4.1,0,6.1,0.1c2,0.1,4.1,0.1,6.1,0.2c1,0,2,0.1,3,0.2
			C23.7,25.5,24.7,25.5,25.6,25.6z"/>
	</g>
</g>
<g>
	<path fill="#FFFFFF" d="M12.8,16.6h0.7c0,0,0.2,0,0.3-0.1c0.1-0.1,0.1-0.3,0.1-0.3
		s0-0.9,0.4-1.1c0.4-0.1,1,0.9,1.5,1.3c0.4,0.3,0.8,0.2,0.8,0.2l1.5,0c0,0,0.8,0,0.4-0.7c0-0.1-0.2-0.5-1.1-1.3
		c-1-0.9-0.8-0.8,0.3-2.3c0.7-0.9,1-1.5,0.9-1.8c-0.1-0.2-0.6-0.2-0.6-0.2l-1.7,0c0,0-0.1,0-0.2,0c-0.1,0.1-0.2,0.2-0.2,0.2
		s-0.3,0.7-0.6,1.4c-0.8,1.3-1.1,1.4-1.2,1.3c-0.3-0.2-0.2-0.8-0.2-1.2c0-1.3,0.2-1.8-0.4-1.9c-0.2,0-0.3-0.1-0.8-0.1
		c-0.6,0-1.1,0-1.4,0.1c-0.2,0.1-0.3,0.3-0.3,0.3c0.1,0,0.4,0.1,0.5,0.3c0.2,0.2,0.2,0.8,0.2,0.8s0.1,1.5-0.2,1.7
		c-0.2,0.1-0.6-0.1-1.2-1.3c-0.4-0.6-0.6-1.3-0.6-1.3s-0.1-0.1-0.1-0.2c-0.1-0.1-0.3-0.1-0.3-0.1l-1.7,0c0,0-0.2,0-0.3,0.1
		c-0.1,0.1,0,0.3,0,0.3s1.3,3,2.8,4.5C11.3,16.6,12.8,16.6,12.8,16.6L12.8,16.6z"/>
	<path fill="#FFFFFF" d="M12.8,16.5l0.7-0.1l0,0c0.1,0,0.2-0.1,0.2-0.1c0,0,0-0.1,0.1-0.2l0-0.3c0-0.1,0-0.2,0-0.3
		c0-0.2,0.1-0.5,0.3-0.7c0.1-0.1,0.3-0.1,0.5-0.1c0.1,0.1,0.2,0.1,0.3,0.2c0.3,0.3,0.6,0.6,0.9,0.8c0.1,0.1,0.1,0.1,0.2,0.2
		c0,0,0.2,0.1,0.2,0.1c0.1,0,0.1,0,0.2,0.1c0.1,0,0.2,0,0.1,0l0,0l0.1,0l1.2-0.1c0.2,0,0.4,0,0.4-0.1c0,0,0,0,0,0c0,0.1,0,0.1,0,0
		c-0.1-0.3-0.4-0.6-0.7-0.9c-0.3-0.3-0.6-0.5-0.9-0.9c-0.1-0.1-0.2-0.2-0.2-0.4c-0.1-0.2-0.1-0.5,0-0.6c0.1-0.3,0.3-0.5,0.4-0.6
		l0.8-0.9c0.2-0.3,0.5-0.6,0.7-1c0.1-0.1,0.1-0.4,0.1-0.4c0.1,0.1,0,0-0.1,0c-0.1,0-0.2,0-0.3,0l0,0c-0.6,0-1.2,0-1.7,0l0,0l0,0
		c-0.2,0-0.2,0.1-0.3,0.3l-0.3,0.7c-0.2,0.4-0.5,0.8-0.7,1.3c-0.1,0.2-0.3,0.4-0.5,0.6c-0.1,0-0.1,0.1-0.2,0.1
		c-0.1,0-0.3-0.1-0.3-0.1c-0.2-0.2-0.2-0.3-0.2-0.4c-0.1-0.3,0-0.5-0.1-0.8l0-0.7c0-0.2,0-0.5,0-0.7c0-0.1,0-0.2-0.1-0.2
		c0,0,0,0-0.1,0l0,0l0,0c0.1,0,0,0,0,0l0,0l-0.2,0l-0.4,0l-0.2,0c0,0-0.1,0-0.1,0l-0.3,0c-0.2,0-0.4,0-0.6,0.1c-0.1,0-0.1,0-0.2,0.1
		c0,0,0,0,0,0c0,0,0,0,0,0c0,0,0,0,0-0.1c0,0,0-0.1,0-0.2c0-0.1-0.1-0.2-0.2-0.3C11,10,11.1,10,11.1,10l0.1,0l0.1,0
		c0.1,0,0.2,0.1,0.3,0.1c0.1,0,0.2,0.1,0.3,0.2c0,0,0.1,0.1,0.1,0.1c0,0,0,0.1,0.1,0.1c0.2,0.4,0.2,0.6,0.2,0.9l0,0
		c0,0.3,0,0.5,0,0.8c0,0.3,0,0.5-0.1,0.8c-0.1,0.1,0,0.4-0.5,0.6c0,0-0.1,0.1-0.3,0.1c-0.1,0-0.2,0-0.3,0c-0.1,0-0.2-0.1-0.3-0.2
		c-0.3-0.2-0.4-0.4-0.6-0.6c-0.1-0.2-0.3-0.4-0.4-0.6c0-0.1,0-0.1-0.1-0.2l-0.1-0.2l-0.2-0.3L9.2,11l-0.1-0.2c0,0,0,0,0,0
		c0,0,0,0,0,0c0,0,0,0,0,0l0.1,0l-1.4,0l-0.3,0c-0.1,0-0.1,0.1,0.1-0.1c0.1-0.2,0-0.2,0.1-0.2l0,0l0,0c0-0.1,0,0,0,0l0,0l0.1,0.3
		c0.3,0.8,0.7,1.6,1.2,2.4c0.2,0.4,0.4,0.8,0.7,1.1c0.1,0.2,0.3,0.4,0.4,0.5c0.1,0.2,0.3,0.3,0.4,0.5C11.1,16,11.9,16.4,12.8,16.5z
		 M12.8,16.6c-0.5,0-0.9,0-1.4-0.2c-0.5-0.1-0.9-0.4-1.3-0.7c-0.2-0.1-0.4-0.3-0.5-0.5c-0.2-0.2-0.3-0.3-0.5-0.5
		c-0.3-0.4-0.6-0.7-0.8-1.1c-0.5-0.8-1-1.6-1.4-2.4l-0.2-0.3l0,0l0-0.1l0,0c0,0,0-0.1,0-0.2c0-0.1-0.1-0.2,0.1-0.5
		C7,9.8,7.2,9.8,7.4,9.8c0.2,0,0.3,0,0.4,0l1.4,0l0,0l0,0c0.1,0,0.2,0,0.3,0.1c0.1,0,0.2,0.1,0.3,0.2c0.1,0.1,0.1,0.2,0.2,0.3
		l0.1,0.1l0.3,0.6l0.2,0.3l0.1,0.2l0.1,0.1l0.4,0.6c0.1,0.2,0.3,0.4,0.3,0.4c0,0,0,0,0,0c0,0,0,0-0.1,0c-0.1,0-0.2,0-0.1,0
		c-0.2,0.2-0.1,0.1-0.1,0c0.1-0.3,0.1-0.8,0.1-1.2l0,0l0,0c0-0.2,0-0.4-0.1-0.5c0,0,0,0,0,0c0,0,0,0,0,0c0,0,0,0,0,0c0,0,0,0-0.1,0
		l0,0l0,0c0,0,0,0-0.2-0.1c-0.1-0.1-0.2-0.2-0.2-0.3c0-0.1,0-0.2,0-0.2c0-0.1,0-0.1,0.1-0.2c0-0.1,0.1-0.1,0.1-0.1
		c0.1-0.1,0.1-0.1,0.2-0.2c0.2-0.1,0.4-0.2,0.5-0.2c0.3-0.1,0.5-0.1,0.8-0.1l0.4,0c0.1,0,0.1,0,0.2,0l0.2,0l0.4,0l0.2,0l0,0l0.1,0
		l0,0c0,0,0.1,0,0.1,0c0.2,0.1,0.4,0.3,0.4,0.4c0.1,0.2,0.1,0.3,0.1,0.5c0,0.3,0,0.5-0.1,0.7c0,0.2,0,0.5,0,0.7c0,0.2,0,0.5,0,0.7
		c0,0.1,0.1,0.2,0.1,0.2c0.1,0.1,0,0,0,0c0,0,0,0,0.1,0c0.2-0.1,0.3-0.3,0.4-0.5c0.3-0.4,0.5-0.8,0.7-1.2c0.1-0.2,0.2-0.4,0.3-0.6
		c0-0.1,0.1-0.2,0.2-0.4c0.1-0.1,0.3-0.2,0.5-0.2l0,0c0.6,0,1.2,0,1.7-0.1l0,0c0.1,0,0.2,0,0.4,0c0.1,0,0.3,0,0.5,0.2
		c0.2,0.4,0,0.6-0.1,0.8c-0.2,0.4-0.4,0.8-0.6,1.1l-0.7,1c-0.1,0.2-0.2,0.3-0.2,0.4c0,0,0,0,0,0c0,0,0,0.1,0.1,0.1
		c0.2,0.2,0.6,0.5,0.9,0.8c0.3,0.3,0.6,0.6,0.8,1.1c0.1,0.1,0.1,0.3,0.1,0.6c-0.1,0.3-0.3,0.4-0.4,0.5c-0.2,0.1-0.3,0.1-0.4,0.1
		l-0.3,0l-1.2,0l0.1,0c-0.2,0-0.3,0-0.5,0c-0.1,0-0.2-0.1-0.4-0.1c-0.1-0.1-0.2-0.1-0.3-0.2c-0.1-0.1-0.2-0.2-0.2-0.2
		c-0.3-0.3-0.5-0.7-0.8-0.9c-0.1-0.1-0.1-0.1-0.2-0.1c0,0,0,0-0.1,0c-0.1,0-0.2,0.2-0.2,0.3c0,0.1,0,0.2-0.1,0.3l0,0.3
		c0,0.1-0.1,0.3-0.2,0.4c-0.1,0.1-0.2,0.1-0.3,0.1l0,0l0,0L12.8,16.6z"/>
</g>
</svg>
